<svg xmlns="http://www.w3.org/2000/svg" xmlns:xlink="http://www.w3.org/1999/xlink" width="500" zoomAndPan="magnify" viewBox="0 0 375 374.999991" height="500" preserveAspectRatio="xMidYMid meet" version="1.0"><defs><clipPath id="af5229e8c4"><path d="M 70 69 L 328 69 L 328 297 L 70 297 Z M 70 69 " clip-rule="nonzero"/></clipPath><clipPath id="ebf4ae19c0"><path d="M 17.984375 234.925781 L 270.765625 9.046875 L 369.210938 119.21875 L 116.429688 345.101562 Z M 17.984375 234.925781 " clip-rule="nonzero"/></clipPath><clipPath id="fffc0596c1"><path d="M 17.984375 234.925781 L 270.765625 9.046875 L 369.210938 119.21875 L 116.429688 345.101562 Z M 17.984375 234.925781 " clip-rule="nonzero"/></clipPath></defs><rect x="-37.5" width="450" fill="#ffffff" y="-37.499999" height="449.999989" fill-opacity="1"/><rect x="-37.5" width="450" fill="#ffffff" y="-37.499999" height="449.999989" fill-opacity="1"/><g clip-path="url(#af5229e8c4)"><g clip-path="url(#ebf4ae19c0)"><g clip-path="url(#fffc0596c1)"><path fill="#7460e4" d="M 259.511719 102.722656 C 246.667969 101.78125 234.253906 101.101562 221.894531 99.886719 C 213.679688 99.078125 206.054688 96.253906 200.59375 89.640625 C 198.792969 87.460938 197.328125 84.648438 196.738281 81.902344 C 195.578125 76.449219 198.335938 73.773438 203.867188 74.386719 C 206.25 74.648438 208.613281 75.132812 210.972656 75.597656 C 238.699219 81.058594 266.210938 78.71875 293.660156 73.402344 C 297.617188 72.632812 301.648438 72.265625 305.632812 71.65625 C 306.808594 71.480469 308.027344 71.273438 309.097656 70.792969 C 318.101562 66.78125 326.339844 71.671875 327.085938 81.519531 C 327.382812 85.429688 325.503906 88.457031 323.105469 91.242188 C 312.011719 104.15625 302.628906 118.175781 295.914062 133.851562 C 291.078125 145.128906 288.535156 156.875 289.648438 169.269531 C 290.082031 174.050781 290.160156 178.871094 290.246094 183.675781 C 290.34375 189.265625 286.539062 193.457031 280.976562 194.109375 C 273.332031 195.007812 266.738281 189.777344 265.84375 182.078125 C 264.121094 167.261719 265.765625 152.648438 268.617188 138.113281 C 268.886719 136.75 269.21875 135.398438 269.570312 133.828125 C 266.550781 136.527344 263.667969 138.902344 261.011719 141.507812 C 220.082031 181.59375 177.832031 220.25 134.863281 258.128906 C 124.042969 267.667969 113.566406 277.605469 102.777344 287.175781 C 97.585938 291.777344 91.722656 295.476562 84.660156 296.429688 C 82.023438 296.789062 79.15625 296.761719 76.601562 296.113281 C 71.503906 294.816406 69.53125 290.707031 71.816406 285.988281 C 73.210938 283.105469 75.230469 280.355469 77.515625 278.101562 C 85.675781 270.039062 94.035156 262.171875 102.386719 254.300781 C 117.339844 240.207031 132.429688 226.261719 147.296875 212.074219 C 166.269531 193.964844 185.078125 175.6875 203.953125 157.480469 C 213.550781 148.226562 223.210938 139.042969 232.707031 129.6875 C 241.796875 120.730469 250.707031 111.597656 259.507812 102.722656 Z M 259.511719 102.722656 " fill-opacity="1" fill-rule="nonzero"/></g></g></g></svg>