<svg xmlns="http://www.w3.org/2000/svg" xmlns:xlink="http://www.w3.org/1999/xlink" width="500" zoomAndPan="magnify" viewBox="0 0 375 374.999991" height="500" preserveAspectRatio="xMidYMid meet" version="1.0"><defs><clipPath id="d1d144ed33"><path d="M 135 264 L 218 264 L 218 328 L 135 328 Z M 135 264 " clip-rule="nonzero"/></clipPath><clipPath id="72245c4cff"><path d="M 73.359375 9.195312 L 343.09375 46.136719 L 301.878906 347.074219 L 32.144531 310.136719 Z M 73.359375 9.195312 " clip-rule="nonzero"/></clipPath><clipPath id="e5d559662c"><path d="M 73.359375 9.195312 L 343.09375 46.136719 L 301.878906 347.074219 L 32.144531 310.136719 Z M 73.359375 9.195312 " clip-rule="nonzero"/></clipPath><clipPath id="fd7a41ec10"><path d="M 117 99 L 263 99 L 263 273 L 117 273 Z M 117 99 " clip-rule="nonzero"/></clipPath><clipPath id="032b1d6351"><path d="M 73.359375 9.195312 L 343.09375 46.136719 L 301.878906 347.074219 L 32.144531 310.136719 Z M 73.359375 9.195312 " clip-rule="nonzero"/></clipPath><clipPath id="ad232fdadf"><path d="M 73.359375 9.195312 L 343.09375 46.136719 L 301.878906 347.074219 L 32.144531 310.136719 Z M 73.359375 9.195312 " clip-rule="nonzero"/></clipPath><clipPath id="48843b99ea"><path d="M 166 220 L 194 220 L 194 266 L 166 266 Z M 166 220 " clip-rule="nonzero"/></clipPath><clipPath id="e1b9e17749"><path d="M 73.359375 9.195312 L 343.09375 46.136719 L 301.878906 347.074219 L 32.144531 310.136719 Z M 73.359375 9.195312 " clip-rule="nonzero"/></clipPath><clipPath id="68a8f7ef55"><path d="M 73.359375 9.195312 L 343.09375 46.136719 L 301.878906 347.074219 L 32.144531 310.136719 Z M 73.359375 9.195312 " clip-rule="nonzero"/></clipPath><clipPath id="7f6ff2a9ae"><path d="M 58 105 L 101 105 L 101 135 L 58 135 Z M 58 105 " clip-rule="nonzero"/></clipPath><clipPath id="fa9ef62285"><path d="M 73.359375 9.195312 L 343.09375 46.136719 L 301.878906 347.074219 L 32.144531 310.136719 Z M 73.359375 9.195312 " clip-rule="nonzero"/></clipPath><clipPath id="8c8dcbcb35"><path d="M 73.359375 9.195312 L 343.09375 46.136719 L 301.878906 347.074219 L 32.144531 310.136719 Z M 73.359375 9.195312 " clip-rule="nonzero"/></clipPath><clipPath id="7509775090"><path d="M 111 47 L 141 47 L 141 87 L 111 87 Z M 111 47 " clip-rule="nonzero"/></clipPath><clipPath id="80cb838491"><path d="M 73.359375 9.195312 L 343.09375 46.136719 L 301.878906 347.074219 L 32.144531 310.136719 Z M 73.359375 9.195312 " clip-rule="nonzero"/></clipPath><clipPath id="250a6b304b"><path d="M 73.359375 9.195312 L 343.09375 46.136719 L 301.878906 347.074219 L 32.144531 310.136719 Z M 73.359375 9.195312 " clip-rule="nonzero"/></clipPath><clipPath id="75d42a9cba"><path d="M 203 29 L 225 29 L 225 72 L 203 72 Z M 203 29 " clip-rule="nonzero"/></clipPath><clipPath id="ffa88e4b41"><path d="M 73.359375 9.195312 L 343.09375 46.136719 L 301.878906 347.074219 L 32.144531 310.136719 Z M 73.359375 9.195312 " clip-rule="nonzero"/></clipPath><clipPath id="777874cd1b"><path d="M 73.359375 9.195312 L 343.09375 46.136719 L 301.878906 347.074219 L 32.144531 310.136719 Z M 73.359375 9.195312 " clip-rule="nonzero"/></clipPath><clipPath id="0c7ee85e21"><path d="M 291 147 L 327 147 L 327 168 L 291 168 Z M 291 147 " clip-rule="nonzero"/></clipPath><clipPath id="836b06f98e"><path d="M 73.359375 9.195312 L 343.09375 46.136719 L 301.878906 347.074219 L 32.144531 310.136719 Z M 73.359375 9.195312 " clip-rule="nonzero"/></clipPath><clipPath id="1b6b8cdf83"><path d="M 73.359375 9.195312 L 343.09375 46.136719 L 301.878906 347.074219 L 32.144531 310.136719 Z M 73.359375 9.195312 " clip-rule="nonzero"/></clipPath><clipPath id="bf68705864"><path d="M 273 220 L 308 220 L 308 253 L 273 253 Z M 273 220 " clip-rule="nonzero"/></clipPath><clipPath id="db15317ca1"><path d="M 73.359375 9.195312 L 343.09375 46.136719 L 301.878906 347.074219 L 32.144531 310.136719 Z M 73.359375 9.195312 " clip-rule="nonzero"/></clipPath><clipPath id="da8a8b1f0e"><path d="M 73.359375 9.195312 L 343.09375 46.136719 L 301.878906 347.074219 L 32.144531 310.136719 Z M 73.359375 9.195312 " clip-rule="nonzero"/></clipPath><clipPath id="09c10ad9f7"><path d="M 274 71 L 309 71 L 309 104 L 274 104 Z M 274 71 " clip-rule="nonzero"/></clipPath><clipPath id="33ad67baac"><path d="M 73.359375 9.195312 L 343.09375 46.136719 L 301.878906 347.074219 L 32.144531 310.136719 Z M 73.359375 9.195312 " clip-rule="nonzero"/></clipPath><clipPath id="99c5db4c1f"><path d="M 73.359375 9.195312 L 343.09375 46.136719 L 301.878906 347.074219 L 32.144531 310.136719 Z M 73.359375 9.195312 " clip-rule="nonzero"/></clipPath><clipPath id="84a2bfdb1b"><path d="M 68 194 L 106 194 L 106 217 L 68 217 Z M 68 194 " clip-rule="nonzero"/></clipPath><clipPath id="5c89a0b55d"><path d="M 73.359375 9.195312 L 343.09375 46.136719 L 301.878906 347.074219 L 32.144531 310.136719 Z M 73.359375 9.195312 " clip-rule="nonzero"/></clipPath><clipPath id="5ed78ed622"><path d="M 73.359375 9.195312 L 343.09375 46.136719 L 301.878906 347.074219 L 32.144531 310.136719 Z M 73.359375 9.195312 " clip-rule="nonzero"/></clipPath><clipPath id="b3eab3ff90"><path d="M 155 182 L 170 182 L 170 217 L 155 217 Z M 155 182 " clip-rule="nonzero"/></clipPath><clipPath id="2b2f316447"><path d="M 73.359375 9.195312 L 343.09375 46.136719 L 301.878906 347.074219 L 32.144531 310.136719 Z M 73.359375 9.195312 " clip-rule="nonzero"/></clipPath><clipPath id="6b1d1ec337"><path d="M 73.359375 9.195312 L 343.09375 46.136719 L 301.878906 347.074219 L 32.144531 310.136719 Z M 73.359375 9.195312 " clip-rule="nonzero"/></clipPath><clipPath id="58e0f47000"><path d="M 121 91 L 274 91 L 274 275 L 121 275 Z M 121 91 " clip-rule="nonzero"/></clipPath><clipPath id="856eca10c0"><path d="M 73.359375 9.195312 L 343.09375 46.136719 L 301.878906 347.074219 L 32.144531 310.136719 Z M 73.359375 9.195312 " clip-rule="nonzero"/></clipPath><clipPath id="77e4cb651c"><path d="M 73.359375 9.195312 L 343.09375 46.136719 L 301.878906 347.074219 L 32.144531 310.136719 Z M 73.359375 9.195312 " clip-rule="nonzero"/></clipPath><clipPath id="283370a68c"><path d="M 138 264 L 218 264 L 218 327 L 138 327 Z M 138 264 " clip-rule="nonzero"/></clipPath><clipPath id="3324bd84ee"><path d="M 73.359375 9.195312 L 343.09375 46.136719 L 301.878906 347.074219 L 32.144531 310.136719 Z M 73.359375 9.195312 " clip-rule="nonzero"/></clipPath><clipPath id="6822c484b7"><path d="M 73.359375 9.195312 L 343.09375 46.136719 L 301.878906 347.074219 L 32.144531 310.136719 Z M 73.359375 9.195312 " clip-rule="nonzero"/></clipPath></defs><g clip-path="url(#d1d144ed33)"><g clip-path="url(#72245c4cff)"><g clip-path="url(#e5d559662c)"><path fill="#4a71f6" d="M 217.34375 280.382812 C 217.082031 278.269531 216.789062 275.050781 214.542969 274.070312 C 213.539062 273.8125 212.457031 273.664062 211.421875 273.644531 C 209.53125 273.628906 207.640625 274.042969 205.703125 273.472656 C 204.371094 272.921875 203.128906 274.402344 201.738281 273.84375 C 200.273438 273.398438 198.699219 273.734375 197.191406 273.160156 C 196.546875 272.949219 195.691406 273.382812 195.050781 273.171875 C 194.25 272.757812 193.488281 272.960938 192.652344 273.273438 C 192.335938 273.351562 191.941406 273.542969 191.652344 273.441406 C 190.554688 272.984375 189.585938 273.339844 188.527344 273.5 C 188.03125 273.554688 187.535156 273.609375 187.078125 273.363281 C 186.101562 272.925781 184.988281 273.015625 183.953125 272.996094 C 182.035156 273.164062 180.113281 272.472656 178.207031 273.003906 C 177.710938 273.058594 177.234375 273.421875 176.820312 273.304688 C 174.027344 272.738281 171.289062 273.097656 168.480469 273.078125 C 165.300781 272.644531 162.035156 271.953125 159.105469 270.574219 C 158.214844 269.960938 157.226562 269.582031 156.222656 269.320312 C 153.230469 268.851562 151.730469 265.53125 148.523438 265.761719 C 147.648438 265.886719 146.664062 265.933594 145.796875 265.574219 C 144.5625 265.21875 141.261719 264.339844 140.402344 265.261719 C 139.707031 266.328125 138.667969 267.222656 138.304688 268.519531 C 137.953125 269.753906 137.910156 270.96875 139.128906 271.871094 C 139.355469 272.023438 139.507812 272.226562 139.535156 272.476562 C 139.617188 273.21875 140.109375 273.652344 140.597656 274.085938 C 141.167969 274.410156 141.300781 275.222656 140.496094 275.296875 C 138.929688 275.570312 138.140625 276.867188 137.195312 277.960938 C 133.578125 281.191406 136.265625 285.65625 138.851562 288.636719 C 138.285156 290.085938 138.636719 291.539062 139.304688 292.914062 C 139.539062 293.433594 139.472656 293.914062 139.398438 294.457031 C 139.183594 296.015625 138.46875 297.6875 140.125 298.953125 C 141.148438 302.640625 155.105469 305.589844 159.074219 306.5 C 162.820312 306.828125 154.417969 312.398438 156.40625 318.417969 C 156.4375 321.292969 158.304688 321.058594 159.300781 323.152344 C 159.285156 323.273438 159.507812 323.425781 159.628906 323.441406 C 161.460938 323.875 161.511719 326.203125 163.199219 326.800781 C 168.296875 328.417969 176.277344 328.59375 179.792969 323.878906 C 180.464844 322.996094 180.082031 321.78125 179.785156 320.824219 C 178.832031 318.859375 181.1875 319.0625 181.539062 317.398438 C 181.585938 317.039062 181.746094 316.753906 182.019531 316.546875 C 183.238281 315.675781 182.507812 312.09375 181.59375 311.171875 C 181.492188 311.035156 181.457031 310.847656 181.667969 310.632812 C 181.789062 310.648438 181.925781 310.546875 182.046875 310.5625 C 184.132812 311.398438 186.425781 311.160156 188.527344 311.878906 C 190.863281 311.769531 193.160156 311.960938 195.539062 311.980469 C 198.484375 311.898438 201.5 312.1875 204.394531 311.117188 C 207.902344 310.070312 210.273438 306.117188 208.988281 302.582031 C 208.804688 302.128906 208.691406 301.621094 208.9375 301.167969 C 210.410156 298.4375 211.074219 297.609375 209.839844 294.570312 C 209.59375 293.679688 209.207031 292.953125 208.195312 292.753906 C 207.835938 292.707031 207.628906 292.433594 207.554688 292.058594 C 210.449219 290.132812 214.363281 291.890625 212.964844 286.929688 C 212.761719 286.171875 212.175781 285.539062 212.472656 284.726562 C 213.539062 284.078125 214.605469 283.429688 215.890625 283.421875 C 217.085938 283.15625 217.265625 281.410156 217.34375 280.382812 Z M 217.34375 280.382812 " fill-opacity="1" fill-rule="nonzero"/></g></g></g><g clip-path="url(#fd7a41ec10)"><g clip-path="url(#032b1d6351)"><g clip-path="url(#ad232fdadf)"><path fill="#febf00" d="M 261.3125 173.046875 C 261.464844 172.824219 261.457031 172.457031 261.367188 172.199219 C 260.863281 170.96875 261.679688 169.921875 261.605469 168.6875 C 261.878906 167.136719 261.125 165.507812 262 164.039062 C 262.082031 163.867188 262.0625 163.558594 261.976562 163.300781 C 261.628906 162.277344 261.851562 161.085938 261.1875 160.136719 C 260.988281 159.804688 261.15625 159.460938 261.199219 159.160156 C 261.246094 156.601562 261.167969 154.023438 260.085938 151.675781 C 259.460938 150.429688 260.070312 149.105469 259.378906 147.914062 C 258.691406 146.230469 258.382812 144.476562 257.636719 142.785156 C 256.917969 141.34375 256.207031 139.839844 255.871094 138.265625 C 255.644531 137.257812 255.492188 136.136719 254.9375 135.265625 C 253.769531 133.089844 252.261719 131.171875 250.894531 129.089844 C 249.941406 126.699219 247.878906 125.253906 246.445312 123.226562 C 245.789062 122.21875 245.199219 121.160156 243.980469 120.6875 C 243.464844 120.433594 243.042969 119.949219 243.066406 119.339844 C 243.070312 118.425781 242.507812 118.042969 241.722656 117.996094 C 241.121094 117.914062 240.539062 117.710938 240.234375 117.242188 C 238.410156 115.402344 236.070312 113.738281 233.914062 112.527344 C 228.3125 109.253906 222.773438 105.992188 216.554688 104.101562 C 213.398438 103.054688 210.058594 102.90625 206.984375 101.6875 C 206.410156 101.425781 205.644531 101.199219 205.003906 101.417969 C 203.707031 101.972656 202.726562 101.105469 201.519531 101 C 199.722656 101.183594 197.9375 100.816406 196.136719 100.570312 C 194.101562 100.71875 192.023438 101.167969 189.960938 101.070312 C 188.605469 100.699219 187.242188 100.820312 185.945312 101.375 C 184.910156 101.78125 183.917969 101.890625 182.898438 101.324219 C 181.445312 100.757812 180.597656 98.929688 178.929688 99.070312 C 176.09375 99.230469 173.269531 98.90625 170.445312 99.433594 C 167.839844 99.261719 165.824219 101.492188 163.125 101.121094 C 160.894531 101.792969 158.742188 102.78125 156.453125 103.445312 C 152.023438 104.550781 148.382812 107.472656 144.378906 109.492188 C 142.378906 111.171875 140.074219 112.386719 138.027344 113.9375 C 136.648438 115.523438 135.019531 116.703125 133.488281 118.082031 C 131.898438 119.882812 130.910156 122.191406 128.992188 123.699219 C 128.785156 123.855469 128.675781 124.207031 128.523438 124.429688 C 126.886719 127.019531 125.875 129.933594 124.308594 132.46875 C 123.753906 133.371094 123.136719 134.324219 122.9375 135.335938 C 122.714844 136.957031 121.582031 138.085938 121.199219 139.558594 C 120.917969 141.597656 119.410156 143.226562 119.542969 145.382812 C 118.339844 147.480469 118.75 149.859375 118.078125 152.085938 C 117.46875 153.835938 117.335938 155.714844 117.457031 157.503906 C 117.605469 161.3125 117.390625 165.132812 117.839844 168.980469 C 117.941406 170.460938 117.550781 171.996094 118.148438 173.425781 C 118.835938 175.105469 119.023438 176.84375 119.078125 178.683594 C 119.101562 179.847656 119.125 181.011719 119.78125 182.019531 C 120.085938 182.488281 120.121094 183.105469 120.101562 183.714844 C 120.316406 187.042969 121.601562 190.152344 121.996094 193.503906 C 122.042969 194.0625 122.15625 194.566406 122.402344 195.027344 C 123.21875 196.179688 123.203125 197.644531 123.84375 198.769531 C 124.605469 199.910156 124.917969 201.175781 125.285156 202.511719 C 125.929688 205.410156 127.332031 208.105469 127.914062 210.996094 C 128.136719 212.921875 128.746094 214.71875 129.675781 216.433594 C 129.824219 217.554688 130.371094 218.484375 131.453125 219.058594 C 131.140625 219.996094 131.460938 220.773438 131.988281 221.394531 C 133.238281 222.972656 133.757812 224.996094 135.136719 226.53125 C 135.703125 227.28125 136.648438 227.960938 136.304688 229.136719 C 136.289062 229.253906 136.324219 229.445312 136.4375 229.519531 C 137.628906 231.089844 137.640625 233.230469 139.019531 234.761719 C 139.175781 234.964844 139.082031 235.199219 139.109375 235.445312 C 139.125 237.097656 140.09375 238.515625 140.179688 240.117188 C 141.195312 241.171875 141.109375 242.6875 141.675781 243.925781 C 142.238281 245.164062 142.347656 246.585938 142.589844 247.960938 C 142.84375 249.21875 142.859375 250.441406 142.515625 251.617188 C 141.828125 253.96875 140.976562 260.632812 145.238281 258.957031 C 146.359375 258.804688 147.628906 257.574219 148.582031 258.621094 C 151.019531 260.910156 154.296875 261.96875 157.378906 263.125 C 159.804688 264.128906 162.289062 264.285156 164.933594 264.160156 C 164.949219 263.613281 164.691406 263.269531 164.484375 263 C 162.558594 260.105469 164.292969 256.800781 164.882812 253.824219 C 166.015625 249.582031 166.785156 245.285156 167.386719 240.90625 C 167.863281 237.429688 167.835938 234.0625 168.183594 230.628906 C 168.207031 228.675781 167.664062 226.832031 168.355469 224.910156 C 168.574219 224.207031 168.425781 223.511719 167.675781 223.164062 C 158.238281 219.367188 157.25 217.644531 154.171875 207.996094 C 153.929688 207.105469 153.929688 206.191406 153.496094 205.335938 C 150.972656 201.019531 149.753906 196.085938 149.578125 191.109375 C 149.589844 188.363281 150.140625 185.6875 150.269531 182.957031 C 150.140625 181.226562 151.253906 179.789062 151.480469 178.109375 C 153.582031 175.28125 157.789062 174.453125 161.082031 175.394531 C 162.367188 175.8125 163.824219 175.890625 164.605469 177.339844 C 164.847656 177.800781 165.359375 178.054688 165.738281 178.414062 C 167.710938 180.089844 168.71875 182.550781 169.613281 184.933594 C 170.277344 187.222656 171.371094 189.511719 171.785156 191.832031 C 171.582031 193.328125 172.785156 194.351562 173.023438 195.726562 C 173.128906 196.292969 173.542969 196.835938 173.453125 197.496094 C 173.394531 197.917969 173.519531 198.363281 173.640625 198.804688 C 173.808594 199.808594 174.542969 200.703125 174.53125 201.679688 C 174.25 205.0625 175.210938 208.308594 175.179688 211.667969 C 175.214844 213.199219 175.421875 214.816406 174.660156 216.359375 C 174.328125 216.988281 174.34375 217.785156 174.738281 218.449219 C 177.273438 218.675781 179.773438 218.285156 182.238281 218.132812 C 182.328125 217.472656 182.128906 217.140625 182.007812 216.695312 C 181.46875 213.933594 184.65625 211.621094 186.59375 214.449219 C 188.4375 217.941406 191.355469 220.726562 194.605469 222.882812 C 195.863281 221.710938 195.625 220.332031 196.0625 218.925781 C 196.628906 217.902344 196.777344 216.824219 196.984375 215.753906 C 197.550781 212.53125 198.808594 209.585938 199.835938 206.546875 C 200.253906 205.261719 201.191406 204.230469 201.785156 203.027344 C 202.121094 202.339844 201.980469 201.585938 202.484375 201.046875 C 203.128906 200.339844 203.550781 199.480469 203.863281 198.546875 C 204.320312 197.445312 205.5 196.875 205.78125 195.691406 C 209.742188 190.429688 215.65625 182.929688 222.058594 180.808594 C 222.757812 180.601562 223.546875 180.21875 224.074219 181.269531 C 225.480469 181.707031 227.066406 182.167969 228.378906 182.835938 C 230.964844 184.046875 230.09375 187.714844 230.136719 190.105469 C 230.230469 191.644531 229.472656 192.703125 229.046875 194.050781 C 228.140625 197.53125 225.734375 200.378906 224.375 203.617188 C 222.484375 208.488281 218.78125 212.320312 214.800781 215.503906 C 212.660156 216.859375 210.476562 219.433594 207.742188 218.875 C 206.617188 218.597656 206.523438 217.488281 206.347656 216.546875 C 206.164062 215.664062 205.816406 214.640625 206.753906 214.035156 C 208.78125 212.601562 210.285156 210.546875 212.367188 209.183594 C 213.179688 208.621094 213.496094 207.625 214.308594 207.0625 C 215.65625 206.148438 216.804688 204.902344 217.601562 203.542969 C 218.636719 201.789062 220.582031 200.527344 220.710938 198.226562 C 222.519531 195.296875 224.0625 192.511719 224.785156 189.003906 C 222.714844 189.394531 221.898438 191.359375 220.128906 191.789062 C 219.042969 190.785156 219.308594 189.292969 218.753906 187.996094 C 214.074219 193.160156 210.363281 198.824219 207.660156 205.175781 C 207.140625 206.753906 206.738281 208.347656 206.285156 209.875 C 206.03125 210.820312 205.316406 211.578125 205.246094 212.546875 C 205.164062 214.488281 204.207031 216.128906 203.539062 217.871094 C 202.824219 221.316406 201.507812 224.683594 201.492188 228.347656 C 200.707031 231.417969 200.511719 234.628906 200.085938 237.746094 C 198.894531 246.445312 196.527344 254.796875 196.535156 263.660156 C 198.175781 263.273438 200.042969 264.386719 201.4375 262.679688 C 202.371094 262.992188 203.300781 262.449219 204.226562 262.820312 C 204.863281 263.089844 205.488281 262.992188 206.023438 262.636719 C 206.964844 262.03125 207.964844 262.292969 208.96875 262.125 C 209.960938 262.015625 210.765625 261.027344 212.027344 261.199219 C 211.511719 262.71875 211.875 264.539062 210.777344 265.855469 C 210.421875 266.234375 210.285156 266.765625 210.289062 267.195312 C 210.460938 268.621094 211.152344 272.933594 213.191406 271.867188 C 215.207031 270.554688 216.738281 268.75 217.175781 266.425781 C 217.59375 264.28125 218.367188 262.191406 218.371094 259.929688 C 218.472656 259.210938 219.058594 258.496094 218.984375 257.691406 C 220.652344 252.664062 222.992188 247.605469 224.667969 242.519531 C 225.316406 240.46875 225.960938 238.417969 226.84375 236.460938 C 227.722656 234.503906 228.160156 232.183594 230.003906 230.785156 C 230.535156 229.574219 231.402344 228.59375 232.3125 227.742188 C 235.113281 224.703125 236.246094 220.457031 238.984375 217.410156 C 239.746094 215.863281 240.84375 214.546875 241.886719 213.164062 C 242.328125 212.613281 242.4375 211.832031 243.027344 211.546875 C 244 211.128906 244.421875 210.273438 244.957031 209.488281 C 245.820312 207.652344 247.636719 206.433594 248.042969 204.351562 C 248.183594 203.332031 248.804688 202.378906 249.519531 201.621094 C 250.734375 200.320312 250.894531 198.265625 252.28125 197.050781 C 253.542969 195.878906 254.347656 194.460938 255.496094 193.210938 C 256.410156 192.359375 256.394531 191.132812 256.78125 190.085938 C 257.914062 188.960938 257.886719 187.367188 258.433594 186.035156 C 258.972656 184.339844 259.46875 182.511719 259.527344 180.746094 C 259.625 180.027344 260.433594 179.464844 260.609375 178.636719 C 260.742188 177.675781 260.699219 176.632812 261.425781 175.8125 C 261.703125 175.117188 261.097656 174.179688 261.625 173.457031 Z M 140.277344 125.613281 C 139.0625 127.339844 137.851562 129.070312 136.6875 130.867188 C 136 131.871094 135.585938 133.097656 135.378906 134.167969 C 134.792969 136.226562 133.585938 137.894531 132.378906 139.5625 C 130.617188 141.277344 132.300781 143.707031 131.0625 145.617188 C 129.921875 147.234375 131.125 149.167969 130.234375 150.757812 C 129.914062 152.667969 129.339844 154.609375 128.667969 156.410156 C 128.558594 156.761719 128.441406 157.171875 128.511719 157.550781 C 129.007812 160.613281 127.03125 163.457031 127.457031 166.570312 C 127.53125 167.375 127.589844 168.300781 127.054688 169.082031 C 126.570312 169.933594 127.175781 170.871094 127.480469 171.769531 C 125.90625 173.449219 127.203125 176.007812 126.144531 177.941406 C 125.816406 178.566406 126.316406 179.371094 125.917969 180.050781 C 125.636719 179.886719 125.546875 179.632812 125.511719 179.441406 C 125.484375 177.421875 124.402344 175.503906 124.246094 173.527344 C 123.882812 166.816406 125.136719 160.328125 125.738281 153.6875 C 125.8125 152.71875 126.550781 151.78125 126.621094 150.8125 C 126.742188 149.058594 127.640625 147.410156 127.523438 145.558594 C 127.515625 145.191406 127.675781 144.90625 127.898438 144.632812 C 128.695312 143.703125 128.972656 142.582031 128.886719 141.40625 C 128.570312 139.714844 130.425781 139.113281 130.578125 137.546875 C 131.199219 135.675781 131.101562 133.277344 132.761719 131.855469 C 134.460938 130.621094 134.761719 128.402344 136.238281 127.015625 C 137.25 126.296875 137.875 124.855469 139.046875 124.34375 C 141.320312 123.800781 141.3125 120.742188 143.90625 120.550781 C 142.640625 122.207031 141.382812 123.808594 140.234375 125.484375 Z M 148.933594 116.410156 C 149.117188 115.945312 149.441406 115.808594 150.019531 116.070312 C 149.660156 116.449219 149.40625 116.535156 148.933594 116.410156 Z M 198.183594 190.496094 C 197.519531 191.320312 197.515625 192.238281 197.386719 193.199219 C 197.15625 194.875 196.289062 196.285156 195.375 197.628906 C 193.515625 200.488281 191.308594 205.441406 187.132812 204.257812 C 186.8125 203.910156 186.863281 203.550781 186.964844 203.257812 C 187.15625 202.734375 187.230469 202.195312 187.539062 201.75 C 189.269531 198.929688 190.414062 195.910156 191.742188 192.914062 C 192.542969 191.066406 192.035156 188.980469 192.476562 187.085938 C 192.636719 186.375 192.578125 186.367188 192.203125 185.519531 C 190.261719 185.867188 187.890625 184.441406 189.09375 182.347656 C 189.121094 182.164062 189.265625 182.003906 189.289062 181.824219 C 189.492188 178.550781 191.734375 176.902344 194.253906 175.476562 C 197.871094 174.929688 198.253906 181.949219 198.21875 184.449219 C 198.132812 186.394531 198.625 188.601562 198.125 190.488281 Z M 198.183594 190.496094 " fill-opacity="1" fill-rule="nonzero"/></g></g></g><g clip-path="url(#48843b99ea)"><g clip-path="url(#e1b9e17749)"><g clip-path="url(#68a8f7ef55)"><path fill="#febf00" d="M 191.925781 258.933594 C 191.96875 257.289062 192.320312 255.628906 192.121094 253.949219 C 191.71875 249.742188 192.773438 245.605469 192.5625 241.363281 C 193.058594 238.617188 192.664062 235.691406 193.34375 232.976562 C 193.8125 230.898438 193.789062 228.820312 193.914062 226.574219 C 189.261719 226.183594 185.722656 223.925781 182.960938 220.003906 C 180.773438 222.574219 177.894531 223.527344 174.988281 224.226562 C 174.707031 230.726562 174.109375 236.878906 172.226562 243.039062 C 170.050781 250.011719 170.148438 257.785156 166.234375 264.03125 C 167.363281 264.738281 168.4375 265.371094 169.714844 264.507812 C 171.382812 264.371094 173.199219 264.496094 174.847656 264.96875 C 175.308594 265.152344 175.839844 265.285156 176.234375 265.097656 C 177.027344 264.65625 177.917969 264.839844 178.730469 264.707031 C 179.980469 264.507812 181.242188 264.683594 182.453125 264.296875 C 183.796875 263.871094 185.347656 264.144531 186.660156 263.46875 C 188.332031 263.757812 190.09375 263.390625 191.742188 263.859375 C 192.460938 262.183594 191.550781 260.777344 191.789062 259.039062 Z M 191.925781 258.933594 " fill-opacity="1" fill-rule="nonzero"/></g></g></g><g clip-path="url(#7f6ff2a9ae)"><g clip-path="url(#fa9ef62285)"><g clip-path="url(#8c8dcbcb35)"><path fill="#7460e4" d="M 81.015625 129.105469 C 82.75 129.832031 84.746094 129.984375 86.4375 131.011719 C 88.804688 132.007812 91.53125 132.195312 93.78125 133.605469 C 95 134.078125 98.324219 135.695312 98.878906 133.875 C 99.164062 133.121094 99.570312 132.382812 99.625 131.535156 C 99.714844 130.875 99.804688 130.214844 100.421875 129.75 C 101.734375 127.730469 98.863281 124.15625 97.15625 123.25 C 93.210938 120.816406 89.828125 117.847656 86.546875 114.589844 C 83.941406 112.640625 81.394531 110.703125 78.933594 108.597656 C 77.714844 107.695312 72.957031 103.621094 72.914062 107.039062 C 72.816406 107.757812 73.144531 108.476562 72.910156 109.296875 C 70.597656 108.796875 68.480469 107.285156 66.460938 109.085938 C 66.042969 109.03125 65.722656 108.679688 65.21875 108.796875 C 64.238281 109.699219 64.507812 111.324219 64.101562 112.492188 C 62.398438 118.246094 70.40625 115.554688 70.96875 118.136719 C 70.445312 118.371094 70.050781 118.132812 69.769531 117.972656 C 66.644531 116.691406 63.039062 116.683594 60.207031 118.621094 C 59.527344 119.136719 58.152344 120.230469 58.878906 121.1875 C 60.1875 122.773438 61.78125 124.089844 63.804688 124.488281 C 64.933594 124.707031 66.144531 124.808594 67.179688 125.257812 C 71.703125 127.039062 76.777344 126.570312 81.023438 129.046875 Z M 81.015625 129.105469 " fill-opacity="1" fill-rule="nonzero"/></g></g></g><g clip-path="url(#7509775090)"><g clip-path="url(#80cb838491)"><g clip-path="url(#250a6b304b)"><path fill="#7460e4" d="M 124.324219 76.558594 C 124.617188 76.660156 125.164062 76.671875 125.183594 76.980469 C 125.214844 78.085938 126.324219 78.480469 126.558594 79.429688 C 127.34375 81.738281 130.957031 79.910156 131.867188 82.175781 C 132.402344 83.164062 134.5625 86.578125 135.683594 86.425781 C 136.429688 86.34375 137.089844 86.433594 137.785156 86.710938 C 139.175781 87.269531 139.140625 85.738281 140.019531 85.125 C 140.761719 84.613281 140.007812 81.640625 139.550781 80.964844 C 139.679688 78.660156 138.351562 76.769531 138.039062 74.585938 C 137.78125 72.902344 137.472656 71.148438 136.785156 69.464844 C 135.464844 66.167969 135.042969 62.566406 133.847656 59.226562 C 132.183594 55.757812 132.121094 49.089844 127.042969 49.128906 C 125.804688 49.261719 125.085938 48.246094 124.125 47.6875 C 121.089844 45.746094 121.082031 51.609375 119.394531 52.785156 C 118.027344 50.703125 114.160156 49.5 113.148438 52.417969 C 112.71875 54.679688 110.644531 57.757812 113.222656 59.457031 C 115.105469 60.445312 113.714844 61.234375 114.601562 62.332031 C 115.472656 63.125 115.796875 64.332031 116.664062 65.121094 C 117.09375 65.546875 117.277344 66 117.375 66.625 C 117.503906 68.351562 118.640625 69.425781 119.90625 70.453125 C 121.144531 72.578125 121.964844 75.503906 124.316406 76.617188 Z M 124.324219 76.558594 " fill-opacity="1" fill-rule="nonzero"/></g></g></g><g clip-path="url(#75d42a9cba)"><g clip-path="url(#ffa88e4b41)"><g clip-path="url(#777874cd1b)"><path fill="#7460e4" d="M 203.511719 36.929688 C 203.554688 37.054688 203.589844 37.246094 203.453125 37.347656 C 202.808594 38.480469 203.386719 39.601562 203.414062 40.765625 C 203.398438 41.3125 203.640625 41.773438 203.6875 42.328125 C 204.203125 48.816406 205.40625 55.214844 206.117188 61.605469 C 205.847656 63.585938 207.320312 64.886719 207.5 66.683594 C 207.34375 67.824219 207.8125 68.867188 208.160156 69.890625 C 208.539062 71.164062 211.011719 72.726562 211.914062 71.503906 C 212.050781 70.484375 212.929688 69.871094 213.292969 69.003906 C 216.640625 61.089844 219.398438 52.976562 222.222656 44.867188 C 223.148438 42.125 223.722656 39.269531 224.226562 36.464844 C 224.316406 35.804688 224.347656 35.136719 224.003906 34.539062 C 223.609375 34.304688 223.191406 34.675781 222.757812 34.25 C 222.890625 31.945312 220.308594 31.164062 219.597656 29.230469 C 216.769531 30.25 215.273438 29.128906 213.003906 31.875 C 211.824219 31.101562 210.910156 30.179688 209.53125 29.992188 C 208.835938 31.058594 207.398438 31.289062 206.738281 32.542969 C 205.449219 31.695312 203.664062 30.898438 203.675781 33.039062 C 203.625 34.316406 203.023438 35.578125 203.519531 36.867188 Z M 203.511719 36.929688 " fill-opacity="1" fill-rule="nonzero"/></g></g></g><g clip-path="url(#0c7ee85e21)"><g clip-path="url(#836b06f98e)"><g clip-path="url(#1b6b8cdf83)"><path fill="#7460e4" d="M 325.542969 161.863281 C 324.953125 160.804688 325.195312 159.492188 324.605469 158.433594 C 324.503906 158.296875 324.671875 157.953125 324.816406 157.792969 C 325.789062 155.601562 324.113281 154.457031 322.777344 153.050781 C 323.277344 152.507812 324.007812 152.546875 324.382812 152.046875 C 326.003906 150.011719 324.445312 146.679688 321.691406 147.15625 C 320.570312 147.308594 319.441406 147.523438 318.273438 147.117188 C 317.921875 147.007812 317.375 146.996094 317.167969 147.148438 C 315.070312 148.207031 312.742188 148.683594 310.570312 149.363281 C 309.179688 149.722656 307.882812 150.707031 306.324219 150.492188 C 304.667969 151.425781 302.792969 151.71875 300.964844 152.140625 C 298.621094 152.738281 296.226562 153.265625 293.972656 154.117188 C 292.304688 154.683594 292.296875 154.742188 292.238281 156.507812 C 289.402344 157.585938 292.695312 165.675781 295.621094 165.28125 C 297.019531 165.777344 298.355469 166.265625 299.8125 165.914062 C 300.128906 165.835938 300.519531 165.644531 300.796875 165.867188 C 301.636719 166.410156 302.355469 166.082031 303.105469 165.511719 C 304.914062 167.46875 307.386719 165.488281 309.492188 166.628906 C 309.671875 166.65625 309.910156 166.6875 310.039062 166.644531 C 311.601562 165.941406 313.074219 167.242188 314.699219 166.976562 C 317.609375 166.703125 320.4375 167.457031 323.304688 167.484375 C 323.847656 167.558594 324.289062 167.433594 324.597656 166.988281 C 325.886719 165.148438 326.644531 164.089844 325.464844 161.972656 Z M 325.542969 161.863281 " fill-opacity="1" fill-rule="nonzero"/></g></g></g><g clip-path="url(#bf68705864)"><g clip-path="url(#db15317ca1)"><g clip-path="url(#da8a8b1f0e)"><path fill="#7460e4" d="M 303.953125 235.167969 C 303.300781 234.589844 302.1875 234.683594 301.804688 233.894531 C 301.984375 233.492188 302.523438 233.566406 302.835938 233.058594 C 301.933594 232.082031 301.078125 231.167969 299.707031 230.921875 C 294.027344 230.019531 289.800781 226.082031 284.835938 223.507812 C 283.984375 223.023438 283.210938 222.429688 282.25 222.296875 C 281.890625 222.246094 281.617188 222.027344 281.410156 221.753906 C 280.65625 220.550781 279.507812 220.453125 278.242188 220.769531 C 276.140625 221.398438 272 223.09375 273.699219 225.832031 C 274.519531 226.980469 274.683594 228.472656 275.777344 229.414062 C 276.785156 230.53125 278.125 231.449219 278.714844 232.933594 C 279.363281 233.574219 280.296875 233.882812 280.457031 234.945312 C 280.535156 235.261719 280.804688 235.542969 281.078125 235.761719 C 282.316406 236.542969 282.753906 237.824219 283.460938 238.898438 C 285.144531 241.332031 287.296875 243.457031 288.648438 246.089844 C 288.777344 246.472656 288.976562 246.804688 289.3125 247.035156 C 291.359375 248.597656 292.800781 253.683594 296.007812 251.679688 C 297.976562 249.808594 301.234375 251.90625 301.789062 250.085938 C 302.191406 248.921875 302.828125 247.847656 303.746094 246.933594 C 304.667969 246.019531 304.746094 244.566406 305.671875 243.59375 C 305.867188 243.070312 305.542969 242.292969 305.796875 241.777344 C 307.113281 241.101562 307.394531 240.832031 307.03125 239.929688 C 306.351562 238.183594 305.546875 236.484375 303.929688 235.347656 Z M 303.953125 235.167969 " fill-opacity="1" fill-rule="nonzero"/></g></g></g><g clip-path="url(#09c10ad9f7)"><g clip-path="url(#33ad67baac)"><g clip-path="url(#99c5db4c1f)"><path fill="#7460e4" d="M 307.589844 82.347656 C 307.34375 81.03125 306.367188 80.101562 305.363281 79.414062 C 303.136719 77.828125 303.058594 74.820312 300.773438 73.226562 C 299.351562 71.992188 298.136719 71.949219 296.636719 73.085938 C 296.160156 73.449219 295.535156 73.976562 294.996094 73.902344 C 294.21875 73.792969 293.730469 74.214844 293.152344 74.441406 C 292.582031 73.691406 292.917969 72.578125 291.902344 71.949219 C 288.898438 76.488281 286.246094 81.136719 283.078125 85.527344 C 281.574219 87.582031 280.292969 89.792969 278.617188 91.761719 C 277.519531 93.078125 276.320312 94.257812 275.542969 95.925781 C 273.800781 99.71875 273.933594 100.53125 277.175781 103.175781 C 277.769531 103.746094 278.570312 104.160156 279.371094 103.660156 C 281.070312 102.851562 282.363281 101.441406 284.203125 100.960938 C 285.339844 100.6875 286.535156 100.425781 287.25 99.238281 C 287.488281 98.84375 287.976562 98.847656 288.410156 98.785156 C 289.335938 98.730469 290.054688 98.398438 290.597656 97.558594 C 290.910156 97.050781 291.328125 96.679688 292.011719 96.589844 C 292.320312 96.570312 292.53125 96.355469 292.738281 96.199219 C 294.023438 95.277344 294.898438 93.808594 296.503906 93.234375 C 296.699219 93.136719 296.855469 92.914062 297 92.75 C 299.332031 90.441406 302.398438 89.03125 304.875 86.988281 C 306.136719 85.816406 308.285156 85.742188 308.453125 83.625 C 308.089844 83.148438 307.574219 82.894531 307.46875 82.332031 Z M 307.589844 82.347656 " fill-opacity="1" fill-rule="nonzero"/></g></g></g><g clip-path="url(#84a2bfdb1b)"><g clip-path="url(#5c89a0b55d)"><g clip-path="url(#5ed78ed622)"><path fill="#7460e4" d="M 101.164062 197.496094 C 100.222656 197.671875 99.324219 197.976562 98.464844 197.125 C 97.335938 195.996094 95.800781 195.601562 94.410156 195.042969 C 94.066406 194.875 93.640625 194.878906 93.261719 194.949219 C 88.628906 196.207031 84.050781 197.964844 79.328125 198.539062 C 78.464844 198.605469 77.519531 198.351562 76.769531 198.921875 C 75.960938 199.484375 75.136719 199.675781 74.171875 199.605469 C 73.195312 199.59375 72.429688 200.28125 71.433594 200.390625 C 67.859375 200.632812 68.246094 209.855469 70.996094 208.949219 C 72.039062 208.480469 72.726562 207.472656 74.089844 207.78125 C 74.007812 208.382812 73.667969 208.640625 73.34375 208.78125 C 72.050781 209.273438 71.8125 210.585938 71.183594 211.601562 C 69.539062 216.019531 73.246094 215.734375 76.371094 216.101562 C 77.632812 216.273438 78.898438 216.386719 79.851562 215.230469 C 79.996094 215.070312 80.304688 215.050781 80.507812 214.894531 C 82.898438 213.511719 85.773438 213.046875 88.425781 212.433594 C 92.136719 212.085938 94.722656 209.265625 98.210938 208.335938 C 98.527344 208.257812 98.863281 208.058594 99.082031 207.78125 C 100.289062 206.113281 103.214844 207.066406 103.730469 204.628906 C 103.761719 204.390625 103.96875 204.234375 104.234375 204.089844 C 104.695312 203.847656 104.820312 203.375 104.945312 202.902344 C 105.632812 200.554688 104.046875 196.972656 101.222656 197.503906 Z M 101.164062 197.496094 " fill-opacity="1" fill-rule="nonzero"/></g></g></g><g clip-path="url(#b3eab3ff90)"><g clip-path="url(#2b2f316447)"><g clip-path="url(#6b1d1ec337)"><path fill="#febf00" d="M 168.222656 216.945312 C 168.351562 215.558594 169.101562 214.5625 169.667969 213.539062 C 168.90625 210.625 168.4375 207.808594 167.785156 204.96875 C 166.722656 202.015625 165.609375 198.988281 164.675781 195.988281 C 163.183594 192.179688 162.320312 188.210938 160.636719 184.4375 C 160.238281 183.34375 159.234375 183.082031 158.382812 182.601562 C 157.929688 182.355469 157.074219 182.789062 157 183.328125 C 156.402344 185.019531 155.324219 186.644531 155.199219 188.457031 C 154.839844 192.871094 155.265625 197.328125 156.585938 201.542969 C 157.1875 203.398438 158.292969 205.136719 158.816406 207.101562 C 159.546875 210.257812 162.875 210.042969 165.335938 210.808594 C 165.636719 210.847656 165.9375 210.890625 166.058594 211.332031 C 164.28125 211.824219 162.453125 211.328125 160.382812 211.289062 C 162.265625 214.480469 164.691406 216.402344 168.230469 216.886719 Z M 168.222656 216.945312 " fill-opacity="1" fill-rule="nonzero"/></g></g></g><g clip-path="url(#58e0f47000)"><g clip-path="url(#856eca10c0)"><g clip-path="url(#77e4cb651c)"><path fill="#000001" d="M 272.917969 165.960938 C 273.972656 159.140625 272.875 152.449219 272.644531 145.636719 C 272.710938 145.15625 272.535156 144.644531 272.21875 144.292969 C 271.46875 143.519531 271.351562 142.585938 271.304688 141.601562 C 270.886719 138.855469 270.015625 136.292969 269.152344 133.667969 C 268.460938 131.128906 266.90625 129.082031 265.695312 126.777344 C 265.105469 125.292969 264.386719 123.851562 263.257812 122.71875 C 261.003906 120.882812 260.445312 117.8125 258.039062 116.199219 C 256.707031 115.222656 256.847656 113.285156 255.175781 112.566406 C 254.496094 112.167969 253.628906 111.804688 253.308594 111.027344 C 252.320312 108.875 250.402344 107.695312 248.546875 106.527344 C 247.085938 105.59375 245.804688 104.257812 243.945312 104 C 243.824219 103.984375 243.652344 103.898438 243.609375 103.773438 C 242.976562 102.585938 242.097656 101.855469 240.71875 101.664062 C 240.203125 101.410156 239.867188 100.753906 239.25 100.792969 C 238.703125 100.777344 238.308594 100.539062 238.054688 100.140625 C 237.746094 99.730469 237.34375 99.554688 236.871094 99.425781 C 235.042969 98.933594 233.472656 97.921875 231.730469 97.257812 C 230.339844 96.699219 228.972656 95.960938 227.597656 95.285156 C 226.859375 94.878906 225.980469 95.0625 225.25 94.597656 C 224.519531 94.128906 223.6875 93.957031 222.789062 93.832031 C 220.207031 93.480469 217.863281 92.300781 215.269531 92.070312 C 213.527344 91.832031 211.757812 91.832031 209.972656 91.464844 C 208.835938 91.308594 207.539062 90.949219 206.335938 91.699219 C 206.132812 91.855469 205.753906 91.925781 205.53125 91.773438 C 204.480469 90.957031 203.300781 91.101562 202.078125 91.117188 C 192.453125 90.898438 182.75 92.136719 173.683594 95.417969 C 170.613281 95.976562 167.847656 97.429688 164.988281 98.6875 C 162.9375 99.382812 161.074219 100.472656 159.320312 101.699219 C 155.933594 102.765625 153.113281 105.066406 150.007812 106.78125 C 149.539062 107.082031 149.007812 107.375 148.695312 107.882812 C 147.214844 109.757812 144.78125 110.585938 143.128906 112.375 C 139.699219 115.574219 137.152344 119.441406 134.21875 123.011719 C 132.382812 125.265625 130.828125 127.679688 129.558594 130.257812 C 128.570312 132.566406 127.359375 134.722656 126.484375 137.105469 C 126.28125 137.691406 126.492188 138.390625 125.996094 138.871094 C 125.195312 139.800781 125.429688 141.238281 124.742188 142.246094 C 123.917969 143.355469 124.214844 144.738281 123.8125 145.90625 C 123.621094 147.285156 123.230469 148.820312 123.03125 150.261719 C 123.0625 152.710938 121.765625 155.039062 122.664062 157.421875 C 122.699219 157.609375 122.734375 157.796875 122.648438 157.96875 C 121.960938 160.320312 121.972656 162.886719 122.320312 165.257812 C 122.609375 166.273438 122.546875 167.183594 122.296875 168.125 C 122.152344 168.71875 122.15625 169.144531 122.527344 169.5625 C 123.121094 170.132812 123.152344 170.808594 122.699219 171.417969 C 121.484375 173.148438 121.824219 175.148438 121.9375 177 C 122.195312 180.027344 122.578125 183.011719 123.152344 185.964844 C 124.34375 193.765625 126.804688 201.253906 128.816406 208.859375 C 129.480469 211.152344 130.007812 213.546875 131.125 215.65625 C 131.417969 216.183594 131.59375 216.695312 132.238281 216.90625 C 132.507812 216.269531 132.410156 215.648438 132.183594 215.066406 C 131.117188 211.679688 130.4375 208.167969 129.5625 204.746094 C 129.476562 204.492188 129.398438 204.175781 129.960938 204.066406 C 130.480469 205.179688 131.386719 206.15625 131.378906 207.5625 C 131.367188 208.539062 131.65625 209.554688 132.277344 210.375 C 132.863281 211.003906 132.457031 212.171875 133.171875 212.757812 C 134.34375 214.015625 134.132812 216.003906 135.304688 217.265625 C 135.363281 218.617188 135.054688 219.980469 136.320312 221.011719 C 136.542969 221.589844 136.335938 222.234375 136.9375 222.746094 C 137.582031 223.382812 136.910156 224.269531 137.367188 224.941406 C 138.640625 227.253906 139.09375 229.761719 139.601562 232.277344 C 140.464844 234.472656 140.785156 237.019531 142.039062 239.027344 C 142.902344 239.878906 142.710938 241.257812 143.582031 242.046875 C 143.632812 242.117188 143.667969 242.304688 143.644531 242.484375 C 143.984375 245.34375 145.894531 247.925781 145.226562 251.011719 C 144.914062 251.945312 146.417969 252.578125 145.445312 253.425781 C 144.863281 253.222656 144.628906 252.703125 144.179688 252.394531 C 142.195312 250.839844 141.269531 254.015625 140.480469 255.3125 C 138.582031 259.816406 144.132812 261.675781 146.800781 264.058594 C 147.296875 264.433594 148.164062 264.367188 148.730469 264.691406 C 154.082031 267.992188 160.3125 268.90625 166.265625 270.515625 C 169.867188 271.433594 173.835938 271 177.445312 271.863281 C 185.125 273.339844 192.9375 273.863281 200.738281 274.011719 C 203.53125 274.152344 206.34375 273.679688 209.101562 273.628906 C 212.703125 273.207031 216.722656 273.757812 219.871094 271.746094 C 220.679688 271.183594 220.804688 270.285156 221.324219 269.621094 C 222.777344 267.925781 220.855469 265.890625 221.230469 264.046875 C 221.703125 262.828125 221.78125 261.375 222.949219 260.433594 C 223.644531 259.796875 223.296875 258.769531 223.351562 257.921875 C 223.375 255.542969 224.90625 256.851562 225.382812 255.144531 C 225.996094 253.335938 227.195312 251.726562 227.921875 249.992188 C 229.105469 247.160156 231.78125 245.449219 232.785156 242.59375 C 233.703125 241.679688 234.691406 240.714844 235.105469 239.488281 C 235.753906 237.867188 237.875 237.546875 238.25 235.703125 C 238.644531 235.511719 239.292969 235.234375 239.476562 234.769531 C 240.183594 233.644531 241.050781 232.664062 242.039062 231.699219 C 243.238281 230.519531 244.007812 228.914062 245.320312 227.808594 C 245.667969 227.492188 245.707031 226.765625 246.117188 226.453125 C 248.015625 224.636719 248.453125 221.882812 250.578125 220.21875 C 251.691406 219.210938 252.851562 218.332031 253.203125 216.667969 C 253.449219 214.867188 255.671875 214.257812 256.15625 212.488281 C 256.804688 210.441406 257.941406 208.824219 259.59375 207.460938 C 260.074219 207.097656 260.265625 206.574219 260.410156 205.984375 C 260.507812 205.265625 260.785156 204.570312 261.226562 204.019531 C 262.570312 202.246094 263.398438 200.222656 263.933594 198.09375 C 263.984375 197.734375 264.03125 197.375 264.304688 197.167969 C 265.730469 196.140625 266.328125 194.449219 266.898438 192.941406 C 270.222656 184.289062 272.449219 175.183594 272.984375 165.910156 Z M 129.160156 201.878906 C 128.753906 201.273438 128.683594 200.898438 129.117188 200.410156 C 129.550781 200.832031 129.550781 201.261719 129.160156 201.878906 Z M 196.425781 266.699219 C 194.9375 265.945312 193.289062 266.394531 191.746094 266.058594 C 189.421875 265.621094 187.019531 265.777344 184.726562 265.097656 C 184.429688 265.058594 184.007812 265 183.75 265.085938 C 182.386719 265.695312 181.144531 264.058594 179.84375 264.613281 C 178.855469 265.148438 177.980469 264.847656 177.050781 264.476562 C 176.066406 264.09375 175.183594 263.851562 174.113281 264.074219 C 173.050781 264.234375 172.132812 263.375 170.992188 263.21875 C 171.730469 260.507812 172.484375 258.105469 173.628906 255.574219 C 174.484375 254.222656 173.804688 252.480469 174.0625 251.050781 C 175.699219 248.035156 174.53125 244.515625 175.558594 241.476562 C 175.703125 241.3125 175.804688 241.023438 175.777344 240.773438 C 175.554688 239.277344 176.058594 237.820312 175.835938 236.320312 C 175.757812 236.003906 175.6875 235.628906 175.789062 235.335938 C 176.316406 233.699219 176.257812 231.917969 176.367188 230.222656 C 176.464844 229.503906 176.382812 228.757812 176.414062 228.089844 C 177.488281 225.609375 175.492188 219.652344 179.1875 219.425781 C 181.089844 219.378906 182.496094 218.472656 183.757812 217.300781 C 184.320312 216.769531 185.097656 216.875 185.832031 216.425781 C 188.117188 222.054688 192.59375 224.621094 198.191406 225.695312 C 197.921875 226.757812 197.609375 227.691406 197.90625 228.648438 C 197.988281 228.964844 197.832031 229.191406 197.613281 229.464844 C 196.980469 230.96875 195.578125 232.730469 196.136719 234.457031 C 196.230469 234.652344 196.257812 234.902344 196.179688 235.011719 C 195.273438 236.292969 195.667969 237.875 195.230469 239.28125 C 195.1875 239.582031 195.085938 239.875 195.113281 240.121094 C 195.550781 241.40625 194.144531 242.3125 194.398438 243.570312 C 194.582031 244.449219 193.542969 245.347656 194.035156 246.207031 C 194.484375 246.941406 194.34375 247.535156 193.945312 248.210938 C 193.707031 248.605469 193.589844 249.019531 193.652344 249.457031 C 193.746094 253.683594 193.050781 257.867188 192.714844 262.097656 C 192.328125 264.917969 194.710938 265.367188 196.925781 266.15625 C 196.859375 266.636719 196.648438 266.851562 196.363281 266.691406 Z M 195.484375 182.976562 C 195.6875 183.738281 195.753906 184.601562 194.992188 185.230469 C 194.722656 185.4375 194.492188 185.773438 194.570312 186.089844 C 194.523438 188.222656 194.105469 190.363281 193.117188 192.246094 C 192.128906 194.554688 191.960938 197.097656 190.0625 198.917969 C 189.269531 194.46875 190.375 187.714844 192.398438 183.652344 C 193.125 181.921875 193.175781 180.644531 195.554688 180.234375 C 195.117188 181.214844 195.25 182.027344 195.503906 182.855469 Z M 265.132812 168.378906 C 264.417969 169.136719 265.183594 170.21875 264.53125 170.984375 C 264.386719 171.148438 264.292969 171.378906 264.335938 171.507812 C 264.53125 172.757812 264.007812 173.90625 263.902344 175.113281 C 263.511719 178.421875 261.6875 181.472656 261.363281 184.726562 C 261.417969 185.222656 261.25 185.566406 260.960938 185.894531 C 260.328125 186.480469 260.042969 187.234375 259.757812 187.988281 C 259.308594 189.027344 259.324219 190.253906 258.585938 191.191406 C 258.363281 191.464844 258.425781 191.902344 258.429688 192.328125 C 258.476562 192.886719 258.167969 193.332031 257.921875 193.789062 C 256.328125 196.074219 255.691406 198.921875 253.640625 200.960938 C 253.277344 201.402344 252.976562 201.789062 252.964844 202.335938 C 252.792969 203.597656 251.125 204.164062 251.417969 205.609375 C 251.503906 205.863281 251.351562 206.085938 251.085938 206.234375 C 249.550781 207.183594 248.738281 208.664062 247.691406 210.046875 C 246.425781 211.707031 245.046875 213.289062 243.996094 215.164062 C 243.425781 215.757812 243.476562 216.742188 242.734375 217.25 C 241.292969 218.398438 240.1875 219.773438 239.289062 221.425781 C 236.492188 224.460938 234.054688 227.976562 231.203125 230.949219 C 228.535156 233.457031 226.851562 236.832031 224.351562 239.480469 C 223.925781 239.914062 223.78125 240.503906 223.539062 240.960938 C 221.320312 244.199219 219.5 247.679688 217.628906 251.089844 C 217.457031 251.433594 217.167969 251.757812 217.242188 252.136719 C 217.519531 253.210938 216.875 253.917969 216.234375 254.5625 C 215.308594 255.539062 214.792969 256.628906 214.542969 258 C 213.828125 260.527344 211.394531 262.699219 212.214844 265.625 C 211.558594 265.960938 210.925781 266.121094 210.160156 265.894531 C 208.808594 265.523438 207.351562 265.875 205.984375 266.054688 C 203.992188 266.332031 202.003906 266.121094 199.921875 266.140625 C 200.941406 263.164062 200.503906 260.109375 200.789062 257.152344 C 201.6875 254.589844 201.140625 251.886719 201.5625 249.253906 C 202.039062 244.433594 202.339844 239.585938 203.953125 234.917969 C 204.417969 233.757812 204.589844 232.5 204.464844 231.199219 C 204.410156 230.703125 204.535156 230.230469 204.832031 229.84375 C 206.371094 227.976562 205.214844 224.824219 208.136719 224 C 209.617188 223.472656 210.84375 222.539062 211.8125 221.265625 C 212.484375 220.378906 213.226562 219.871094 214.382812 219.90625 C 214.921875 219.980469 215.382812 219.738281 215.621094 219.34375 C 216.105469 218.492188 216.964844 218 217.613281 217.292969 C 218.652344 216.398438 219.105469 214.871094 220.472656 214.261719 C 221.394531 213.777344 222.03125 213.132812 222.230469 212.121094 C 222.28125 211.761719 222.570312 211.433594 222.902344 211.234375 C 225.753906 209.609375 226.058594 206.472656 227.734375 204.074219 C 228.628906 203.34375 229.074219 202.304688 229.402344 201.25 C 230.855469 199.125 231.679688 196.671875 232.667969 194.363281 C 233.824219 188.59375 235.753906 180.304688 228.207031 178.292969 C 226.078125 178.246094 223.75 178.71875 221.96875 180.125 C 220.9375 180.960938 219.347656 181.417969 218.480469 182.398438 C 217.832031 184.449219 215.605469 185.976562 214.753906 187.753906 C 214.8125 189.105469 213.804688 189.761719 213.023438 190.574219 C 210.515625 193.710938 209.363281 197.648438 207.140625 200.949219 C 207.054688 201.121094 206.851562 201.277344 206.886719 201.464844 C 206.785156 203.527344 205.246094 204.96875 204.5625 206.828125 C 203.796875 208.863281 203.207031 210.921875 202.621094 212.980469 C 202.03125 214.609375 200.710938 216.203125 200.886719 218.058594 C 197.277344 218.96875 194.355469 215.332031 192.523438 212.636719 C 191.808594 211.621094 191.484375 210.414062 192.488281 209.332031 C 193.015625 208.609375 192.898438 207.675781 193.707031 207.113281 C 195.902344 204.910156 196.828125 201.738281 198.644531 199.175781 C 201.664062 192.746094 205.824219 172.171875 193.804688 173.398438 C 190.894531 173.671875 188.582031 175.371094 187.03125 177.785156 C 186.300781 178.664062 185.679688 179.617188 185.457031 180.808594 C 183.851562 183.582031 183.289062 186.804688 182.613281 189.953125 C 181.96875 192.429688 181.546875 195.0625 182.300781 197.609375 C 182.378906 197.925781 182.5 198.371094 182.347656 198.59375 C 181.703125 199.726562 182.042969 200.8125 182.4375 201.964844 C 182.472656 202.152344 182.566406 202.351562 182.542969 202.53125 C 182.234375 204.320312 182.914062 206.066406 183.019531 207.972656 C 181.535156 209.421875 179.773438 210.707031 177.714844 211.464844 C 177.324219 211.164062 177.308594 210.859375 177.296875 210.488281 C 177.652344 201.1875 175.160156 191.742188 170.976562 183.46875 C 168.492188 179.28125 165.515625 175.144531 161.363281 172.4375 C 156.066406 169.632812 150.269531 174.460938 149.195312 179.632812 C 148.21875 180.964844 148.1875 182.546875 148.210938 184.140625 C 148.484375 185.277344 147.632812 186.140625 147.605469 187.234375 C 148.082031 189.5625 146.949219 192.035156 147.921875 194.304688 C 148.441406 196.761719 149.488281 198.921875 150 201.433594 C 150.074219 202.238281 150.820312 203.015625 151.332031 203.757812 C 153.808594 208.433594 156.117188 212.539062 161.15625 215 C 163.300781 216.761719 165.71875 217.824219 168.199219 218.898438 C 169.410156 219.429688 169.550781 219.753906 169.378906 221.015625 C 169.171875 222.515625 168.847656 224 169.054688 225.613281 C 169.046875 227.449219 168.707031 229.480469 168.453125 231.339844 C 168.320312 232.296875 167.949219 233.226562 168.496094 234.15625 C 168.484375 234.214844 168.53125 234.34375 168.453125 234.453125 C 167.648438 235.871094 168.042969 237.453125 167.835938 238.953125 C 167.636719 239.964844 167.609375 241.0625 167.53125 242.089844 C 167.40625 242.988281 167.582031 243.929688 167.101562 244.78125 C 166.941406 245.0625 167.027344 245.320312 167.046875 245.628906 C 167.195312 246.320312 166.984375 246.964844 167.015625 247.640625 C 167.164062 249.675781 166.351562 251.582031 166.019531 253.554688 C 165.488281 256.109375 165.296875 258.832031 164.285156 261.320312 C 163.890625 262.429688 163.761719 262.472656 162.59375 262.066406 C 159.09375 260.855469 155.667969 259.53125 152.1875 258.199219 C 151.484375 257.980469 151.324219 257.347656 152.042969 257.015625 C 152.800781 256.386719 153.027344 255.625 152.910156 254.691406 C 152.34375 251.679688 154.445312 251.96875 153.871094 250.363281 C 153.351562 249.253906 153.273438 248.019531 153.191406 246.847656 C 153.199219 243.671875 151.042969 241.113281 150.484375 238.042969 C 150.03125 236.453125 149.3125 235.011719 148.601562 233.507812 C 147.855469 230.472656 146.726562 227.566406 146.039062 224.542969 C 145.871094 223.539062 145.003906 222.75 144.699219 221.851562 C 144.011719 218.824219 142.761719 215.902344 141.691406 213.007812 C 141.617188 210.429688 140.253906 208.347656 139.203125 206.1875 C 138.867188 205.53125 138.527344 204.875 138.4375 204.191406 C 138.308594 202.460938 137.042969 201.003906 137.101562 199.242188 C 137.132812 199 136.933594 198.667969 136.847656 198.410156 C 134.773438 194.828125 135.304688 190.5 133.484375 186.828125 C 133.042969 186.035156 132.847656 185.214844 132.914062 184.304688 C 133.132812 182.6875 132.289062 181.289062 131.875 179.824219 C 130.851562 175.714844 130.988281 171.578125 130.210938 167.4375 C 131.3125 163.859375 129.339844 159.984375 130.722656 156.570312 C 130.953125 156.234375 131.128906 155.832031 130.992188 155.507812 C 130.539062 154.34375 131.046875 153.3125 131.195312 152.234375 C 131.445312 149.945312 131.699219 147.660156 132.835938 145.613281 C 132.847656 143.292969 133.878906 141.113281 134.722656 138.96875 C 135.59375 137.070312 136.925781 135.359375 137.222656 133.199219 C 137.289062 132.71875 137.585938 132.332031 137.996094 132.023438 C 139.351562 131.046875 140.089844 129.679688 140.429688 128.078125 C 141.925781 127.425781 141.460938 125.898438 141.984375 124.746094 C 142.679688 124.597656 143.328125 124.320312 143.503906 123.488281 C 143.511719 123.429688 143.535156 123.25 143.65625 123.265625 C 145.425781 122.835938 145.867188 120.941406 147.285156 119.972656 C 148.632812 119.058594 149.667969 117.734375 150.921875 116.621094 C 151.058594 116.519531 151.132812 116.40625 151.148438 116.285156 C 151.3125 114.660156 152.769531 114.734375 153.808594 114.265625 C 155.367188 114.050781 155.878906 112.105469 157.632812 112.222656 C 157.695312 112.234375 157.820312 112.1875 157.890625 112.136719 C 158.988281 110.820312 160.800781 110.519531 161.992188 109.398438 C 163.742188 106.890625 167.140625 108.394531 169.042969 105.660156 C 171.910156 105.6875 174.296875 103.445312 177.152344 103.105469 C 177.90625 102.960938 178.453125 102.546875 179.160156 102.277344 C 180.441406 101.84375 181.925781 102.167969 183.121094 101.476562 C 186.5 99.554688 190.503906 100.65625 194 99.238281 C 194.578125 99.011719 195.121094 99.085938 195.695312 99.347656 C 196.148438 99.59375 196.628906 99.660156 197.039062 99.351562 C 197.59375 98.875 198.191406 98.957031 198.835938 99.167969 C 202.296875 99.765625 205.988281 98.253906 209.40625 99.636719 C 209.644531 99.671875 209.9375 99.773438 210.125 99.734375 C 211.609375 99.144531 212.976562 99.882812 214.339844 100.191406 C 216.246094 101.003906 218.28125 100.855469 220.21875 101.425781 C 221.328125 101.820312 222.503906 102.164062 223.703125 102.328125 C 225.621094 103.9375 228.171875 104.042969 230.292969 105.066406 C 233.574219 106.554688 236.75 108.332031 239.65625 110.320312 C 241.421875 110.378906 242.386719 111.792969 243.667969 112.703125 C 247.949219 115.792969 251.730469 119.429688 254.871094 123.707031 C 256.683594 126.09375 257.640625 128.914062 259.539062 131.128906 C 259.804688 131.410156 260.046875 131.871094 260.179688 132.257812 C 261.003906 135.609375 263.570312 138.28125 263.761719 141.792969 C 264.007812 143.109375 264.890625 144.269531 264.699219 145.648438 C 264.527344 146.90625 265.621094 147.851562 265.574219 149.066406 C 264.953125 152.710938 266.535156 156.347656 265.613281 159.949219 C 265.554688 160.371094 265.308594 160.824219 265.441406 161.207031 C 265.847656 162.242188 265.53125 163.238281 265.457031 164.207031 C 265.320312 165.226562 265.1875 166.183594 265.347656 167.246094 C 265.425781 167.5625 265.375 167.921875 265.15625 168.199219 Z M 226.457031 189.296875 C 226.136719 190.289062 225.433594 191.417969 225.335938 192.566406 C 225.261719 193.105469 225.019531 193.558594 224.660156 193.9375 C 224.003906 194.703125 223.460938 195.546875 223.496094 196.652344 C 223.53125 197.265625 223.160156 197.765625 222.742188 198.136719 C 221.566406 199.136719 222.003906 200.847656 220.757812 201.898438 C 217.5625 206.042969 214.882812 210.441406 210.492188 213.507812 C 210.484375 212.222656 210.925781 211.246094 211.425781 210.273438 C 213.25 206.308594 214.605469 202.214844 216.886719 198.496094 C 218.300781 195.757812 219.621094 192.820312 222.097656 190.777344 C 222.304688 190.621094 222.523438 190.347656 222.566406 190.046875 C 222.796875 188.792969 223.691406 188.0625 224.640625 187.398438 C 225.246094 186.992188 225.539062 186.175781 226.394531 185.742188 C 226.519531 187.042969 225.886719 188.117188 226.40625 189.226562 Z M 170.027344 210.472656 C 165.996094 209.554688 163.234375 206.976562 160.597656 203.925781 C 157.945312 201.421875 156.726562 197.832031 155.464844 194.542969 C 155.15625 193.21875 155.292969 191.773438 154.679688 190.464844 C 154.253906 189.550781 154.199219 188.628906 154.457031 187.625 C 155.035156 185.625 155.210938 183.449219 156.152344 181.5 C 157.976562 177.535156 160.789062 173.949219 163.777344 179.367188 C 165.691406 181.890625 166.761719 184.785156 167.882812 187.75 C 168.203125 188.527344 168.652344 189.261719 168.574219 190.289062 C 168.730469 192.265625 169.984375 194.273438 169.816406 196.386719 C 169.886719 199.453125 170.382812 202.515625 170.03125 205.523438 C 169.96875 206.003906 170.066406 206.625 170.308594 207.085938 C 170.878906 208.265625 170.550781 209.320312 169.96875 210.464844 Z M 170.027344 210.472656 " fill-opacity="1" fill-rule="nonzero"/></g></g></g><g clip-path="url(#283370a68c)"><g clip-path="url(#3324bd84ee)"><g clip-path="url(#6822c484b7)"><path fill="#000001" d="M 216.6875 278.03125 C 214.253906 277.515625 211.910156 277.679688 209.578125 278.644531 C 208.925781 278.921875 208.347656 279.148438 207.617188 279.109375 C 205.90625 279.121094 204.261719 279.078125 202.589844 278.789062 C 199.503906 278.121094 196.382812 278.609375 193.261719 278.183594 C 191.394531 277.5625 189.402344 278.265625 187.507812 277.824219 C 184.242188 277.132812 180.960938 276.988281 177.621094 276.835938 C 174.964844 276.59375 172.347656 275.625 169.742188 275.023438 C 167.921875 274.46875 165.988281 274.324219 164.472656 272.894531 C 164.09375 272.539062 163.613281 272.472656 163.140625 272.347656 C 160.398438 271.847656 158.265625 270.03125 155.523438 269.53125 C 154.8125 269.375 154.097656 269.214844 153.496094 268.703125 C 149.832031 266.003906 145.179688 262.492188 140.625 265.414062 C 140.71875 268.300781 143.828125 269.703125 145.21875 272.03125 C 146.351562 273.59375 148.074219 274.378906 149.570312 275.5 C 150.019531 275.804688 150.585938 276.128906 151.203125 276.089844 C 151.945312 276.007812 152.496094 276.449219 153.054688 276.832031 C 155.070312 278.636719 157.683594 278.75 159.8125 280.140625 C 160.640625 280.804688 161.378906 281.210938 162.453125 280.503906 C 163.808594 282.214844 166.117188 282.289062 167.769531 283.613281 C 167.097656 284.070312 166.574219 283.878906 166.042969 283.742188 C 162.714844 283.042969 159.449219 282.351562 156.140625 281.53125 C 150.859375 280.808594 145.628906 277.953125 140.265625 280.089844 C 135.796875 281.496094 143.230469 289.234375 144.890625 290.929688 C 145.484375 291.5 146.324219 291.617188 146.800781 292.167969 C 147.59375 293.070312 148.90625 293.3125 149.699219 294.214844 C 150.273438 294.90625 151.261719 293.941406 151.847656 294.570312 C 153.199219 295.855469 155.035156 296.292969 156.617188 297.242188 C 157.851562 298.023438 159.285156 298.277344 160.53125 299 C 162.101562 299.582031 164.050781 299.175781 165.386719 300.582031 C 165.816406 301.007812 166.355469 301.082031 166.964844 301.101562 C 168.601562 301.203125 170.253906 301.1875 171.636719 302.230469 C 171.972656 302.460938 172.382812 302.578125 172.71875 302.378906 C 173.757812 301.910156 174.648438 302.09375 175.621094 302.59375 C 175.902344 302.753906 176.273438 302.742188 176.589844 302.664062 C 176.90625 302.585938 177.152344 302.558594 177.429688 302.78125 C 178.082031 303.359375 178.9375 303.355469 179.71875 303.460938 C 181.039062 303.640625 182.417969 303.828125 183.738281 304.011719 C 184.039062 304.050781 184.335938 304.09375 184.261719 304.632812 C 183.628906 304.789062 182.867188 304.5625 182.328125 304.917969 C 180.308594 306.289062 180.316406 303.113281 177.867188 304.917969 C 176.992188 304.613281 176.183594 303.832031 175.421875 304.03125 C 174.277344 304.363281 173.136719 304.210938 172.019531 304.359375 C 171.332031 304.449219 170.664062 304.421875 170.113281 303.976562 C 169.625 303.542969 169.074219 303.53125 168.488281 303.816406 C 168.085938 304.066406 167.726562 304.019531 167.246094 303.953125 C 165.308594 303.808594 163.449219 303.125 161.636719 302.511719 C 160.113281 302.058594 158.398438 302.066406 157 301.144531 C 156.886719 301.066406 156.636719 301.09375 156.457031 301.070312 C 154.625 301.0625 153.019531 300.292969 151.40625 299.582031 C 150.601562 299.226562 149.902344 298.519531 148.902344 298.691406 C 148.523438 298.761719 148.207031 298.410156 147.871094 298.183594 C 146.460938 297.316406 144.164062 295.351562 142.585938 296.601562 C 141.839844 297.601562 139.875 298.554688 140.113281 299.929688 C 140.507812 301.511719 141.191406 302.765625 142.671875 303.582031 C 143.640625 304.082031 144.101562 305.183594 145.25 305.707031 C 147.378906 306.671875 149.492188 307.753906 151.640625 308.597656 C 153.613281 309.355469 155.796875 309.472656 157.683594 310.402344 C 158.714844 310.910156 159.789062 311.117188 160.90625 310.96875 C 161.523438 310.929688 162.046875 311.125 162.25 311.882812 C 161.230469 312.171875 160.808594 313.03125 160.394531 313.828125 C 158.351562 317.582031 159.839844 321.453125 163.085938 323.609375 C 165.8125 325.144531 169.042969 325.648438 172.101562 326.066406 C 173.121094 326.207031 174.105469 326.585938 175.132812 326.238281 C 176.855469 325.25 181.207031 325.601562 181.832031 323.730469 C 183.382812 321.316406 186.128906 319.554688 185.007812 316.160156 C 184.71875 315.144531 184.382812 314.914062 183.296875 315.253906 C 181.640625 315.761719 180.382812 317.363281 178.566406 317.234375 C 177.90625 317.144531 177.394531 317.320312 176.742188 317.597656 C 175.316406 318.195312 173.902344 319.164062 172.246094 318.324219 C 172.011719 318.230469 171.644531 318.242188 171.386719 318.328125 C 170.328125 318.488281 168.605469 318.558594 168.164062 317.339844 C 167.363281 315.152344 166.015625 313.378906 164.628906 311.476562 C 167 311.558594 169.25 312.535156 171.746094 312.144531 C 172.242188 312.089844 172.730469 312.097656 173.195312 312.28125 C 174.539062 312.710938 175.910156 312.960938 177.304688 312.601562 C 177.492188 312.566406 177.734375 312.597656 177.84375 312.675781 C 178.628906 313.210938 179.464844 312.898438 180.269531 312.824219 C 180.699219 312.820312 181.148438 312.640625 181.570312 312.695312 C 184.246094 313.246094 186.945312 312.699219 189.644531 313.070312 C 192.332031 312.644531 195.050781 311.976562 197.746094 311.917969 C 200.890625 312.164062 203.914062 310.625 206.992188 310.007812 C 208.597656 309.433594 213.230469 307.746094 211.394531 305.539062 C 210.960938 305.113281 210.457031 304.796875 209.839844 304.835938 C 207.605469 305.078125 205.445312 304.355469 203.035156 304.085938 C 203.640625 303.253906 204.429688 303.300781 205.113281 303.210938 C 208.546875 303.128906 211.484375 301.761719 212.738281 298.386719 C 214.359375 294.578125 204.890625 297.253906 203.167969 296.894531 C 199.390625 296.804688 195.71875 296.851562 191.988281 296.402344 C 190.671875 296.222656 189.398438 295.679688 188.03125 295.859375 C 186.285156 296.109375 184.585938 295.570312 182.933594 295.164062 C 180.292969 294.800781 177.597656 294.859375 174.921875 294.308594 C 172.066406 293.734375 169.40625 292.636719 166.519531 292.304688 C 164.957031 291.660156 163.480469 290.847656 161.976562 290.214844 C 159.730469 289.234375 157.386719 288.484375 155.113281 287.6875 C 154.53125 287.484375 154.152344 287.125 154.054688 286.5 C 154.445312 286.3125 154.796875 286.421875 155.082031 286.582031 C 156.859375 287.4375 158.644531 288.230469 160.507812 288.914062 C 162.984375 289.558594 165.253906 290.847656 167.761719 291.25 C 171.351562 291.375 174.574219 293.710938 178.242188 292.382812 C 179.515625 293.777344 181.246094 292.304688 182.839844 292.707031 C 184.648438 292.890625 186.515625 293.085938 188.195312 291.972656 C 189.214844 293.027344 189.953125 292.089844 190.753906 291.589844 C 191.484375 292.054688 192.1875 292.273438 192.894531 291.578125 C 193.457031 291.042969 194.328125 291.832031 194.820312 291.351562 C 195.671875 290.492188 196.714844 290.449219 197.804688 290.539062 C 200.054688 290.175781 202.386719 289.210938 204.234375 287.753906 C 205.421875 287.121094 206.886719 287.136719 207.726562 285.910156 C 208.015625 285.582031 208.410156 285.390625 208.84375 285.328125 C 210.289062 285.039062 211.449219 284.15625 212.503906 283.140625 C 213.78125 281.847656 215.4375 280.914062 216.871094 279.828125 C 217.800781 279.28125 217.613281 277.972656 216.457031 277.9375 Z M 187.214844 304.488281 C 187.488281 304.28125 187.722656 304.371094 187.996094 304.59375 C 187.792969 305.175781 186.980469 304.882812 187.214844 304.488281 Z M 187.214844 304.488281 " fill-opacity="1" fill-rule="nonzero"/></g></g></g></svg>