<svg xmlns="http://www.w3.org/2000/svg" xmlns:xlink="http://www.w3.org/1999/xlink" width="500" zoomAndPan="magnify" viewBox="0 0 375 374.999991" height="500" preserveAspectRatio="xMidYMid meet" version="1.0"><defs><clipPath id="44e6ad8897"><path d="M 108 75 L 287 75 L 287 342 L 108 342 Z M 108 75 " clip-rule="nonzero"/></clipPath><clipPath id="8c4af9c3ae"><path d="M 231.539062 14.527344 L 343.675781 263.433594 L 126.226562 361.398438 L 14.089844 112.492188 Z M 231.539062 14.527344 " clip-rule="nonzero"/></clipPath><clipPath id="f66b3a8503"><path d="M 231.539062 14.527344 L 343.675781 263.433594 L 126.226562 361.398438 L 14.089844 112.492188 Z M 231.539062 14.527344 " clip-rule="nonzero"/></clipPath><clipPath id="00d040abaa"><path d="M 116 232 L 185 232 L 185 321 L 116 321 Z M 116 232 " clip-rule="nonzero"/></clipPath><clipPath id="4c621d87de"><path d="M 231.539062 14.527344 L 343.675781 263.433594 L 126.226562 361.398438 L 14.089844 112.492188 Z M 231.539062 14.527344 " clip-rule="nonzero"/></clipPath><clipPath id="4abab17c99"><path d="M 231.539062 14.527344 L 343.675781 263.433594 L 126.226562 361.398438 L 14.089844 112.492188 Z M 231.539062 14.527344 " clip-rule="nonzero"/></clipPath><clipPath id="146d56e16b"><path d="M 160 113 L 253 113 L 253 208 L 160 208 Z M 160 113 " clip-rule="nonzero"/></clipPath><clipPath id="cb3af56d25"><path d="M 231.539062 14.527344 L 343.675781 263.433594 L 126.226562 361.398438 L 14.089844 112.492188 Z M 231.539062 14.527344 " clip-rule="nonzero"/></clipPath><clipPath id="b1905b9ea0"><path d="M 231.539062 14.527344 L 343.675781 263.433594 L 126.226562 361.398438 L 14.089844 112.492188 Z M 231.539062 14.527344 " clip-rule="nonzero"/></clipPath><clipPath id="670fbc5775"><path d="M 71 123 L 122 123 L 122 235 L 71 235 Z M 71 123 " clip-rule="nonzero"/></clipPath><clipPath id="5a90549889"><path d="M 231.539062 14.527344 L 343.675781 263.433594 L 126.226562 361.398438 L 14.089844 112.492188 Z M 231.539062 14.527344 " clip-rule="nonzero"/></clipPath><clipPath id="b8b90cf8bc"><path d="M 231.539062 14.527344 L 343.675781 263.433594 L 126.226562 361.398438 L 14.089844 112.492188 Z M 231.539062 14.527344 " clip-rule="nonzero"/></clipPath><clipPath id="c4c67e6885"><path d="M 205 246 L 244 246 L 244 280 L 205 280 Z M 205 246 " clip-rule="nonzero"/></clipPath><clipPath id="11926b9c96"><path d="M 231.539062 14.527344 L 343.675781 263.433594 L 126.226562 361.398438 L 14.089844 112.492188 Z M 231.539062 14.527344 " clip-rule="nonzero"/></clipPath><clipPath id="b7342438ee"><path d="M 231.539062 14.527344 L 343.675781 263.433594 L 126.226562 361.398438 L 14.089844 112.492188 Z M 231.539062 14.527344 " clip-rule="nonzero"/></clipPath><clipPath id="e07830cc0d"><path d="M 206 295 L 234 295 L 234 316 L 206 316 Z M 206 295 " clip-rule="nonzero"/></clipPath><clipPath id="c224ead47f"><path d="M 231.539062 14.527344 L 343.675781 263.433594 L 126.226562 361.398438 L 14.089844 112.492188 Z M 231.539062 14.527344 " clip-rule="nonzero"/></clipPath><clipPath id="1e2354aa5c"><path d="M 231.539062 14.527344 L 343.675781 263.433594 L 126.226562 361.398438 L 14.089844 112.492188 Z M 231.539062 14.527344 " clip-rule="nonzero"/></clipPath><clipPath id="fa93aa684c"><path d="M 162 43 L 184 43 L 184 67 L 162 67 Z M 162 43 " clip-rule="nonzero"/></clipPath><clipPath id="864b603f60"><path d="M 231.539062 14.527344 L 343.675781 263.433594 L 126.226562 361.398438 L 14.089844 112.492188 Z M 231.539062 14.527344 " clip-rule="nonzero"/></clipPath><clipPath id="181c72b2b5"><path d="M 231.539062 14.527344 L 343.675781 263.433594 L 126.226562 361.398438 L 14.089844 112.492188 Z M 231.539062 14.527344 " clip-rule="nonzero"/></clipPath><clipPath id="7a2ba337fe"><path d="M 191 32 L 205 32 L 205 60 L 191 60 Z M 191 32 " clip-rule="nonzero"/></clipPath><clipPath id="bfa37265e6"><path d="M 231.539062 14.527344 L 343.675781 263.433594 L 126.226562 361.398438 L 14.089844 112.492188 Z M 231.539062 14.527344 " clip-rule="nonzero"/></clipPath><clipPath id="1c0215ecf8"><path d="M 231.539062 14.527344 L 343.675781 263.433594 L 126.226562 361.398438 L 14.089844 112.492188 Z M 231.539062 14.527344 " clip-rule="nonzero"/></clipPath><clipPath id="a3a1474001"><path d="M 211 42 L 229 42 L 229 61 L 211 61 Z M 211 42 " clip-rule="nonzero"/></clipPath><clipPath id="767bda56e2"><path d="M 231.539062 14.527344 L 343.675781 263.433594 L 126.226562 361.398438 L 14.089844 112.492188 Z M 231.539062 14.527344 " clip-rule="nonzero"/></clipPath><clipPath id="7dbcb60c18"><path d="M 231.539062 14.527344 L 343.675781 263.433594 L 126.226562 361.398438 L 14.089844 112.492188 Z M 231.539062 14.527344 " clip-rule="nonzero"/></clipPath><clipPath id="98d6aad719"><path d="M 117 86 L 277 86 L 277 334 L 117 334 Z M 117 86 " clip-rule="nonzero"/></clipPath><clipPath id="d2100b1132"><path d="M 231.539062 14.527344 L 343.675781 263.433594 L 126.226562 361.398438 L 14.089844 112.492188 Z M 231.539062 14.527344 " clip-rule="nonzero"/></clipPath><clipPath id="07344b2354"><path d="M 231.539062 14.527344 L 343.675781 263.433594 L 126.226562 361.398438 L 14.089844 112.492188 Z M 231.539062 14.527344 " clip-rule="nonzero"/></clipPath><clipPath id="ea80533e04"><path d="M 155 103 L 261 103 L 261 206 L 155 206 Z M 155 103 " clip-rule="nonzero"/></clipPath><clipPath id="bab2afd1be"><path d="M 231.539062 14.527344 L 343.675781 263.433594 L 126.226562 361.398438 L 14.089844 112.492188 Z M 231.539062 14.527344 " clip-rule="nonzero"/></clipPath><clipPath id="971f42a3c9"><path d="M 231.539062 14.527344 L 343.675781 263.433594 L 126.226562 361.398438 L 14.089844 112.492188 Z M 231.539062 14.527344 " clip-rule="nonzero"/></clipPath></defs><g clip-path="url(#44e6ad8897)"><g clip-path="url(#8c4af9c3ae)"><g clip-path="url(#f66b3a8503)"><path fill="#efe3d4" d="M 144.234375 338.253906 C 147.582031 336.148438 149.660156 332.289062 150.183594 328.414062 C 150.328125 326.621094 152.417969 326.097656 153.769531 325.25 C 154.875 324.929688 155.078125 323.523438 156.160156 323.277344 C 156.800781 323.109375 157.351562 322.742188 157.453125 322.039062 C 157.628906 320.707031 158.75 320.023438 159.425781 319.003906 C 161.695312 314.636719 163.792969 310.292969 165.921875 305.875 C 166.375 304.894531 167.484375 303.917969 167.695312 302.925781 C 167.628906 302.121094 167.996094 301.476562 168.652344 300.945312 C 169.128906 300.550781 169.46875 299.980469 169.664062 299.355469 C 170.5 297.367188 171.789062 295.59375 172.980469 293.863281 C 173.148438 292.65625 173.84375 291.683594 174.375 290.609375 C 175.699219 287.984375 176.398438 285.164062 177.816406 282.617188 C 178.777344 280.515625 179.734375 278.53125 180.714844 276.476562 C 180.972656 276.125 180.65625 275.550781 181.03125 275.320312 C 182.1875 274.445312 181.71875 272.746094 182.804688 271.839844 C 182.851562 271.816406 182.855469 271.695312 182.863281 271.574219 C 182.769531 270.839844 183.109375 270.269531 183.6875 269.828125 C 183.886719 269.742188 183.945312 269.476562 183.976562 269.28125 C 184.378906 267.789062 185.425781 266.539062 186.042969 265.128906 C 186.597656 264.105469 187.371094 263.039062 187.324219 261.746094 C 187.289062 261.40625 187.664062 261.175781 187.917969 260.945312 C 189.050781 260.015625 189.089844 258.386719 189.75 257.195312 C 190.894531 255.367188 191.65625 253.351562 192.5625 251.394531 C 192.769531 249.332031 192.535156 247.230469 192.886719 245.222656 C 193.097656 242.382812 191.699219 239.671875 193.722656 237.148438 C 193.875 236.960938 194.152344 236.777344 194.160156 236.535156 C 194.210938 235.320312 194.859375 234.371094 195.382812 233.417969 C 196.003906 232.542969 195.515625 231.332031 196.347656 230.65625 C 198.546875 230.382812 200.679688 231.269531 202.84375 230.773438 C 202.941406 230.730469 203.132812 230.761719 203.179688 230.859375 C 203.714844 231.515625 204.429688 231.25 205.085938 231.253906 C 206.496094 231.335938 207.953125 230.859375 209.371094 231.230469 C 210.191406 231.460938 211.070312 231.421875 211.902344 231.285156 C 213.277344 231.023438 214.621094 231.492188 215.945312 231.253906 C 217.082031 230.863281 218.269531 230.984375 219.464844 230.859375 C 220.492188 230.757812 221.449219 230.625 222.347656 230.101562 C 223.066406 229.714844 223.738281 229.355469 224.515625 230.019531 C 226.464844 230.632812 228.03125 228.554688 230.011719 228.972656 C 231.808594 229.121094 233.414062 227.917969 235.039062 227.425781 C 239.882812 225.71875 244.320312 223.125 248.597656 220.300781 C 251.347656 218.464844 254.144531 216.730469 256.941406 214.992188 C 259.71875 213.203125 261.929688 210.835938 264.472656 208.796875 C 265.480469 207.984375 265.808594 206.464844 266.886719 205.679688 C 269.472656 203.738281 270.382812 200.464844 272.902344 198.375 C 273.863281 197.464844 274.253906 196.214844 274.621094 195.035156 C 276.328125 190.746094 278.34375 186.617188 279.90625 182.273438 C 280.605469 180.644531 281.78125 179.28125 282.167969 177.496094 C 283.421875 173.652344 285.175781 169.996094 285.800781 165.957031 C 286.375 163.789062 285.785156 161.550781 285.945312 159.390625 C 286.316406 154.386719 284.785156 149.53125 284.960938 144.5 C 285.015625 143.820312 284.972656 143.0625 284.652344 142.488281 C 283.980469 141.125 284.085938 139.640625 283.632812 138.238281 C 283.441406 137.546875 283.128906 136.851562 283.28125 136.128906 C 283.429688 135.402344 283.238281 134.714844 282.976562 134 C 282.03125 131.5 281.773438 128.8125 281 126.296875 C 280.761719 125.507812 280.230469 124.855469 280.214844 124.027344 C 280.148438 122.683594 279.332031 121.800781 278.589844 120.820312 C 276.730469 117.484375 274.796875 114.117188 273.160156 110.621094 C 270.859375 106.703125 267.738281 103.21875 265.011719 99.554688 C 264.308594 98.917969 263.300781 98.535156 262.847656 97.664062 C 261.863281 96.140625 260.101562 95.800781 258.933594 94.535156 C 256.953125 92.386719 254.277344 91.085938 252.042969 89.171875 C 249.757812 87.277344 247.113281 85.78125 244.417969 84.429688 C 242.730469 83.460938 240.878906 82.804688 239.1875 81.957031 C 237.253906 80.976562 235.332031 79.753906 233.015625 79.785156 C 232.53125 79.765625 232.078125 79.550781 231.722656 79.292969 C 229.75 78.09375 227.375 78.386719 225.34375 77.453125 C 224.769531 77.234375 224.167969 77.089844 223.507812 77.085938 C 221.675781 77.257812 219.933594 76.429688 218.136719 76.285156 C 214.289062 76.347656 210.613281 75.082031 206.726562 75.460938 C 204.113281 75.742188 201.503906 75.25 198.898438 75.824219 C 197.5625 76.308594 196.066406 76.027344 194.847656 76.636719 C 193.929688 77.109375 192.992188 77.414062 191.988281 77.566406 C 189.828125 77.941406 187.800781 78.738281 185.710938 79.261719 C 184.949219 79.425781 184.238281 79.566406 183.632812 80.078125 C 183.328125 80.332031 182.855469 80.605469 182.492188 80.589844 C 180.816406 80.449219 179.664062 81.867188 178.125 82.023438 C 178.027344 82.066406 177.777344 82.179688 177.722656 82.324219 C 177.21875 83.324219 176.171875 83.378906 175.257812 83.730469 C 173.625 84.347656 171.875 84.835938 170.605469 86.125 C 170.25 86.523438 169.53125 86.253906 169.269531 86.726562 C 168.566406 87.820312 167.066406 88.199219 165.976562 88.6875 C 160.257812 92.816406 154.324219 96.863281 149.699219 102.226562 C 143.589844 108.917969 137.433594 116.046875 134.570312 124.792969 C 133.753906 125.757812 133.746094 127.191406 132.710938 128.074219 C 132.589844 129.265625 132.132812 130.367188 131.363281 131.308594 C 131.027344 131.757812 130.742188 132.183594 131.011719 132.777344 C 131.144531 133.078125 131.007812 133.4375 130.800781 133.769531 C 129.820312 135.164062 129.535156 136.785156 129.570312 138.320312 C 129.359375 141.695312 128.578125 144.855469 128.464844 148.183594 C 128.417969 148.742188 128.226562 149.246094 128.304688 149.808594 C 128.9375 153.996094 129.300781 158.25 129.59375 162.472656 C 129.628906 164.007812 130.5625 165.554688 130.378906 167.128906 C 130.328125 167.808594 130.402344 168.371094 130.648438 168.917969 C 131.75 173.613281 132.457031 178.363281 134.269531 182.917969 C 135.214844 185.414062 137.164062 187.222656 138.3125 189.507812 C 138.824219 190.113281 139.5625 190.554688 139.523438 191.527344 C 139.566406 191.628906 139.632812 191.777344 139.679688 191.875 C 141.113281 192.542969 141.03125 194.484375 142.417969 195.175781 C 142.558594 195.886719 143.304688 196.085938 143.550781 196.632812 C 144.222656 198.121094 145.316406 199.359375 146.289062 200.589844 C 147.054688 201.496094 147.25 202.722656 148.117188 203.585938 C 148.558594 204.042969 148.949219 204.640625 149.089844 205.351562 C 149.109375 205.523438 149.292969 205.800781 149.386719 205.875 C 150.273438 206.253906 150.550781 207.140625 151.136719 207.773438 C 152.578125 209.390625 153.417969 211.515625 155.492188 212.671875 C 155.894531 212.90625 156.484375 213.417969 156.214844 214.015625 C 155.867188 214.828125 155.660156 215.699219 155 216.351562 C 149.683594 222.03125 146.34375 222.164062 142.660156 230.144531 C 142.128906 231.21875 141.695312 232.371094 140.855469 233.285156 C 140.574219 233.589844 140.488281 233.929688 140.496094 234.34375 C 140.496094 234.878906 140.335938 235.308594 139.714844 235.527344 C 139.417969 235.664062 139.121094 235.796875 139.085938 236.113281 C 138.949219 237.007812 138.363281 237.6875 138.085938 238.53125 C 137.460938 240.183594 136.710938 241.835938 136.199219 243.613281 C 135.6875 244.859375 134.695312 245.964844 134.757812 247.429688 C 132.078125 252.871094 129.515625 258.441406 126.789062 263.90625 C 124.039062 268.664062 122.558594 273.984375 120.359375 279.03125 C 118.992188 282.75 117.527344 286.390625 116.160156 290.109375 C 114.371094 294.078125 113.03125 298.261719 111.386719 302.285156 C 111.195312 303.324219 111.882812 304.445312 111.085938 305.460938 C 110.621094 306.148438 110.71875 306.761719 110.929688 307.5 C 111.359375 308.976562 111.707031 310.550781 112.402344 312.085938 C 110.726562 313.140625 110.382812 315.023438 109.28125 316.417969 C 109.078125 316.628906 109.0625 316.992188 109.148438 317.3125 C 109.339844 318 109.433594 318.613281 108.78125 319.148438 C 108.429688 319.425781 108.53125 319.917969 108.660156 320.335938 C 109.011719 321.910156 109.019531 323.515625 109.6875 325.003906 C 110.667969 327.308594 112.085938 329.53125 113.566406 331.488281 C 114.777344 332.195312 115.589844 333.203125 116.472656 334.238281 C 117.125 335.015625 117.648438 335.914062 118.757812 336.128906 C 120.105469 337.132812 121.035156 338.804688 122.820312 339.191406 C 123.976562 339.507812 125.042969 340.277344 126.257812 340.328125 C 126.988281 340.359375 127.6875 340.460938 128.332031 340.824219 C 128.570312 340.957031 128.855469 341.066406 129.054688 340.976562 C 129.902344 340.476562 130.59375 340.820312 131.261719 341.238281 C 132.355469 341.816406 133.652344 341.113281 134.71875 341.230469 C 135.609375 341.484375 136.269531 341.367188 137.019531 340.910156 C 137.761719 340.574219 138.617188 341.144531 139.347656 340.515625 C 140.871094 339.53125 142.804688 339.316406 144.238281 338.132812 Z M 144.234375 338.253906 " fill-opacity="1" fill-rule="nonzero"/></g></g></g><g clip-path="url(#00d040abaa)"><g clip-path="url(#4c621d87de)"><g clip-path="url(#4abab17c99)"><path fill="#febf00" d="M 149.210938 319.90625 C 151.609375 317.808594 152.59375 314.5625 153.394531 311.578125 C 152.863281 311.457031 152.574219 312.007812 152.046875 311.765625 C 151.714844 311.023438 151.476562 310.234375 151.148438 309.367188 C 150.226562 309.84375 150.683594 311.246094 149.625 311.546875 C 148.613281 310.628906 150.023438 309.515625 149.457031 308.398438 C 149.71875 306.730469 150.546875 304.984375 151.503906 303.539062 C 152.171875 302.640625 152.988281 301.796875 153.085938 300.558594 C 153.121094 300.246094 153.351562 299.960938 153.605469 299.730469 C 155.199219 297.042969 155.746094 293.753906 158.480469 291.746094 C 160.3125 289.191406 163.527344 287.980469 165.167969 285.273438 C 165.816406 284.324219 166.886719 283.78125 167.460938 282.808594 C 167.539062 282.714844 167.757812 282.675781 167.90625 282.605469 C 169.351562 282.375 170.21875 281.386719 170.898438 280.246094 C 173.488281 275.796875 175.292969 270.925781 178.046875 266.582031 C 178.695312 265.636719 179.03125 264.527344 179.773438 263.660156 C 179.976562 263.449219 180.089844 263.039062 180.199219 262.75 C 180.65625 261.113281 181.566406 259.6875 181.734375 257.941406 C 181.742188 257.699219 181.875 257.460938 182.027344 257.273438 C 182.636719 256.640625 182.742188 255.816406 182.871094 255.042969 C 183.292969 253.0625 184.125 251.199219 184.664062 249.222656 C 185.136719 247.757812 185.070312 247.609375 183.609375 247.015625 C 183.539062 246.332031 183.472656 245.644531 183.378906 244.910156 C 183.34375 244.570312 183.410156 244.183594 183.074219 243.972656 C 182.21875 243.527344 182.273438 242.726562 182.351562 241.972656 C 182.453125 240.734375 181.8125 239.710938 181.320312 238.621094 C 180.589844 237.398438 179.421875 238.640625 178.917969 236.601562 C 179.28125 236.078125 180.183594 235.433594 179.550781 234.824219 C 179.007812 234.414062 178.492188 233.929688 177.867188 233.734375 C 175.441406 232.855469 172.925781 232.4375 170.433594 233.261719 C 169.347656 233.632812 167.917969 233.503906 167.511719 235.117188 C 166.621094 234.863281 165.890625 235.488281 165.089844 235.433594 C 163.53125 235.417969 162.121094 235.996094 160.667969 236.351562 C 159.480469 236.886719 158.628906 238.046875 157.789062 238.960938 C 157.300781 239.597656 156.574219 240.105469 156.375 240.851562 C 154.824219 244.828125 151.699219 248.085938 149.984375 251.960938 C 149.667969 253.117188 149.1875 254.171875 148.78125 255.25 C 146.554688 259.710938 144.351562 264.222656 141.839844 268.578125 C 140.222656 271.871094 138.054688 274.875 136.507812 278.199219 C 135.328125 280.878906 134.367188 283.636719 132.6875 286.003906 C 131.691406 287.765625 131.167969 289.914062 129.011719 290.824219 C 128.539062 291.097656 128.628906 291.832031 127.945312 291.898438 C 127.867188 291.457031 128.265625 290.621094 127.238281 290.726562 C 126.054688 292.335938 125.734375 292.417969 123.777344 291.390625 C 122.242188 293.277344 121.953125 295.554688 121.1875 297.6875 C 120.335938 299.503906 119.460938 301.269531 119.039062 303.25 C 118.96875 303.757812 118.667969 304.015625 118.171875 304.238281 C 116.136719 305.152344 117.007812 306.550781 117.695312 308.210938 C 119.007812 312.453125 124 314.261719 128.078125 313.914062 C 129.40625 314.210938 130.777344 314.605469 131.902344 315.652344 C 133.515625 317.371094 135.75 318.09375 137.832031 319.007812 C 140.53125 320.234375 143.328125 320.882812 146.308594 320.078125 C 146.996094 319.886719 147.742188 319.554688 148.527344 319.972656 C 148.765625 320.105469 149.136719 320 149.339844 319.789062 Z M 172.011719 264.171875 C 172.21875 265.035156 171.808594 265.578125 171.226562 266.136719 C 170.867188 265.34375 170.976562 265.054688 172.011719 264.171875 Z M 122.957031 302.679688 C 122.886719 303.1875 123.011719 303.726562 122.601562 304.269531 C 122.117188 303.59375 122.5 303.121094 122.957031 302.679688 Z M 122.957031 302.679688 " fill-opacity="1" fill-rule="nonzero"/></g></g></g><g clip-path="url(#146d56e16b)"><g clip-path="url(#cb3af56d25)"><g clip-path="url(#b1905b9ea0)"><path fill="#b260e4" d="M 227.378906 200.75 C 227.476562 200.703125 227.53125 200.558594 227.609375 200.464844 C 228.230469 198.933594 230.175781 199.546875 230.933594 198.3125 C 232.402344 196.277344 235.207031 195.609375 236.492188 193.300781 C 236.621094 193.0625 236.871094 192.953125 237.089844 192.910156 C 238.078125 192.585938 238.769531 191.738281 239.40625 191.035156 C 240.660156 189.574219 242.003906 188.191406 243.046875 186.53125 C 244.011719 184.960938 245.496094 183.757812 245.765625 181.84375 C 245.777344 181.601562 245.980469 181.390625 246.113281 181.152344 C 246.425781 180.652344 246.636719 180.199219 246.613281 179.613281 C 247.078125 177.734375 248.050781 175.921875 248.636719 174.046875 C 250.011719 170.742188 250.304688 167.152344 250.957031 163.695312 C 251.738281 162.390625 251.605469 160.898438 252.097656 159.484375 C 252.261719 159.050781 252.28125 158.566406 252.253906 158.101562 C 252.121094 156.488281 252.113281 154.882812 252.449219 153.238281 C 252.328125 151.386719 252.085938 149.523438 251.546875 147.800781 C 250.960938 146.09375 250.746094 144.164062 249.292969 142.789062 C 249.082031 142.585938 249.089844 142.34375 249.078125 142.050781 C 248.992188 141.730469 249.007812 141.367188 248.824219 141.089844 C 248.078125 139.699219 248.046875 138.042969 246.902344 136.828125 C 246.765625 136.648438 246.703125 136.378906 246.640625 136.109375 C 246.097656 133.847656 243.855469 132.710938 242.867188 130.648438 C 241.863281 128.417969 239.101562 127.453125 238.71875 124.882812 C 238.285156 122.992188 236.433594 121.796875 234.886719 120.882812 C 233.75 120.082031 232.542969 119.253906 231.242188 118.882812 C 228.429688 118.0625 225.867188 116.355469 222.835938 116.109375 C 219.769531 114.867188 216.445312 113.976562 213.117188 113.746094 C 210.585938 113.8125 208.0625 112.980469 205.539062 113.34375 C 204.601562 113.644531 203.625 113.726562 202.679688 113.617188 C 200.816406 113.320312 199.289062 114.429688 197.53125 114.503906 C 195.253906 114.21875 193.324219 115.625 191.148438 115.828125 C 190.925781 115.867188 190.585938 115.902344 190.410156 116.042969 C 189.820312 116.722656 188.921875 116.710938 188.128906 117.070312 C 185.945312 118.054688 183.851562 119.234375 181.582031 120.019531 C 181.332031 120.132812 181.136719 120.21875 181.027344 120.507812 C 180.230469 121.523438 178.875 121.953125 177.710938 122.417969 C 176.5 122.90625 175.582031 123.914062 174.550781 124.675781 C 173.925781 125.140625 173.335938 125.820312 172.726562 126.453125 C 172.089844 127.160156 171.148438 127.582031 170.910156 128.644531 C 170.824219 128.980469 170.503906 129.066406 170.277344 129.226562 C 168.164062 130.359375 167.367188 132.566406 165.695312 134.15625 C 165.394531 134.410156 165.257812 134.769531 165.195312 135.15625 C 164.957031 136.21875 164.164062 137.113281 163.855469 138.148438 C 163.484375 138.910156 163.769531 139.675781 163.523438 140.324219 C 162.503906 142.695312 162.375 145.316406 161.71875 147.703125 C 160.273438 149.664062 162.21875 151.59375 161.425781 153.679688 C 161.15625 154.398438 160.828125 155.261719 161.230469 156.152344 C 161.339844 156.402344 161.253906 156.738281 161.144531 157.027344 C 160.664062 158.078125 160.910156 159.28125 160.550781 160.339844 C 160.46875 160.554688 160.507812 160.773438 160.648438 160.949219 C 161.082031 161.648438 161.023438 162.453125 160.824219 163.199219 C 160.335938 166.222656 161.335938 169.230469 160.96875 172.261719 C 160.980469 172.554688 160.894531 172.890625 160.691406 173.101562 C 159.699219 174.207031 161.304688 176.046875 161.570312 177.300781 C 161.167969 177.601562 160.816406 177.21875 160.320312 177.445312 C 160.855469 179.292969 161.765625 180.910156 162.519531 182.71875 C 162.832031 183.414062 163.242188 184.0625 163.9375 184.40625 C 164.699219 184.777344 165.089844 185.378906 165.054688 186.230469 C 165.035156 186.714844 165.285156 187.140625 165.664062 187.445312 C 166.445312 187.988281 167.050781 188.671875 167.527344 189.46875 C 168.351562 190.769531 169.480469 191.8125 170.632812 192.785156 C 172.09375 194.035156 173.171875 195.636719 174.761719 196.652344 C 181.144531 201.414062 187.839844 205.554688 195.6875 207.210938 C 197.523438 207.578125 199.398438 208.164062 201.320312 207.535156 C 201.789062 207.382812 202.347656 207.429688 202.828125 207.570312 C 204.386719 208.242188 205.726562 206.984375 207.257812 207.070312 C 208.230469 207.109375 209.195312 207.269531 210.078125 206.574219 C 211.894531 206.113281 213.929688 206.390625 215.738281 205.632812 C 216.480469 205.300781 217.25 205.015625 218.03125 204.898438 C 221.4375 204.378906 224.148438 202.320312 227.089844 200.640625 Z M 227.378906 200.75 " fill-opacity="1" fill-rule="nonzero"/></g></g></g><g clip-path="url(#670fbc5775)"><g clip-path="url(#5a90549889)"><g clip-path="url(#b8b90cf8bc)"><path fill="#4a71f6" d="M 121.101562 234.070312 C 123.070312 226.917969 120.582031 226.429688 119.351562 220.121094 C 117.632812 216.304688 116.285156 212.257812 113.921875 208.730469 C 112.199219 206.761719 111.179688 204.234375 109.433594 202.339844 C 108.804688 201.609375 108.613281 200.917969 108.769531 200.074219 C 109.058594 198.332031 109.152344 196.558594 109.054688 194.753906 C 108.523438 186.285156 105.769531 177.917969 101.085938 170.839844 C 100.859375 170.464844 100.582031 170.113281 100.988281 169.691406 C 102.152344 168.570312 102.460938 167 103.078125 165.589844 C 103.847656 163.988281 103.019531 162.152344 103.625 160.449219 C 104.429688 155.613281 103.25 150.476562 101.0625 146.152344 C 99.296875 142.234375 96.886719 138.609375 94.019531 135.425781 C 92.890625 133.84375 91.6875 132.359375 90.078125 131.175781 C 88.226562 129.980469 87.089844 127.988281 85.035156 127.003906 C 83.359375 125.132812 81.113281 124.117188 78.859375 123.222656 C 78.5 123.085938 78.136719 123.074219 77.742188 123.128906 C 76.464844 123.46875 75.703125 124.824219 76.164062 126.109375 C 76.585938 127.050781 76.933594 128.085938 78.0625 128.472656 C 79.289062 129.472656 80.410156 130.636719 81.734375 131.59375 C 84.460938 133.40625 86.101562 136.25 88.574219 138.296875 C 88.738281 138.398438 88.851562 138.648438 88.917969 138.796875 C 89.253906 139.539062 90.148438 139.675781 90.386719 140.464844 C 90.617188 141.371094 91.597656 141.828125 91.953125 142.621094 C 92.230469 144.820312 94.570312 145.914062 95.046875 148.027344 C 95.355469 149.378906 96.113281 150.53125 96.105469 151.964844 C 96.148438 152.066406 96.214844 152.214844 96.261719 152.3125 C 96.929688 153.800781 96.769531 155.425781 97.144531 156.925781 C 97.414062 158.714844 97.949219 160.5625 97.121094 162.304688 C 96.988281 163.199219 96.933594 164 96.457031 164.933594 C 92.277344 160.550781 87.800781 156.183594 81.761719 154.429688 C 80.199219 153.34375 78.53125 153.617188 76.800781 153.742188 C 73.503906 153.316406 71.398438 157.90625 71.917969 160.65625 C 72.777344 164.144531 75.308594 166.585938 77.816406 168.976562 C 80.105469 170.746094 82.820312 171.613281 85.433594 172.644531 C 87.402344 173.304688 89.539062 174.074219 91.667969 173.769531 C 92.457031 173.535156 93.339844 173.375 94.136719 173.554688 C 96.03125 174.3125 97.78125 171.316406 98.773438 173.253906 C 102.035156 178.765625 104.515625 184.808594 105.304688 191.191406 C 105.527344 192.882812 105.679688 194.542969 105.5625 196.265625 C 105.488281 196.898438 105.488281 197.554688 105.007812 197.949219 C 104.496094 198 104.238281 197.699219 104.03125 197.375 C 102.699219 196.003906 100.910156 195.082031 99.21875 194.234375 C 95.410156 192.011719 87.492188 193.371094 88.917969 199.050781 C 90.117188 202.507812 93.324219 205.121094 96.574219 206.640625 C 97.964844 207.207031 99.332031 208.261719 100.992188 207.574219 C 101.089844 207.527344 101.285156 207.5625 101.355469 207.589844 C 103.730469 208.488281 105.109375 206.253906 107.003906 205.164062 C 108.253906 207.40625 109.902344 209.347656 110.507812 211.878906 C 110.675781 212.519531 110.917969 213.183594 111.183594 213.78125 C 111.613281 214.601562 112.191406 215.355469 111.984375 216.34375 C 111.949219 216.539062 112.0625 216.785156 112.226562 216.890625 C 113.425781 218.617188 112.851562 220.785156 113.65625 222.570312 C 114.136719 223.246094 114.28125 223.960938 114.152344 224.734375 C 114.078125 225.898438 114.691406 226.996094 114.234375 228.097656 C 114.132812 229.457031 115.03125 231.316406 116.269531 231.953125 C 116.414062 232.007812 116.453125 232.226562 116.570312 232.355469 C 117.242188 233.839844 118.710938 234.191406 119.980469 234.753906 C 120.648438 235.050781 120.929688 234.746094 121.082031 234.019531 Z M 91.035156 167.195312 C 90.890625 167.140625 90.746094 167.085938 90.648438 167.132812 C 89.457031 167.667969 88.316406 166.988281 87.128906 166.867188 C 83.890625 166.835938 81.488281 164.277344 78.691406 162.972656 C 73.242188 159.878906 77.292969 157.753906 81.492188 158.726562 C 84.90625 159.160156 92.035156 164.121094 93.746094 166.988281 C 92.808594 167.292969 91.917969 167.574219 91.011719 167.148438 Z M 102.792969 201.511719 C 102.132812 201.632812 101.449219 201.699219 100.941406 202.167969 C 100.6875 202.402344 100.398438 202.414062 100.136719 202.230469 C 99.09375 201.507812 97.796875 201.675781 96.640625 201.359375 C 95.050781 201.003906 93.75 199.976562 92.324219 199.191406 C 92.011719 199.03125 91.75 198.851562 91.59375 198.503906 C 91.253906 197.878906 91.238281 197.710938 91.867188 197.246094 C 95.863281 194.730469 101.269531 197.726562 103.738281 201.085938 C 103.550781 201.46875 103.164062 201.40625 102.84375 201.488281 Z M 102.792969 201.511719 " fill-opacity="1" fill-rule="nonzero"/></g></g></g><g clip-path="url(#c4c67e6885)"><g clip-path="url(#11926b9c96)"><g clip-path="url(#b7342438ee)"><path fill="#4a71f6" d="M 238.902344 276.515625 C 238.183594 274.390625 237.6875 272.230469 236.699219 270.167969 C 235.71875 267.867188 236.695312 265.398438 237.875 263.375 C 238.167969 262.707031 238.359375 262.203125 237.929688 261.382812 C 238.652344 260.996094 238.890625 260.46875 239.066406 259.796875 C 239.316406 259.027344 239.902344 258.34375 239.9375 257.492188 C 239.972656 257.179688 240.367188 257.121094 240.589844 256.960938 C 241.644531 256.25 242.648438 255.4375 242.945312 254.109375 C 243.183594 253.046875 243.527344 248.777344 241.679688 249.3125 C 240.394531 249.769531 238.917969 249.003906 237.960938 250.328125 C 236.5625 251.855469 234.171875 251.976562 232.230469 252.433594 C 228.046875 252.949219 223.621094 252.792969 220.167969 250.292969 C 218.835938 250.117188 217.988281 248.769531 217.597656 247.632812 C 216.972656 246.242188 215.503906 245.769531 214.328125 246.601562 C 213.390625 247.4375 211.339844 248.183594 211.933594 249.765625 C 212.457031 251.320312 212.929688 252.898438 214.269531 254.023438 C 216.503906 258.980469 216.011719 258.546875 215.21875 263.679688 C 214.355469 264.542969 214.28125 265.832031 213.511719 266.773438 C 212.382812 268.238281 211.183594 269.550781 209.683594 270.585938 C 206.328125 272.8125 203.386719 275.8125 208.933594 277.667969 C 211.542969 276.96875 214.140625 275.976562 216.597656 274.8125 C 217.289062 274.496094 218.035156 274.164062 218.871094 274.5625 C 219.347656 274.824219 219.9375 274.679688 220.503906 274.480469 C 220.851562 274.324219 221.199219 274.167969 221.609375 274.28125 C 222.984375 274.558594 224.410156 274.273438 225.777344 274.132812 C 229.175781 273.734375 231.777344 276.324219 233.972656 278.554688 C 235.460938 280.269531 235.855469 280.214844 237.867188 279.25 C 238.757812 278.847656 239.398438 277.484375 239.019531 276.640625 Z M 238.902344 276.515625 " fill-opacity="1" fill-rule="nonzero"/></g></g></g><g clip-path="url(#e07830cc0d)"><g clip-path="url(#c224ead47f)"><g clip-path="url(#1e2354aa5c)"><path fill="#4a71f6" d="M 228.035156 312.910156 C 227.152344 310.027344 226.894531 306.800781 228.226562 303.933594 C 228.964844 302.527344 229.296875 300.886719 230.867188 300 C 231.015625 299.933594 231.050781 299.738281 231.105469 299.597656 C 231.480469 298.710938 232.515625 298.363281 233.152344 297.65625 C 233.09375 296.730469 232.710938 296.007812 232.253906 295.261719 C 229.507812 296.316406 226.765625 297.253906 223.941406 297.871094 C 222.445312 298.125 220.941406 297.433594 219.445312 297.6875 C 218.953125 297.789062 218.582031 297.363281 218.253906 297.03125 C 216.800781 295.660156 215.019531 295.148438 213.027344 295.09375 C 211.683594 297.546875 213.9375 299.097656 212.847656 301.316406 C 212.121094 304.867188 210.679688 308.023438 207.667969 310.214844 C 207.039062 310.675781 206.601562 311.289062 206.28125 312.03125 C 206.039062 312.558594 206.167969 312.976562 206.773438 313.125 C 207.882812 313.339844 208.734375 314.566406 209.929688 313.910156 C 213.441406 312.566406 217.375 311.628906 221.023438 312.847656 C 221.914062 313.101562 222.914062 313.070312 223.621094 313.707031 C 225.007812 314.929688 226.59375 315.410156 228.445312 315.410156 C 228.527344 314.539062 228.5625 313.6875 228.011719 312.859375 Z M 228.035156 312.910156 " fill-opacity="1" fill-rule="nonzero"/></g></g></g><g clip-path="url(#fa93aa684c)"><g clip-path="url(#864b603f60)"><g clip-path="url(#181c72b2b5)"><path fill="#febf00" d="M 183.335938 63.925781 C 183.917969 63.363281 183.488281 61.351562 183.175781 60.65625 C 182.355469 59.234375 182.378906 57.433594 181.164062 56.191406 C 180.914062 54.574219 180.070312 53.105469 179.402344 51.617188 C 179.28125 50.957031 178.886719 50.476562 178.496094 49.875 C 178.082031 49.347656 178.40625 48.484375 178.046875 47.8125 C 177.84375 47.367188 177.375 46.984375 177.195312 46.585938 C 177.160156 45.585938 176.398438 45.214844 175.738281 44.675781 C 175.171875 44.214844 174.492188 44.164062 173.921875 43.824219 C 172.96875 43.300781 172.078125 43.703125 171.261719 44.007812 C 170.714844 44.253906 170.269531 44.457031 169.640625 44.382812 C 168.402344 44.285156 168.152344 45.589844 167.304688 46.089844 C 166.613281 46.402344 166.34375 47 166.242188 47.703125 C 165.882812 49.414062 163.367188 48.996094 163.0625 51.105469 C 162.863281 51.851562 162.941406 52.292969 163.40625 52.796875 C 167.933594 56.484375 172.667969 59.84375 176.757812 64.023438 C 179.621094 66.671875 180.535156 66.976562 183.257812 64.019531 Z M 183.335938 63.925781 " fill-opacity="1" fill-rule="nonzero"/></g></g></g><g clip-path="url(#7a2ba337fe)"><g clip-path="url(#bfa37265e6)"><g clip-path="url(#1c0215ecf8)"><path fill="#febf00" d="M 200.222656 54.527344 C 199.972656 51.058594 201.890625 48.167969 202.609375 44.859375 C 202.734375 43.550781 203.511719 42.367188 203.59375 40.957031 C 203.609375 40.59375 203.578125 40.128906 203.808594 39.847656 C 204.53125 38.804688 204.339844 37.578125 204.53125 36.417969 C 204.660156 35.644531 204.386719 35.171875 203.671875 34.777344 C 202.1875 34.132812 200.472656 34.429688 198.921875 34.292969 C 197.40625 34.378906 196.183594 33.378906 194.761719 33.003906 C 192.160156 32.265625 191.046875 35.09375 191.429688 37.128906 C 191.832031 38.558594 191.460938 39.980469 191.695312 41.425781 C 192.386719 45.347656 192.667969 49.28125 193.140625 53.242188 C 193.777344 55.582031 193.347656 58.339844 195.769531 59.875 C 197.1875 58.519531 198.457031 57.230469 199.605469 55.9375 C 199.960938 55.539062 200.296875 55.089844 200.269531 54.503906 Z M 200.222656 54.527344 " fill-opacity="1" fill-rule="nonzero"/></g></g></g><g clip-path="url(#a3a1474001)"><g clip-path="url(#767bda56e2)"><g clip-path="url(#7dbcb60c18)"><path fill="#febf00" d="M 217.421875 58.410156 C 220.5625 56.640625 223.605469 54.789062 226.746094 53.019531 C 228.046875 52.195312 228.074219 50.273438 228.035156 48.859375 C 227.269531 48.488281 226.867188 47.59375 226.203125 47.175781 C 224.800781 46.316406 223.914062 44.746094 222.355469 44.199219 C 222.210938 44.144531 222.070312 43.96875 222.003906 43.820312 C 221.933594 43.132812 221.355469 43.039062 220.90625 42.703125 C 220.363281 42.292969 219.882812 42.152344 219.324219 42.640625 C 219.277344 42.660156 219.175781 42.707031 219.082031 42.628906 C 218.207031 42.007812 217.707031 43.546875 217.296875 44.089844 C 215.273438 47.6875 213.613281 51.417969 211.957031 55.148438 C 211.367188 56.488281 211.234375 57.917969 211.46875 59.363281 C 211.679688 60.761719 212.003906 61.210938 213.628906 60.71875 C 215.125 60.460938 216.144531 59.285156 217.300781 58.40625 Z M 217.421875 58.410156 " fill-opacity="1" fill-rule="nonzero"/></g></g></g><g clip-path="url(#98d6aad719)"><g clip-path="url(#d2100b1132)"><g clip-path="url(#07344b2354)"><path fill="#000001" d="M 137.816406 331.421875 C 141.644531 329.457031 142.632812 324.898438 142.695312 320.929688 C 142.804688 319.988281 142.804688 319.988281 143.761719 319.855469 C 146.125 319.804688 148.945312 319.84375 150 317.28125 C 150.914062 315.738281 151.445312 314.003906 152.574219 312.664062 C 152.929688 312.265625 152.929688 311.605469 153.535156 311.09375 C 153.5 312.601562 152.289062 313.625 152.691406 315.175781 C 155.121094 312.886719 155.792969 309.480469 157.441406 306.652344 C 163.304688 295.300781 167.753906 283.332031 173.929688 272.136719 C 175.519531 268.914062 177.066406 265.59375 178.65625 262.371094 C 179.503906 260.675781 180.5625 259.1875 181.074219 257.40625 C 182.367188 255.511719 183.351562 253.457031 183.6875 251.15625 C 183.964844 249.121094 185.0625 247.195312 184.515625 245.054688 C 184.332031 244.246094 184.65625 243.382812 184.542969 242.597656 C 184.417969 240.863281 183.851562 239.210938 182.464844 237.984375 C 182.160156 237.703125 181.730469 237.542969 181.605469 237 C 182.3125 236.324219 182.738281 235.414062 182.785156 234.320312 C 182.792969 234.078125 182.898438 233.914062 183.097656 233.824219 C 184.300781 232.921875 184.480469 231.46875 185.136719 230.277344 C 185.6875 229.375 186.023438 228.269531 186.546875 227.316406 C 187.660156 225.144531 188.554688 222.894531 189.304688 220.585938 C 189.472656 220.035156 189.574219 219.332031 190.222656 218.917969 C 191.253906 219.351562 192.347656 219.929688 193.550781 219.6875 C 193.652344 219.640625 193.765625 219.769531 193.910156 219.824219 C 194.648438 220.265625 195.40625 220.222656 196.242188 219.964844 C 196.492188 219.855469 196.835938 219.699219 197.097656 219.878906 C 197.996094 220.546875 199.09375 220.46875 200.117188 220.488281 C 203.515625 221.28125 206.761719 220.535156 210.175781 220.964844 C 218.835938 221.777344 227.679688 221.015625 235.820312 217.765625 C 236.589844 217.359375 238.761719 216.617188 238.125 215.59375 C 236.273438 215.59375 234.621094 216.695312 232.785156 216.984375 C 232.847656 216.597656 233.097656 216.488281 233.316406 216.449219 C 234.722656 215.992188 236.058594 215.511719 237.21875 214.511719 C 237.644531 214.140625 238.167969 213.84375 238.871094 213.945312 C 239.257812 214.007812 239.554688 213.875 239.785156 213.59375 C 240.445312 212.9375 241.285156 212.679688 242.121094 212.421875 C 244.261719 211.339844 246.402344 210.136719 248.523438 208.882812 C 252.359375 206.140625 255.847656 202.894531 258.84375 199.21875 C 260.050781 197.660156 260.832031 195.816406 262.207031 194.363281 C 269.214844 185.957031 273.902344 175.433594 275.96875 164.660156 C 277.125 158.886719 276.3125 153.109375 275.839844 147.292969 C 275.175781 140.914062 273.425781 134.78125 271.257812 128.777344 C 269.898438 125.628906 268.765625 122.324219 267.308594 119.21875 C 264.164062 114.492188 260.449219 110.082031 256.445312 106.097656 C 251.492188 101.589844 247.410156 95.96875 241.21875 93.089844 C 240.671875 92.800781 240.179688 92.367188 239.390625 92.601562 C 239.835938 94.253906 241.597656 94.589844 242.5 95.796875 C 242.152344 95.953125 241.859375 95.964844 241.574219 95.734375 C 240.445312 94.8125 239.109375 94.101562 237.875 93.34375 C 236.421875 92.507812 234.863281 91.957031 233.4375 91.046875 C 231.921875 90.0625 230.046875 90.011719 228.523438 89.144531 C 228.285156 89.015625 228.015625 89.078125 227.773438 89.066406 C 227.214844 89.019531 226.53125 89.089844 226.054688 88.828125 C 224.554688 88.011719 222.898438 88.042969 221.277344 87.757812 C 219.707031 87.449219 218.085938 87.167969 216.410156 87.148438 C 215.800781 87.121094 215.203125 86.855469 214.574219 87.316406 C 214.300781 87.5 214.019531 87.269531 213.730469 87.160156 C 212.652344 86.75 211.648438 86.25 210.414062 86.6875 C 210.117188 86.820312 209.730469 86.753906 209.417969 86.597656 C 207.027344 85.527344 204.636719 86.84375 202.238281 86.550781 C 200.867188 86.152344 199.519531 86.34375 198.140625 86.726562 C 194.023438 86.851562 190.152344 88.59375 186.261719 89.75 C 184.179688 90.691406 181.890625 91.304688 179.785156 92.191406 C 178.839844 92.617188 178.195312 93.566406 177.210938 93.769531 C 174.148438 94.910156 171.484375 96.945312 168.574219 98.433594 C 166.648438 99.183594 165.546875 101.113281 163.757812 102.039062 C 162.933594 102.46875 162.160156 102.996094 161.640625 103.828125 C 161.507812 104.066406 161.308594 104.15625 161.082031 104.316406 C 156.929688 106.484375 154.542969 110.722656 151.296875 113.976562 C 151.09375 114.1875 150.890625 114.398438 150.78125 114.683594 C 150.476562 116.132812 149.230469 116.933594 148.59375 118.175781 C 148.195312 119.011719 147.652344 119.792969 147.085938 120.523438 C 145.683594 122.171875 145.011719 124.265625 143.773438 126.015625 C 143.554688 126.589844 143.582031 127.175781 143.125 127.621094 C 141.851562 129.566406 141.636719 131.871094 140.992188 134.011719 C 140.527344 135.890625 139.121094 137.539062 139.453125 139.597656 C 139.519531 139.746094 139.4375 139.960938 139.3125 140.078125 C 138.785156 141.03125 139.105469 142.136719 138.652344 143.117188 C 138.824219 144.292969 138.453125 145.59375 138.820312 146.800781 C 137.253906 151.800781 137.523438 157.167969 137.828125 162.34375 C 138.144531 164.765625 138.464844 171.839844 140.046875 173.09375 C 140.382812 172.644531 140.324219 172.253906 140.195312 171.835938 C 139.980469 171.097656 140.058594 170.34375 139.945312 169.5625 C 139.882812 169.289062 139.964844 169.074219 140.234375 169.011719 C 140.207031 169.742188 141.234375 170.171875 140.984375 170.941406 C 140.761719 171.640625 141.03125 172.234375 141.320312 172.878906 C 142.097656 174.199219 141.972656 176.046875 143.121094 177.140625 C 143.402344 177.371094 143.296875 177.65625 143.308594 177.949219 C 143.335938 180.265625 144.898438 182.007812 145.664062 184.105469 C 146.152344 185.320312 147.132812 186.308594 147.691406 187.546875 C 147.804688 187.796875 148.070312 187.855469 148.308594 187.988281 C 148.546875 188.117188 148.785156 188.25 148.796875 188.542969 C 148.851562 189.59375 149.402344 190.417969 150.101562 191.175781 C 150.960938 192.160156 151.371094 193.46875 152.304688 194.480469 C 153.214844 195.441406 154.25 196.40625 154.882812 197.554688 C 155.703125 198.972656 156.933594 199.851562 157.960938 200.941406 C 160.230469 203.199219 162.480469 205.40625 165.03125 207.359375 C 166.152344 208.527344 167.863281 208.886719 168.808594 210.191406 C 166.949219 213.476562 165.5625 217.023438 163.773438 220.335938 C 163.574219 218.695312 164.804688 217.1875 164.117188 215.527344 C 163.699219 215.535156 163.640625 215.800781 163.558594 216.015625 C 162.359375 219.183594 160.851562 222.1875 160.105469 225.566406 C 159.664062 227.496094 159.664062 227.496094 157.660156 227.683594 C 155.828125 227.851562 153.734375 227.839844 152.800781 229.871094 C 152.695312 230.039062 152.449219 230.152344 152.320312 230.265625 C 151.207031 231.367188 149.855469 232.214844 149.402344 233.851562 C 149.261719 234.332031 148.921875 234.902344 148.519531 235.203125 C 147.738281 235.851562 147.359375 236.738281 146.914062 237.597656 C 146.59375 238.214844 146.039062 238.707031 145.816406 239.402344 C 145.394531 240.847656 144.324219 242.042969 144.28125 243.671875 C 144.289062 244.089844 144.019531 244.6875 143.695312 244.890625 C 142.820312 245.464844 142.832031 246.414062 142.386719 247.152344 C 142.230469 247.460938 142.214844 247.828125 142.035156 248.085938 C 140.996094 249.628906 140.703125 251.492188 139.785156 253.15625 C 137.730469 256.945312 136.277344 261 134.75 265.03125 C 133.71875 265.914062 133.6875 267.300781 132.941406 268.292969 C 132.566406 269.714844 132.363281 271.117188 131.335938 272.414062 C 130.453125 273.230469 131 274.714844 130.117188 275.53125 C 129.003906 277.164062 128.292969 279.035156 127.65625 280.933594 C 127.421875 282.53125 127.09375 284.050781 126.234375 285.453125 C 125.304688 287.363281 125.527344 289.707031 124.1875 291.503906 C 124.109375 291.597656 124.101562 291.84375 124.117188 292.011719 C 123.683594 294.355469 122.019531 296.359375 121.535156 298.726562 C 120.273438 300.425781 119.226562 302.210938 120.039062 304.410156 C 120.53125 305.503906 118.949219 306.09375 119.320312 307.179688 C 119.71875 308.730469 120.144531 310.210938 121.542969 311.191406 C 122.585938 311.914062 123.292969 313.085938 124.679688 313.65625 C 122.488281 314.882812 121.207031 316.535156 119.695312 318.347656 C 119.085938 318.980469 118.863281 319.675781 118.804688 320.476562 C 118.738281 321.523438 118.695312 322.617188 118.027344 323.515625 C 117.769531 323.867188 117.726562 324.304688 117.855469 324.722656 C 118.480469 327.964844 123.011719 333.257812 126.460938 333.496094 C 124.824219 331.847656 123.324219 330.375 122.328125 328.558594 C 122.496094 328.539062 122.640625 328.59375 122.6875 328.691406 C 124.164062 330.652344 126.414062 331.667969 128.324219 333.132812 C 131.441406 334.355469 134.851562 332.519531 137.746094 331.394531 Z M 140.035156 166.179688 C 140.253906 166.796875 140.421875 167.4375 140.246094 168.113281 C 140.140625 168.398438 140.152344 168.691406 140.261719 168.941406 C 139.640625 168.089844 139.75 167.144531 140.035156 166.179688 Z M 181.007812 209.589844 C 177.15625 207.921875 173.355469 206.113281 169.800781 203.777344 C 167.121094 201.941406 165.0625 199.351562 162.488281 197.347656 C 158.886719 194.257812 156.375 190.140625 153.859375 186.140625 C 151.644531 182.546875 149.527344 178.90625 147.933594 174.972656 C 144.761719 164.230469 143.535156 153.027344 145.082031 141.894531 C 145.894531 134.960938 148.714844 128.503906 152.738281 122.871094 C 154.292969 120.5 155.359375 117.695312 157.433594 115.683594 C 169.261719 103.136719 185.539062 93.714844 202.914062 92.152344 C 204.574219 92.65625 206.265625 92.3125 207.945312 92.332031 C 209.625 92.351562 211.292969 92.613281 212.984375 92.390625 C 216.378906 93.304688 220.070312 93.550781 223.40625 94.734375 C 224.945312 95.234375 226.503906 95.785156 227.988281 96.425781 C 229.183594 96.960938 230.53125 96.773438 231.566406 97.617188 C 233.019531 98.457031 234.949219 98.242188 236.1875 99.535156 C 236.234375 99.632812 236.398438 99.738281 236.472656 99.765625 C 237.878906 99.847656 238.933594 100.863281 240.128906 101.398438 C 241.304688 101.882812 242.519531 102.46875 243.558594 103.3125 C 245.566406 104.855469 248.039062 105.710938 249.84375 107.460938 C 250.285156 107.917969 250.910156 108.113281 251.433594 108.476562 C 252.640625 109.304688 253.640625 110.464844 254.925781 111.199219 C 256.929688 113.398438 258.304688 116.179688 260.308594 118.378906 C 261.351562 119.636719 261.699219 121.332031 262.863281 122.59375 C 263.328125 123.222656 263.808594 123.898438 263.824219 124.726562 C 263.941406 125.511719 264.84375 126.058594 265.007812 126.820312 C 267.15625 132.117188 269.941406 137.246094 270.734375 142.972656 C 271.007812 144.640625 271.203125 146.402344 271.085938 148.125 C 270.964844 151.699219 271.773438 155.214844 271.167969 158.769531 C 270.761719 160.917969 271.085938 163.21875 270.246094 165.328125 C 270.0625 166.246094 269.804688 167.136719 269.671875 168.03125 C 269.398438 169.410156 268.355469 170.535156 268.128906 171.890625 C 267.621094 174.207031 266.515625 176.253906 265.195312 178.222656 C 264.84375 179.691406 263.992188 180.851562 263 181.957031 C 262.566406 182.449219 262.488281 183.199219 262.292969 183.824219 C 261.796875 185.242188 260.902344 186.300781 259.957031 187.382812 C 259.117188 188.300781 258.867188 189.605469 258.074219 190.617188 C 255.730469 193.761719 253.007812 196.71875 250.125 199.328125 C 248.363281 200.71875 246.765625 202.335938 244.699219 203.445312 C 241.847656 204.789062 239.398438 206.90625 236.476562 208.101562 C 234.046875 209.199219 232.136719 211.3125 229.460938 211.859375 C 227.023438 212.542969 224.675781 213.421875 222.125 213.851562 C 218.910156 214.527344 215.671875 214.492188 212.449219 214.753906 C 211.515625 214.933594 210.527344 214.722656 209.558594 214.5625 C 209.148438 214.449219 208.691406 214.359375 208.316406 214.585938 C 207.523438 214.945312 206.742188 214.9375 205.96875 214.808594 C 204.636719 214.632812 203.246094 214.722656 201.972656 214.28125 C 201.328125 214.035156 200.632812 214.347656 199.953125 214.296875 C 198.910156 214.230469 197.878906 213.800781 196.820312 214.097656 C 196.429688 214.15625 195.933594 213.722656 195.546875 213.65625 C 194.0625 213.667969 192.707031 212.910156 191.246094 212.851562 C 189.648438 212.613281 188.175781 211.726562 186.449219 211.730469 C 186.203125 211.722656 185.890625 211.683594 185.699219 211.53125 C 184.304688 210.546875 182.582031 210.429688 181.152344 209.640625 Z M 167.332031 226.90625 C 168.730469 223.652344 170.175781 220.375 171.789062 217.199219 C 172.238281 216.34375 172.972656 215.59375 173.019531 214.5 C 173.496094 212.914062 176.0625 213.84375 177.027344 214.660156 C 177.21875 214.816406 177.457031 214.945312 177.699219 214.957031 C 178.285156 214.929688 178.710938 215.214844 179.210938 215.527344 C 179.730469 215.890625 180.328125 216.15625 180.984375 216.160156 C 182.21875 216.378906 183.359375 217.058594 184.707031 216.871094 C 185.460938 216.828125 185.644531 217.101562 185.351562 217.773438 C 183.667969 221.453125 181.9375 225.15625 180.230469 228.789062 C 179.304688 230.699219 178.683594 232.769531 177.277344 234.414062 C 175.339844 233.558594 173.390625 232.410156 171.453125 231.550781 C 170.203125 231.816406 169.410156 230.859375 168.480469 230.382812 C 167.003906 229.617188 166.6875 228.390625 167.410156 226.8125 Z M 125.953125 297.273438 C 126.285156 298.015625 125.832031 298.460938 125.347656 298.976562 C 125.566406 298.402344 125.734375 297.847656 125.953125 297.273438 Z M 136.339844 312.519531 C 135 311.929688 133.867188 311.007812 132.46875 310.683594 C 129.925781 310.335938 127.820312 308.839844 125.78125 307.492188 C 124.167969 305.890625 125.871094 303.453125 126.476562 301.75 C 127.707031 298.390625 129.640625 295.132812 130.175781 291.550781 C 129.703125 291.167969 129.128906 291.484375 128.730469 291.128906 C 130.707031 286.777344 133.328125 282.792969 135.089844 278.359375 C 136.210938 276.480469 137.335938 274.605469 138.148438 272.566406 C 139.359375 270.886719 139.78125 268.910156 140.632812 267.09375 C 141.554688 265.960938 141.570312 264.402344 142.5625 263.300781 C 143.824219 261.0625 144.675781 258.589844 145.71875 256.269531 C 147.136719 253.722656 148.152344 250.9375 149.234375 248.183594 C 150.980469 244.773438 152.132812 240.972656 154.496094 237.878906 C 156.492188 236.085938 157.570312 231.0625 160.996094 233.101562 C 161.777344 233.644531 162.824219 233.589844 163.507812 234.175781 C 164.492188 235.164062 165.742188 235.558594 166.992188 235.949219 C 168.789062 236.628906 170.378906 237.644531 172.207031 238.253906 C 172.566406 238.390625 172.902344 238.476562 173.207031 238.753906 C 174.191406 239.746094 175.460938 240.1875 176.734375 240.625 C 177.574219 240.902344 178.207031 241.515625 178.847656 242.003906 C 179.390625 242.414062 179.261719 243.1875 179.164062 243.769531 C 178.769531 245.675781 178.304688 247.554688 177.890625 249.414062 C 176.980469 250.835938 176.3125 252.269531 176.171875 253.945312 C 176.015625 255.449219 175.066406 256.652344 174.667969 258.023438 C 174.644531 258.632812 174.527344 259.160156 173.902344 259.5 C 173.65625 259.613281 173.597656 259.878906 173.535156 260.144531 C 172.96875 262.726562 170.898438 264.613281 170.019531 267.039062 C 169.640625 268.046875 169.355469 269.007812 168.570312 269.78125 C 167.910156 270.433594 167.84375 271.480469 167.566406 272.320312 C 167.09375 273.785156 166.359375 275.070312 165.886719 276.535156 C 165.871094 276.902344 165.714844 277.210938 165.4375 277.394531 C 164.761719 277.878906 164.5625 278.625 164.484375 279.375 C 164.09375 281.164062 162.488281 282.363281 162.121094 284.199219 C 160.335938 287.390625 158.785156 290.832031 157 294.023438 C 156.574219 296.125 155.238281 297.921875 154.597656 299.9375 C 154.003906 301.9375 152.792969 303.617188 152.273438 305.640625 C 151.214844 307.667969 149.394531 309.320312 148.910156 311.6875 C 148.738281 312.363281 148.199219 313.023438 147.832031 313.664062 C 147.730469 313.832031 147.507812 313.871094 147.289062 313.910156 C 143.527344 315.367188 139.957031 313.394531 136.371094 312.324219 Z M 130.910156 327.613281 C 130.324219 327.636719 129.792969 327.519531 129.429688 326.847656 C 129.117188 326.152344 128.171875 326.042969 127.664062 325.4375 C 127.3125 325.058594 126.859375 324.84375 126.785156 324.28125 C 126.738281 324.183594 126.671875 324.035156 126.628906 323.933594 C 125.492188 323.132812 125.496094 321.820312 125.054688 320.707031 C 124.742188 320.011719 125.011719 319.292969 124.945312 318.609375 C 124.902344 318.386719 125.078125 318.25 125.253906 318.109375 C 126.277344 316.933594 127.980469 317 129.023438 315.875 C 130.808594 316.265625 132.230469 317.171875 133.847656 317.578125 C 134.777344 318.054688 136.328125 317.65625 136.417969 319.046875 C 136.652344 321.027344 138.296875 322.554688 137.941406 324.683594 C 137.574219 327.175781 132.941406 327.355469 130.9375 327.542969 Z M 130.910156 327.613281 " fill-opacity="1" fill-rule="nonzero"/></g></g></g><g clip-path="url(#ea80533e04)"><g clip-path="url(#bab2afd1be)"><g clip-path="url(#971f42a3c9)"><path fill="#000001" d="M 205.542969 205.515625 C 208.429688 205.167969 211.285156 205.015625 214.160156 204.914062 C 219.648438 204.648438 224.472656 202.117188 229.421875 200.125 C 230.605469 199.832031 231.65625 199.121094 232.859375 198.875 C 233.816406 198.621094 234.515625 197.652344 235.519531 197.5 C 236.699219 197.207031 237.046875 195.855469 238.160156 195.414062 C 240.984375 194.140625 243.527344 192.101562 245.425781 189.695312 C 246.320312 189.292969 246.761719 188.554688 247.183594 187.769531 C 247.316406 187.53125 247.519531 187.320312 247.714844 187.230469 C 248.679688 186.855469 249.03125 186.042969 249.308594 185.199219 C 249.476562 184.648438 249.761719 184.222656 250.210938 183.898438 C 251.167969 183.109375 251.726562 181.964844 252.589844 181.097656 C 253.15625 180.367188 252.933594 179.210938 254.019531 178.84375 C 254.871094 178.21875 254.476562 176.546875 255.402344 175.953125 C 256.53125 175.144531 256.375 173.605469 257.308594 172.765625 C 257.433594 172.648438 257.449219 172.285156 257.386719 172.015625 C 257.226562 171.132812 257.59375 170.488281 258.0625 169.800781 C 258.785156 168.761719 259.25 167.539062 259.398438 166.277344 C 259.515625 165.089844 259.929688 163.890625 259.664062 162.636719 C 260.128906 160.222656 260.8125 157.765625 260.230469 155.28125 C 259.707031 153.726562 260.671875 152.160156 260.050781 150.648438 C 259.390625 145.339844 258.246094 139.890625 256.210938 134.839844 C 255.226562 132.660156 254.167969 130.570312 253.136719 128.410156 C 251.433594 125.957031 249.53125 123.589844 247.878906 121.113281 C 246.777344 119.460938 245.394531 118.117188 244.1875 116.632812 C 242.617188 114.597656 240.117188 113.8125 238.410156 112.015625 C 236.71875 111.703125 235.777344 110.277344 234.324219 109.5625 C 232.5 108.832031 230.847656 107.546875 228.890625 107.175781 C 227.703125 107.054688 226.601562 106.597656 225.527344 106.066406 C 223.910156 105.125 222.117188 104.980469 220.351562 104.640625 C 219.730469 104.324219 219.105469 104.128906 218.394531 104.269531 C 216.515625 103.804688 214.539062 103.261719 212.535156 103.449219 C 211.902344 103.496094 211.171875 103.464844 210.523438 103.222656 C 208.179688 102.785156 205.75 103.34375 203.351562 103.054688 C 202.5 103.019531 201.84375 103.550781 201.015625 103.566406 C 199.117188 103.589844 197.285156 104.292969 195.386719 104.3125 C 195.144531 104.304688 194.875 104.367188 194.648438 104.527344 C 192.109375 105.910156 189.171875 106.277344 186.542969 107.460938 C 185.898438 107.753906 185.125 107.625 184.753906 108.386719 C 183.714844 108.199219 183.105469 108.832031 182.609375 109.59375 C 182.535156 109.6875 182.363281 109.703125 182.265625 109.75 C 179.621094 111.296875 176.511719 112.339844 174.417969 114.714844 C 173.855469 115.445312 173.214844 116.152344 172.277344 116.453125 C 171.859375 116.582031 171.652344 116.914062 171.394531 117.269531 C 170.691406 118.363281 170.179688 119.609375 168.984375 120.265625 C 168.636719 120.421875 168.480469 120.730469 168.535156 121.125 C 168.5625 121.707031 168.230469 122.035156 167.851562 122.386719 C 166.742188 123.363281 165.625 124.464844 164.9375 125.847656 C 164.722656 126.300781 164.34375 126.652344 164.039062 127.027344 C 163.882812 127.21875 163.824219 127.480469 163.441406 127.296875 C 163.789062 125.945312 164.734375 124.867188 165.378906 123.382812 C 163.679688 124.382812 163.179688 125.921875 162.171875 127.390625 C 159.082031 132.183594 157.363281 137.375 157.03125 143.128906 C 155.734375 147.53125 155.425781 152.144531 155.925781 156.695312 C 155.519531 159.503906 156.363281 162.164062 156.882812 164.914062 C 157.203125 167.214844 158.265625 169.300781 158.707031 171.609375 C 159.875 176.453125 162.769531 180.757812 165.402344 184.878906 C 167.121094 187.503906 169.621094 189.480469 171.722656 191.757812 C 175.058594 195.324219 179.523438 197.550781 183.710938 199.957031 C 186.152344 201.542969 188.804688 202.792969 191.679688 203.347656 C 192.335938 203.351562 192.769531 204.050781 193.484375 203.90625 C 194.386719 203.796875 195.257812 204.003906 196.125 204.210938 C 199.238281 204.894531 202.464844 205.707031 205.613281 205.542969 Z M 200.273438 200.3125 C 195.78125 200.007812 191.554688 198.035156 187.332031 196.476562 C 184.101562 195.664062 181.378906 193.730469 178.652344 191.914062 C 176.960938 190.410156 175.300781 188.710938 173.613281 187.085938 C 171.625 185.058594 169.15625 183.546875 167.871094 180.960938 C 164.679688 176.792969 163.027344 171.929688 162.011719 166.898438 C 160.753906 164.898438 160.578125 162.652344 160.59375 160.4375 C 160.367188 157.019531 159.96875 153.621094 159.863281 150.207031 C 159.777344 145.117188 162.996094 140.742188 164.839844 136.09375 C 169.304688 127.996094 175.910156 121.203125 183.632812 116.230469 C 185.109375 115.269531 186.808594 114.800781 188.164062 113.710938 C 188.566406 113.410156 189.054688 113.429688 189.449219 113.253906 C 193.296875 111.460938 197.46875 110.65625 201.589844 109.871094 C 203.570312 109.636719 205.496094 109.542969 207.484375 109.183594 C 207.925781 109.105469 208.316406 109.046875 208.726562 109.160156 C 210.027344 109.53125 211.304688 109.191406 212.730469 108.910156 C 214.351562 110.386719 216.722656 109.558594 218.605469 110.558594 C 218.746094 110.613281 218.964844 110.695312 219.085938 110.699219 C 220.597656 110.613281 221.832031 111.371094 223.175781 111.839844 C 225.230469 112.285156 227.246094 112.929688 229.265625 113.570312 C 229.75 113.710938 230.199219 114.046875 230.714844 113.871094 C 230.765625 113.847656 230.886719 113.855469 230.957031 113.882812 C 233.601562 115.375 236.421875 116.609375 238.824219 118.628906 C 239.863281 119.476562 240.695312 120.53125 241.605469 121.492188 C 241.957031 121.871094 241.785156 122.546875 242.109375 122.878906 C 242.976562 123.738281 243.265625 125.042969 244.179688 125.882812 C 245.171875 127.285156 245.6875 128.960938 246.976562 130.230469 C 248.675781 133.34375 250.789062 136.449219 251.691406 140.039062 C 252.03125 141.316406 253.132812 142.3125 252.980469 143.695312 C 252.976562 143.816406 252.992188 143.984375 253.039062 144.085938 C 253.6875 144.867188 253.578125 145.8125 253.734375 146.695312 C 253.824219 148.085938 254.648438 149.386719 254.277344 150.804688 C 254.167969 151.09375 254.175781 151.507812 254.257812 151.828125 C 254.714844 153.234375 254.339844 154.65625 254.257812 156.0625 C 254.109375 159.175781 254.714844 162.242188 253.402344 165.160156 C 253.132812 165.878906 253.246094 166.664062 253.09375 167.386719 C 252.660156 169.074219 251.703125 170.519531 251.125 172.152344 C 250.363281 174.167969 249.007812 175.792969 247.910156 177.597656 C 245.414062 182.121094 241.804688 185.894531 237.800781 189.191406 C 236.597656 190.09375 235.597656 191.316406 234.507812 192.34375 C 232.5 193.3125 230.917969 195.097656 228.773438 195.765625 C 227.195312 196.238281 225.769531 197.175781 224.128906 197.378906 C 223.566406 197.453125 223.019531 197.699219 222.519531 198.042969 C 221.621094 198.566406 220.730469 198.96875 219.679688 199.027344 C 217.238281 199.828125 214.652344 199.917969 212.105469 200.351562 C 208.207031 200.972656 204.261719 200.421875 200.347656 200.339844 Z M 200.273438 200.3125 " fill-opacity="1" fill-rule="nonzero"/></g></g></g></svg>