<svg xmlns="http://www.w3.org/2000/svg" xmlns:xlink="http://www.w3.org/1999/xlink" width="500" zoomAndPan="magnify" viewBox="0 0 375 374.999991" height="500" preserveAspectRatio="xMidYMid meet" version="1.0"><defs><clipPath id="721e6b6f38"><path d="M 100 301 L 325.054688 301 L 325.054688 341 L 100 341 Z M 100 301 " clip-rule="nonzero"/></clipPath><clipPath id="ad11cbdc88"><path d="M 29.554688 290 L 55 290 L 55 307 L 29.554688 307 Z M 29.554688 290 " clip-rule="nonzero"/></clipPath></defs><rect x="-37.5" width="450" fill="#ffffff" y="-37.499999" height="449.999989" fill-opacity="1"/><rect x="-37.5" width="450" fill="#ffffff" y="-37.499999" height="449.999989" fill-opacity="1"/><path fill="#efe3d4" d="M 314.933594 75.507812 C 314.195312 73.476562 313.394531 71.386719 312.535156 69.359375 C 311.246094 67.820312 311.183594 65.609375 309.460938 64.378906 C 306.449219 62.289062 304.113281 59.339844 301.226562 57.371094 C 298.828125 53.742188 294.953125 50.976562 291.695312 48.085938 C 291.082031 47.535156 290.160156 47.65625 289.667969 47.042969 C 288.871094 46.058594 287.394531 46.058594 286.71875 44.890625 C 285.796875 44.707031 285.179688 44.089844 284.566406 43.476562 C 283.335938 41.695312 281.371094 41.386719 279.894531 40.035156 C 279.402344 39.664062 278.910156 39.234375 278.234375 39.234375 C 276.574219 38.375 274.792969 37.269531 273.195312 36.222656 C 270.367188 35.976562 268.339844 32.902344 265.386719 33.886719 C 264.773438 34.007812 264.28125 33.886719 263.730469 33.578125 C 258.503906 31.425781 252.972656 35.976562 248.238281 37.945312 C 240.433594 41.507812 235.820312 48.703125 230.226562 54.789062 C 217.136719 66.59375 209.019531 83.128906 196.175781 95.058594 C 192.546875 98.007812 189.660156 101.820312 186.523438 105.324219 C 184.863281 107.289062 184.1875 110.058594 181.730469 111.410156 C 179.453125 115.097656 175.890625 117.988281 173.921875 121.921875 C 163.472656 134.648438 153.761719 148.050781 143.003906 160.40625 C 133.597656 173.195312 123.519531 185.738281 113.128906 197.726562 C 107.964844 206.269531 102.433594 214.878906 97.210938 223.359375 C 97.023438 224.835938 95.550781 225.757812 95.734375 227.417969 C 95.734375 228.523438 94.6875 229.261719 94.503906 230.308594 C 92.785156 236.824219 89.957031 243.035156 87.988281 249.304688 C 87.496094 253.054688 84.976562 256.558594 85.160156 260.246094 C 83.5625 265.84375 81.902344 271.804688 80.058594 277.460938 C 78.277344 283.976562 75.082031 290.066406 74.527344 296.949219 C 74.648438 300.332031 72.867188 303.589844 73.421875 306.910156 C 73.421875 310.105469 71.085938 313.980469 74.21875 316.378906 C 75.386719 317.421875 76.003906 319.082031 77.601562 319.636719 C 77.96875 319.757812 78.277344 320.1875 78.523438 320.558594 C 78.644531 320.742188 78.769531 320.988281 79.015625 321.050781 C 80.121094 321.171875 80.980469 321.972656 81.78125 322.585938 C 84.730469 324.738281 88.789062 322.710938 91.863281 321.601562 C 95.796875 319.390625 100.835938 318.222656 103.726562 314.65625 C 104.339844 313.488281 105.324219 313.425781 106.429688 312.996094 C 108.640625 311.890625 110.546875 310.230469 113.007812 309.675781 C 115.160156 308.078125 117.800781 307.402344 119.828125 305.742188 C 126.160156 303.464844 131.261719 298.980469 137.226562 295.90625 C 139.132812 294.921875 141.035156 294.0625 142.449219 292.339844 C 144.539062 291.046875 147.121094 289.941406 148.90625 288.160156 C 149.027344 287.542969 149.457031 287.238281 150.011719 287.175781 C 152.164062 286.558594 153.578125 284.53125 154.621094 282.625 C 156.035156 282.320312 158.003906 283.117188 158.1875 281.027344 C 158.1875 280.90625 158.371094 280.78125 158.492188 280.71875 C 159.230469 280.472656 159.414062 279.796875 159.722656 279.183594 C 160.277344 277.769531 162.429688 278.078125 162.429688 276.230469 C 162.671875 275.863281 163.410156 275.679688 163.472656 275.125 C 163.65625 274.082031 164.824219 274.203125 165.378906 273.527344 C 166.609375 272.359375 167.53125 270.945312 168.945312 269.960938 C 169.433594 268.484375 171.339844 268.238281 171.769531 266.765625 C 171.894531 264.980469 174.539062 266.148438 174.78125 264.367188 C 175.214844 263.382812 176.503906 263.566406 176.382812 262.03125 C 178.226562 262.03125 178.71875 260.1875 179.886719 259.324219 C 182.957031 256.4375 185.96875 253.484375 189.042969 250.597656 C 197.34375 242.542969 203.121094 232.460938 210.25 223.605469 C 216.335938 216.660156 222.359375 209.714844 228.324219 202.457031 C 233.671875 196.433594 237.421875 188.996094 243.257812 183.460938 C 243.996094 182.664062 243.691406 181.1875 244.917969 180.695312 C 247.070312 177.929688 249.097656 174.976562 251.679688 172.582031 C 253.339844 172.089844 253.03125 170.058594 254.261719 169.320312 C 257.335938 166.738281 259.488281 162.988281 262.5 160.222656 C 269.566406 151.492188 277.496094 143.195312 282.722656 133.296875 C 285.058594 131.636719 286.226562 129.054688 287.824219 126.78125 C 288.992188 125.488281 290.222656 124.257812 290.898438 122.597656 C 291.019531 122.351562 291.082031 122.046875 291.453125 121.984375 C 292.496094 121.859375 292.679688 121.0625 292.863281 120.203125 C 293.296875 117.128906 297.167969 116.082031 297.660156 112.886719 C 297.78125 112.332031 297.96875 111.839844 298.519531 111.59375 C 300.179688 110.609375 299.441406 107.90625 301.65625 107.351562 C 301.960938 107.292969 302.207031 107.046875 302.269531 106.738281 C 302.578125 105.140625 304.542969 104.769531 304.851562 103.171875 C 305.28125 102.125 306.574219 101.511719 306.695312 100.28125 C 307.0625 98.5625 308.417969 97.332031 308.910156 95.734375 C 308.96875 95.425781 309.214844 95.242188 309.523438 95.179688 C 311.550781 94.625 311.367188 92.476562 312.414062 91.121094 C 316.652344 87.1875 315.179688 80.734375 314.933594 75.570312 Z M 314.933594 75.507812 " fill-opacity="1" fill-rule="nonzero"/><path fill="#febf00" d="M 263.050781 126.472656 C 259.855469 123.828125 257.214844 120.445312 253.585938 118.417969 C 253.277344 118.789062 253.339844 119.21875 253.277344 119.585938 C 252.601562 123.398438 247.441406 120.078125 245.78125 118.542969 C 243.074219 115.960938 239.878906 113.683594 236.621094 111.71875 C 233.855469 110.855469 222.113281 99.359375 220.453125 103.234375 C 217.074219 106.921875 212.648438 109.566406 209.511719 113.378906 C 207.175781 114.605469 206.195312 117.375 203.917969 118.789062 C 202.691406 121.246094 200.167969 122.539062 198.570312 124.628906 C 195.191406 126.59375 193.898438 130.46875 191.316406 133.171875 C 186.214844 137.355469 181.667969 142.578125 176.011719 145.960938 C 175.890625 144.667969 176.257812 143.316406 175.089844 142.394531 C 176.8125 140.613281 177.917969 138.707031 177.609375 136.0625 C 167.285156 146.574219 162.671875 160.652344 155.175781 173.011719 C 153.207031 177.253906 159.722656 173.132812 152.59375 183.585938 C 147.183594 190.410156 143.003906 198.585938 136.242188 204.179688 C 132.738281 207.5625 129.050781 210.757812 125.914062 214.507812 C 125.421875 215.921875 124.316406 214.691406 123.457031 215.183594 C 121.675781 215.738281 121.183594 217.828125 119.707031 218.628906 C 116.816406 220.042969 115.589844 223.484375 112.882812 225.328125 C 113.992188 221.269531 119.398438 216.597656 122.289062 213.21875 C 123.457031 211.804688 124.5625 210.328125 125.730469 208.976562 C 128.375 207.683594 129.910156 204.855469 132 202.828125 C 132.492188 198.894531 135.382812 196.25 136.796875 192.4375 C 135.382812 193.175781 134.765625 194.652344 133.230469 194.589844 C 138.761719 174.976562 114.050781 210.328125 112.515625 213.464844 C 111.101562 217.214844 109.566406 221.023438 107.78125 224.527344 C 106.796875 228.710938 102.066406 234.613281 106.921875 238.054688 C 107.71875 238.054688 108.398438 237.5 109.195312 237.378906 C 111.164062 244.078125 113.5 238.484375 116.265625 239.652344 C 119.214844 241.128906 123.640625 241.988281 126.53125 240.082031 C 126.835938 239.835938 127.082031 239.652344 127.453125 239.835938 C 128.496094 240.082031 129.601562 239.34375 130.710938 239.835938 C 131.078125 243.464844 132.371094 246.722656 133.96875 250.042969 C 134.460938 251.273438 135.074219 251.457031 136.242188 250.71875 C 138.453125 249.550781 141.035156 249.429688 143.433594 248.75 C 145.339844 248.136719 146.324219 249.734375 147.921875 250.226562 C 150.257812 250.78125 149.152344 254.285156 150.257812 256.003906 C 153.144531 263.074219 171.21875 238.667969 176.257812 241.867188 C 179.699219 243.773438 171.832031 247.277344 171.402344 249.304688 C 169.433594 254.347656 162.671875 255.945312 161.136719 261.414062 C 163.042969 260.1875 164.949219 259.449219 166.054688 257.605469 C 166.667969 255.945312 168.453125 255.515625 169.679688 254.40625 C 170.234375 253.976562 170.601562 253.484375 170.417969 252.6875 C 170.601562 250.351562 173.984375 247.828125 175.828125 246.292969 C 180.5 242.726562 185.601562 239.898438 189.90625 235.71875 C 195.683594 229.015625 200.539062 221.640625 206.746094 215.308594 C 212.035156 209.898438 216.027344 203.566406 220.207031 197.355469 C 222.914062 193.667969 229.859375 191.332031 223.40625 187.089844 C 229.613281 179.160156 237.605469 172.582031 243.996094 164.835938 C 247.871094 161.085938 252.296875 158.070312 255.367188 153.582031 C 255.859375 153.09375 256.90625 153.03125 257.152344 152.230469 C 257.644531 150.570312 259.671875 150.386719 260.101562 148.664062 C 262.375 144.914062 266.496094 142.148438 267.847656 137.660156 C 268.15625 136.863281 268.277344 136.0625 267.96875 135.261719 C 267.046875 133.171875 268.953125 131.390625 269.136719 129.363281 C 266.925781 128.683594 264.652344 128.378906 262.929688 126.59375 Z M 108.886719 232.460938 C 109.378906 231.351562 109.625 230.183594 110.609375 229.261719 C 111.101562 230.246094 111.164062 231.230469 111.410156 232.398438 C 110.488281 232.152344 109.75 232.398438 108.949219 232.398438 Z M 239.632812 159.238281 C 230.660156 168.523438 224.019531 179.710938 216.089844 189.792969 C 215.167969 190.59375 214.125 190.65625 213.261719 190.101562 C 211.050781 188.6875 217.566406 183.03125 218.117188 180.820312 C 216.644531 179.464844 217.503906 178.359375 218.550781 177.128906 C 219.59375 176.023438 220.269531 174.609375 221.5625 173.6875 C 224.328125 168.523438 228.753906 164.648438 232.5625 160.46875 C 236.3125 158.070312 239.078125 151.371094 244.121094 152.476562 C 243.503906 155.367188 241.539062 157.332031 239.632812 159.238281 Z M 239.632812 159.238281 " fill-opacity="1" fill-rule="nonzero"/><path fill="#febf00" d="M 243.015625 105.261719 C 246.515625 106.800781 249.222656 109.566406 252.542969 111.285156 C 249.960938 107.660156 245.347656 106.0625 241.539062 103.601562 C 241.96875 104.402344 242.335938 104.894531 242.953125 105.199219 Z M 243.015625 105.261719 " fill-opacity="1" fill-rule="nonzero"/><path fill="#febf00" d="M 269.507812 122.597656 C 269.691406 123.335938 269.8125 124.074219 270.492188 124.628906 C 270.796875 123.089844 270.734375 122.96875 269.507812 122.597656 Z M 269.507812 122.597656 " fill-opacity="1" fill-rule="nonzero"/><path fill="#d755b3" d="M 302.882812 78.703125 C 301.347656 71.632812 294.648438 71.574219 290.773438 67.144531 C 290.652344 64.6875 288.808594 63.210938 287.269531 61.550781 C 283.953125 55.835938 278.417969 50.730469 271.84375 49.195312 C 271.289062 49.5 271.597656 49.933594 271.226562 50.238281 C 268.03125 49.992188 270.675781 54.421875 272.027344 55.527344 C 276.820312 59.339844 281.984375 62.84375 286.101562 67.390625 C 287.148438 68.558594 288.378906 69.234375 289.976562 68.804688 C 291.820312 68.558594 295.445312 74.644531 296.121094 76.183594 C 295.324219 76.183594 294.832031 75.324219 294.03125 75.382812 C 292.988281 75.382812 292.679688 74.644531 292.375 73.847656 C 291.019531 72.863281 289.605469 71.632812 288.007812 71.140625 C 287.457031 71.019531 287.269531 70.589844 287.027344 70.160156 C 277.929688 61.675781 265.203125 56.203125 252.480469 57.371094 C 247.007812 57.679688 246.085938 64.5625 241.722656 66.839844 C 240.554688 67.945312 235.699219 69.480469 236.4375 71.140625 C 237.050781 72.863281 238.15625 74.09375 240 74.460938 C 243.8125 75.8125 246.703125 79.011719 249.960938 81.347656 C 249.773438 82.148438 249.835938 82.761719 250.574219 83.253906 C 251.25 84.359375 251.25 85.710938 252.726562 86.328125 C 252.417969 87.3125 252.542969 88.171875 253.339844 88.847656 C 253.585938 89.03125 253.523438 89.402344 253.339844 89.648438 C 252.664062 91.0625 253.15625 92.289062 253.832031 93.519531 C 254.632812 94.566406 254.078125 96.472656 255.554688 96.839844 C 258.074219 98.5 260.164062 101.328125 263.238281 102.003906 C 264.710938 102.003906 266.371094 102.25 267.664062 101.511719 C 268.523438 100.835938 269.507812 100.898438 270.429688 101.082031 C 275.101562 102.003906 279.832031 103.480469 284.503906 104.21875 C 288.007812 106.367188 289.730469 102.3125 291.574219 100.097656 C 292.925781 99.359375 293.296875 97.578125 294.277344 96.410156 C 297.167969 90.691406 303.5 85.589844 302.882812 78.703125 Z M 302.882812 78.703125 " fill-opacity="1" fill-rule="nonzero"/><g clip-path="url(#721e6b6f38)"><path fill="#7460e4" d="M 324.765625 320.375 C 316.59375 325.046875 307.496094 327.628906 298.582031 330.210938 C 296.613281 331.683594 294.15625 330.210938 292.003906 331.316406 C 290.652344 331.5 289.238281 331.191406 287.886719 331.746094 C 285.671875 331.5625 283.769531 332.976562 281.675781 331.871094 C 279.28125 331.378906 275.59375 332.605469 273.871094 330.457031 C 274.671875 329.347656 276.636719 329.777344 277.25 328.242188 C 277.621094 327.875 278.480469 327.996094 278.726562 327.441406 C 278.972656 327.011719 279.34375 326.953125 279.832031 326.953125 C 282.355469 326.890625 282.96875 324.183594 284.875 323.199219 C 286.289062 322.769531 286.71875 321.355469 287.640625 320.3125 C 288.929688 319.511719 288.683594 317.976562 289.359375 316.929688 C 290.773438 311.890625 287.027344 305.925781 283.277344 302.667969 C 280.019531 300.699219 276.023438 302.238281 272.824219 303.28125 C 265.449219 303.898438 257.152344 309.859375 255.554688 317.421875 C 254.140625 323.199219 254.691406 321.234375 256.289062 326.644531 C 255.738281 327.441406 254.878906 327.136719 254.261719 327.320312 C 253.464844 327.566406 252.664062 328.179688 251.742188 327.996094 C 249.898438 327.566406 248.175781 328.734375 246.332031 328.425781 C 246.210938 328.425781 246.027344 328.425781 245.902344 328.550781 C 245.226562 329.289062 244.488281 329.101562 243.628906 328.917969 C 240 329.289062 236.3125 329.410156 232.6875 328.855469 C 231.828125 328.855469 230.964844 329.472656 230.226562 328.796875 C 229.367188 327.996094 228.324219 328.609375 227.339844 328.304688 C 222.359375 327.382812 217.382812 325.722656 212.832031 323.816406 C 210.3125 321.355469 206.746094 320.066406 203.550781 319.082031 C 198.511719 318.589844 193.46875 317.851562 188.429688 318.773438 C 187.875 318.773438 187.261719 318.773438 186.832031 319.328125 C 186.648438 319.511719 186.402344 319.574219 186.15625 319.511719 C 184.863281 319.207031 183.757812 319.820312 182.527344 320.066406 C 179.148438 321.171875 175.707031 322.03125 172.261719 322.710938 C 169.375 325.046875 165.6875 324.675781 162.488281 325.722656 C 161.9375 326.398438 161.261719 326.398438 160.523438 326.398438 C 158.492188 326.398438 156.527344 327.136719 154.804688 328.242188 C 152.898438 328.609375 150.808594 328.242188 148.90625 329.289062 C 147.921875 329.777344 146.875 330.394531 145.648438 330.394531 C 142.574219 330.640625 139.007812 330.023438 136.304688 331.5 C 134.152344 331.253906 132.246094 331.871094 130.21875 331.929688 C 128.3125 331.007812 126.652344 332.605469 124.871094 332.484375 C 123.085938 331.746094 121.613281 332.976562 119.953125 333.160156 C 116.878906 332.238281 113.5 333.097656 110.488281 331.746094 C 110.242188 331.5625 109.808594 331.625 109.503906 331.746094 C 107.71875 332.054688 107.167969 329.839844 105.691406 329.164062 C 104.277344 328.242188 104.15625 326.582031 102.679688 325.539062 C 101.019531 327.503906 99.546875 330.085938 100.46875 332.667969 C 101.082031 333.46875 101.636719 334.328125 101.511719 335.433594 C 109.871094 343.425781 129.296875 339.617188 140.113281 338.816406 C 143.679688 339 146.816406 337.28125 150.320312 336.972656 C 154.128906 337.15625 157.386719 334.945312 161.074219 334.882812 C 162.917969 334.882812 164.210938 333.835938 165.871094 333.40625 C 167.652344 333.40625 169.1875 332.421875 170.789062 331.808594 C 173.125 330.640625 175.707031 331.132812 178.039062 329.964844 C 186.214844 327.011719 195.4375 325.539062 204.105469 327.257812 C 206.070312 327.933594 207.238281 330.023438 209.511719 330.148438 C 210.128906 330.269531 210.867188 330.394531 211.296875 331.007812 C 215.722656 334.574219 222.296875 334.945312 227.644531 336.417969 C 238.710938 338.261719 250.082031 337.15625 260.902344 335.128906 C 264.773438 333.652344 267.664062 337.710938 271.472656 338.140625 C 275.160156 338.816406 278.972656 340.351562 282.722656 340.351562 C 284.933594 339.617188 287.210938 340.230469 289.484375 340.046875 C 291.574219 339.738281 293.664062 339.183594 295.691406 338.695312 C 297.046875 338.140625 298.335938 337.28125 299.933594 337.585938 C 301.285156 337.585938 302.269531 336.171875 303.683594 336.171875 C 310.8125 332.484375 322.492188 328.980469 325.011719 320.558594 C 324.828125 320.558594 324.707031 320.617188 324.644531 320.679688 Z M 269.8125 322.648438 C 268.523438 322.894531 267.785156 324.675781 266.371094 324.246094 C 265.695312 324 265.328125 324.613281 264.527344 324.800781 C 263.789062 322.957031 261.882812 321.109375 262.5625 319.019531 C 264.097656 316.316406 266.003906 314.101562 268.277344 312.074219 C 268.585938 311.644531 269.078125 311.398438 269.566406 311.457031 C 273.378906 310.96875 275.039062 308.691406 279.464844 309.613281 C 282.785156 310.535156 280.632812 315.085938 279.15625 316.929688 C 276.390625 319.449219 273.316406 321.542969 269.753906 322.648438 Z M 269.8125 322.648438 " fill-opacity="1" fill-rule="nonzero"/></g><g clip-path="url(#ad11cbdc88)"><path fill="#7460e4" d="M 50.617188 299.285156 C 48.402344 298.488281 47.113281 296.152344 44.898438 295.414062 C 41.640625 294.121094 39.304688 289.695312 35.554688 290.617188 C 34.757812 291.96875 34.574219 293.691406 33.035156 294.550781 C 32.359375 295.351562 32.175781 296.398438 32.175781 297.320312 C 31.316406 298.058594 29.59375 298.242188 29.960938 299.714844 C 30.515625 301.808594 31.746094 305.1875 34.511719 304.757812 C 36.417969 303.835938 38.382812 305.617188 40.410156 305.558594 C 42.195312 305.558594 43.914062 305.988281 45.636719 306.292969 C 46.867188 305.925781 48.15625 306.171875 49.386719 306.292969 C 54.796875 306.601562 55.777344 301.191406 50.675781 299.347656 Z M 50.617188 299.285156 " fill-opacity="1" fill-rule="nonzero"/></g><path fill="#7460e4" d="M 57.378906 280.351562 C 56.824219 278.628906 56.515625 272.421875 55.289062 271.867188 C 54.179688 271.746094 53.136719 271.375 52.03125 271.929688 C 49.324219 273.589844 43.425781 272.667969 43.609375 277.09375 C 44.777344 281.582031 48.527344 284.59375 51.046875 288.21875 C 51.722656 290.003906 53.875 290.125 54.613281 291.601562 C 54.796875 292.339844 55.347656 292.585938 55.964844 292.769531 C 63.339844 294.738281 57.4375 283.855469 57.378906 280.351562 Z M 57.378906 280.351562 " fill-opacity="1" fill-rule="nonzero"/><path fill="#000001" d="M 300.917969 79.566406 C 298.027344 66.347656 283.644531 61.429688 274.976562 52.820312 C 277.558594 54.050781 279.464844 56.449219 282.355469 57.1875 C 278.113281 50.976562 268.277344 44.890625 260.472656 44.523438 C 254.816406 43.722656 250.328125 47.597656 246.457031 51.285156 C 240.125 57.0625 235.269531 64.257812 230.351562 71.203125 C 229.367188 73.109375 226.910156 72.125 225.800781 73.910156 C 226.046875 75.445312 228.261719 76 227.769531 77.535156 C 225.800781 75.445312 224.265625 77.84375 222.175781 77.78125 C 219.347656 77.414062 219.285156 80.855469 217.320312 82.148438 C 214.859375 83.929688 216.152344 87.988281 213.878906 89.769531 C 211.726562 91.613281 212.09375 94.996094 209.820312 96.71875 C 203.613281 103.664062 198.632812 111.59375 191.871094 118.050781 C 190.027344 119.894531 188.246094 121.859375 187.078125 124.199219 C 184.371094 127.761719 180.683594 130.46875 178.042969 134.15625 C 176.441406 136.554688 174.476562 138.582031 172.691406 140.734375 C 169.191406 146.207031 165.132812 151.308594 161.261719 156.472656 C 159.109375 157.457031 159.785156 160.40625 158.1875 161.636719 C 155.234375 162.558594 155.480469 165.941406 153.390625 167.539062 C 140.851562 182.96875 129.664062 199.445312 117.125 214.9375 C 124.132812 201.289062 134.890625 189.734375 144.292969 177.621094 C 145.214844 175.898438 149.210938 172.519531 148.535156 170.796875 C 137.347656 182.234375 128.128906 195.511719 119.277344 208.851562 C 114.359375 217.273438 108.703125 225.265625 105.570312 234.550781 C 99.851562 247.277344 93.152344 260 90.386719 273.648438 C 91.0625 273.527344 90.941406 272.605469 91.675781 272.359375 C 87.804688 281.335938 85.101562 290.742188 82.949219 300.207031 C 81.65625 304.449219 79.320312 311.089844 84.792969 313.242188 C 90.753906 313.550781 95.367188 308.445312 100.589844 306.171875 C 108.886719 301.191406 116.570312 295.476562 125.238281 290.988281 C 133.105469 286.558594 140.113281 280.71875 147.738281 275.925781 C 148.84375 275.925781 149.152344 274.816406 149.949219 274.449219 C 152.46875 273.957031 153.515625 271.128906 155.667969 269.898438 C 160.890625 265.351562 165.746094 260.246094 169.804688 254.652344 C 172.570312 252.933594 173.617188 249.488281 176.074219 247.582031 C 179.394531 245.0625 180.683594 240.699219 183.757812 237.808594 C 193.164062 227.664062 201.890625 216.90625 211.417969 206.886719 C 215.722656 202.644531 219.285156 197.785156 222.667969 192.808594 C 222.914062 192.4375 223.222656 192.070312 222.667969 191.636719 C 218.488281 194.34375 216.335938 198.769531 212.21875 201.660156 C 212.035156 198.894531 215.046875 199.140625 215.660156 196.863281 C 220.699219 191.394531 225.003906 185.121094 230.167969 179.773438 C 239.078125 169.628906 247.625 158.871094 256.046875 148.359375 C 258.566406 144.546875 262.316406 141.59375 264.28125 137.355469 C 265.878906 133.605469 269.753906 130.53125 269.199219 126.101562 C 270.613281 120.203125 265.328125 114.730469 261.699219 110.550781 C 261.515625 110.363281 261.148438 110.304688 261.394531 109.875 C 264.589844 112.023438 267.476562 114.605469 270.796875 116.511719 C 271.226562 116.757812 271.351562 117.066406 271.351562 117.621094 C 271.351562 119.402344 271.902344 120.9375 272.886719 122.414062 C 273.132812 123.03125 273.992188 124.257812 274.609375 123.214844 C 275.285156 121.492188 276.882812 120.324219 277.558594 118.601562 C 278.296875 116.820312 281.1875 117.375 281.371094 115.039062 C 281.675781 113.625 282.230469 112.269531 281.800781 110.796875 C 281.675781 110.425781 281.554688 109.996094 281.984375 109.6875 C 283.277344 109.011719 282.292969 107.660156 283.152344 106.800781 C 288.992188 97.515625 299.320312 91.0625 301.101562 79.566406 Z M 273.195312 51.46875 C 273.195312 51.46875 273.257812 51.652344 273.316406 51.714844 C 272.703125 52.082031 272.640625 50.976562 273.195312 51.46875 Z M 223.710938 85.21875 C 229.367188 88.847656 234.46875 94.257812 239.019531 99.238281 C 240.308594 101.082031 242.523438 100.222656 242.582031 103.417969 C 234.839844 99.421875 229.492188 92.476562 222.296875 87.679688 C 222.542969 86.757812 223.035156 85.957031 223.710938 85.28125 Z M 141.035156 273.28125 C 137.164062 275.1875 134.214844 278.445312 130.09375 279.980469 C 129.910156 280.042969 129.664062 279.980469 129.542969 280.167969 C 128.621094 281.457031 126.898438 281.640625 125.855469 282.808594 C 122.597656 284.902344 119.339844 287.113281 116.203125 289.449219 C 114.667969 290.1875 113.191406 291.109375 112.085938 292.402344 C 111.222656 292.953125 110.179688 293.015625 109.566406 293.9375 C 106.367188 297.320312 106.613281 288.34375 93.273438 285.269531 C 98.625 270.515625 103.785156 255.453125 110.792969 241.496094 C 110.546875 239.898438 111.902344 238.976562 112.269531 237.683594 C 112.453125 237.007812 112.882812 236.886719 113.5 237.007812 C 117.925781 238.609375 123.027344 236.761719 127.144531 238.730469 C 126.101562 244.941406 125.054688 252.6875 128.558594 258.15625 C 131.015625 259.324219 134.152344 257.664062 136.609375 256.929688 C 138.945312 256.25 140.546875 253.914062 143.066406 254.039062 C 143.371094 259.570312 145.523438 264.734375 145.402344 270.390625 C 143.925781 271.375 142.574219 272.480469 140.914062 273.21875 Z M 197.035156 219.550781 C 196.726562 219.058594 197.097656 218.933594 197.402344 218.503906 C 197.589844 219.242188 197.34375 219.363281 197.035156 219.550781 Z M 202.75 212.296875 C 202.75 211.761719 203.039062 211.394531 203.613281 211.1875 C 203.613281 211.742188 203.183594 211.988281 202.75 212.296875 Z M 254.753906 147.128906 C 252.789062 149.34375 251.679688 152.109375 249.039062 153.644531 C 250.699219 150.570312 252.789062 148.480469 254.570312 145.53125 C 255.183594 146.207031 255.125 146.699219 254.753906 147.128906 Z M 261.148438 128.253906 C 259.363281 130.53125 258.6875 133.542969 256.78125 135.695312 C 254.507812 138.214844 252.355469 140.917969 250.144531 143.5 C 245.78125 148.359375 241.96875 153.707031 237.726562 158.441406 C 232.011719 165.941406 225.433594 172.886719 220.085938 180.632812 C 219.164062 182.292969 217.996094 184.078125 216.335938 185.121094 C 216.152344 185.183594 216.027344 185.492188 215.96875 185.738281 C 215.722656 187.152344 213.9375 187.089844 213.570312 188.320312 C 212.585938 192.316406 208.34375 194.34375 206.871094 197.972656 C 206.625 199.199219 205.332031 199.507812 204.78125 200.492188 C 203.242188 202.027344 201.769531 203.75 200.539062 205.53125 C 199.433594 207.4375 197.527344 208.605469 196.667969 210.636719 C 196.234375 211.371094 195.804688 212.050781 194.945312 212.234375 C 194.578125 212.296875 194.453125 212.664062 194.332031 212.972656 C 190.519531 218.195312 186.460938 223.117188 181.976562 227.726562 C 177.242188 234.242188 172.816406 240.945312 167.777344 247.277344 C 162.429688 252.992188 156.035156 257.417969 151.488281 263.996094 C 150.132812 260.308594 149.949219 256.375 148.964844 252.5625 C 148.472656 250.535156 148.84375 247.214844 145.894531 247.460938 C 141.46875 247.582031 138.148438 251.578125 133.96875 252.625 C 130.832031 252.625 132.308594 248.015625 132 245.984375 C 132.246094 239.46875 136.058594 228.957031 125.054688 231.539062 C 123.085938 230.554688 120.875 231.660156 118.96875 230.800781 C 117.679688 230.371094 116.757812 231.96875 115.527344 230.371094 C 117.984375 227.355469 120.015625 224.285156 122.105469 221.085938 C 123.457031 219.425781 125.421875 218.441406 125.976562 216.167969 C 126.652344 214.140625 128.558594 212.972656 129.542969 211.128906 C 130.15625 210.203125 130.648438 209.28125 131.753906 208.667969 C 132.738281 208.113281 133.046875 206.886719 133.597656 205.902344 C 144.046875 191.148438 155.605469 176.945312 165.929688 162.3125 C 174.414062 150.078125 185.046875 139.503906 193.714844 127.332031 C 196.421875 123.582031 199.617188 120.261719 202.75 116.882812 C 208.53125 110.488281 213.203125 102.988281 219.777344 97.332031 C 222.914062 98.4375 225.003906 101.636719 227.460938 103.726562 C 231.394531 107.105469 235.144531 110.917969 239.203125 114.300781 C 242.277344 116.636719 244.488281 121 248.730469 121.183594 C 248.730469 118.972656 247.5 117.621094 245.964844 116.328125 C 247.070312 115.40625 251.804688 120.9375 253.894531 121.554688 C 256.105469 122.96875 258.074219 124.933594 260.472656 126.101562 C 261.640625 126.59375 261.761719 127.148438 261.023438 128.132812 Z M 242.707031 103.417969 C 244.058594 103.355469 244.980469 104.648438 245.78125 105.570312 C 244.367188 105.386719 243.8125 104.03125 242.707031 103.417969 Z M 272.640625 109.382812 C 269.9375 106.738281 266.25 105.570312 263.484375 103.109375 C 260.347656 100.589844 257.027344 98.375 254.261719 95.425781 C 251.003906 92.84375 247.683594 90.382812 244.183594 88.234375 C 241.292969 87.554688 239.816406 84.359375 236.804688 84.175781 C 236.253906 81.839844 233.546875 82.332031 232.316406 80.546875 C 231.765625 79.808594 231.089844 79.132812 230.167969 78.886719 C 229.304688 78.457031 228.875 77.289062 227.707031 77.597656 C 229.492188 76.058594 231.394531 78.949219 232.933594 79.566406 C 234.46875 80.242188 235.945312 81.164062 237.234375 82.207031 C 250.265625 89.769531 261.882812 99.300781 273.070312 109.382812 C 272.828125 109.6875 272.640625 109.441406 272.582031 109.382812 Z M 292.496094 89.339844 C 288.871094 94.996094 284.011719 99.667969 280.140625 105.140625 C 275.59375 101.574219 271.042969 98.375 266.800781 94.320312 C 264.652344 91.796875 261.824219 90.199219 259.425781 88.109375 C 251.066406 82.515625 242.769531 76.304688 233.609375 72.308594 C 239.878906 65.179688 246.457031 52.820312 256.476562 51.59375 C 257.765625 50.914062 258.441406 52.328125 259.671875 52.453125 C 264.835938 53.496094 268.402344 58.046875 272.394531 61.121094 C 276.761719 64.316406 281.800781 67.023438 285.488281 71.140625 C 286.964844 72.617188 289.300781 73.171875 290.285156 75.199219 C 290.589844 76.058594 291.882812 76.121094 292.3125 76.738281 C 293.726562 80.734375 294.585938 85.34375 292.433594 89.214844 Z M 292.496094 89.339844 " fill-opacity="1" fill-rule="nonzero"/></svg>