<svg xmlns="http://www.w3.org/2000/svg" xmlns:xlink="http://www.w3.org/1999/xlink" width="500" zoomAndPan="magnify" viewBox="0 0 375 374.999991" height="500" preserveAspectRatio="xMidYMid meet" version="1.0"><defs><clipPath id="c40122e21a"><path d="M 81 69 L 313 69 L 313 317 L 81 317 Z M 81 69 " clip-rule="nonzero"/></clipPath><clipPath id="2f7ca59920"><path d="M 127.757812 17.664062 L 345.585938 116.617188 L 247.566406 332.394531 L 29.738281 233.445312 Z M 127.757812 17.664062 " clip-rule="nonzero"/></clipPath><clipPath id="a9705081fb"><path d="M 127.757812 17.664062 L 345.585938 116.617188 L 247.566406 332.394531 L 29.738281 233.445312 Z M 127.757812 17.664062 " clip-rule="nonzero"/></clipPath><clipPath id="7ba10194ed"><path d="M 89 82 L 300 82 L 300 306 L 89 306 Z M 89 82 " clip-rule="nonzero"/></clipPath><clipPath id="16b19c0e3b"><path d="M 127.757812 17.664062 L 345.585938 116.617188 L 247.566406 332.394531 L 29.738281 233.445312 Z M 127.757812 17.664062 " clip-rule="nonzero"/></clipPath><clipPath id="2df69af58c"><path d="M 127.757812 17.664062 L 345.585938 116.617188 L 247.566406 332.394531 L 29.738281 233.445312 Z M 127.757812 17.664062 " clip-rule="nonzero"/></clipPath><clipPath id="bdfcaee01c"><path d="M 94 81 L 302 81 L 302 305 L 94 305 Z M 94 81 " clip-rule="nonzero"/></clipPath><clipPath id="82fa1f4721"><path d="M 127.757812 17.664062 L 345.585938 116.617188 L 247.566406 332.394531 L 29.738281 233.445312 Z M 127.757812 17.664062 " clip-rule="nonzero"/></clipPath><clipPath id="d45b0b6fba"><path d="M 127.757812 17.664062 L 345.585938 116.617188 L 247.566406 332.394531 L 29.738281 233.445312 Z M 127.757812 17.664062 " clip-rule="nonzero"/></clipPath></defs><g clip-path="url(#c40122e21a)"><g clip-path="url(#2f7ca59920)"><g clip-path="url(#a9705081fb)"><path fill="#7460e4" d="M 310.878906 190.511719 C 311.699219 187.449219 313.28125 186.03125 312.28125 182.609375 C 311.78125 181.082031 312.226562 179.410156 311.496094 178.035156 C 310.710938 176.898438 310.179688 175.667969 309.226562 174.664062 C 308.027344 173.179688 306.445312 172.304688 305.003906 171.128906 C 303.945312 170.128906 302.734375 169.472656 301.398438 168.972656 C 300.648438 168.109375 299.535156 167.917969 298.523438 167.507812 C 296.390625 166.589844 294.371094 165.414062 292.0625 164.886719 C 288.160156 163.269531 284.234375 161.484375 279.96875 160.902344 C 277.628906 160.777344 276.109375 158.734375 273.738281 158.800781 C 272.238281 159.003906 271.1875 157.539062 269.742188 157.507812 C 268.535156 157.53125 267.457031 157.039062 266.378906 156.65625 C 265.652344 156.429688 264.902344 156.246094 264.347656 155.628906 C 264.105469 155.363281 263.738281 155.25 263.355469 155.179688 C 261.742188 155.175781 260.300781 154.570312 258.914062 153.835938 C 258.304688 153.457031 257.640625 153.777344 257.015625 153.546875 C 256.023438 153.097656 254.75 153.144531 254.09375 152.066406 C 254.046875 151.9375 253.832031 151.839844 253.664062 151.867188 C 252.921875 151.894531 252.417969 151.40625 251.808594 151.027344 C 250.367188 149.953125 245.789062 150.0625 245.417969 148.019531 C 244.917969 145.449219 246.996094 143.164062 246.011719 140.632812 C 245.871094 140.257812 245.828125 139.769531 246.074219 139.464844 C 246.960938 138.203125 246.664062 136.558594 247.421875 135.234375 C 247.539062 134.976562 247.570312 134.679688 247.476562 134.425781 C 247.242188 133.800781 247.414062 133.304688 247.820312 132.867188 C 247.941406 132.710938 248.085938 132.515625 248.078125 132.304688 C 248.113281 130.964844 248.53125 129.699219 248.695312 128.417969 C 248.789062 127.523438 248.859375 126.566406 249.234375 125.855469 C 250.105469 124.167969 249.972656 122.285156 250.394531 120.550781 C 250.582031 119.800781 250.894531 119.109375 251.058594 118.402344 C 251.277344 117.460938 250.796875 116.460938 251.398438 115.589844 C 250.972656 113.78125 251.886719 112.113281 251.988281 110.285156 C 252.28125 108.492188 252.171875 106.671875 252.847656 104.949219 C 252.996094 104.390625 253.234375 103.875 252.851562 103.335938 C 252.628906 103.027344 252.871094 102.722656 253.050781 102.4375 C 253.433594 101.828125 253.8125 101.222656 253.613281 100.402344 C 253.585938 100.234375 253.683594 100.015625 253.761719 99.84375 C 253.976562 99.371094 254.171875 98.9375 253.921875 98.460938 C 253.832031 98.316406 253.824219 98.101562 253.925781 97.992188 C 254.496094 97.3125 254.273438 96.539062 254.203125 95.777344 C 253.980469 94.894531 254.699219 94.230469 254.539062 93.429688 C 254.152344 92.109375 254.734375 90.707031 254.179688 89.414062 C 254.78125 87.96875 253.242188 87.582031 252.984375 86.421875 C 253.242188 85.863281 253.703125 85.1875 253.660156 84.59375 C 253.535156 83.496094 253.492188 82.332031 252.632812 81.472656 C 252.125 80.980469 251.871094 80.398438 252.226562 79.726562 C 252.535156 76.636719 248.867188 72.679688 246.191406 71.464844 C 243.570312 70.585938 241.046875 69.492188 238.226562 69.511719 C 236.804688 69.542969 235.414062 69.746094 234.035156 69.796875 C 230.289062 70.019531 227.074219 72.050781 223.734375 73.449219 C 221.742188 74.050781 220.59375 75.769531 218.734375 76.539062 C 216.683594 77.273438 215.289062 79.085938 213.417969 80.113281 C 211.652344 80.558594 210.757812 82.183594 209.390625 83.125 C 209.402344 84.015625 208.664062 84.042969 208.078125 84.300781 C 206.375 85.296875 204.742188 86.480469 203.617188 88.15625 C 201.421875 89.554688 199.199219 90.890625 197.316406 92.742188 C 196.929688 93.136719 196.847656 93.777344 196.429688 94.003906 C 195.164062 94.730469 194.121094 95.765625 192.945312 96.636719 C 191.832031 97.484375 190.605469 98.230469 189.78125 99.472656 C 189.664062 99.730469 189.4375 99.886719 189.125 100.003906 C 188.035156 100.449219 187.390625 101.300781 186.9375 102.292969 C 186.78125 102.636719 186.625 102.984375 186.292969 103.144531 C 184.824219 103.625 183.957031 104.84375 182.933594 105.835938 C 182.277344 106.476562 181.359375 106.894531 180.925781 107.734375 C 180.335938 109.03125 178.457031 108.699219 178.261719 110.273438 C 178.152344 110.746094 177.890625 111.09375 177.40625 111.242188 C 176.570312 111.589844 175.894531 112.167969 175.191406 112.679688 C 174.324219 113.328125 173.746094 114.367188 172.882812 115.121094 C 172.734375 116.25 171.433594 117.171875 170.375 116.636719 C 168.414062 115.332031 165.863281 116.828125 164.039062 115.113281 C 163.59375 114.597656 162.738281 114.992188 162.191406 114.585938 C 161.0625 113.867188 159.832031 114.398438 158.46875 114.300781 C 157.558594 112.066406 154.773438 113.613281 153.25 112.035156 C 152.945312 111.792969 152.421875 112.023438 152.074219 111.761719 C 151.089844 110.949219 149.792969 110.933594 148.640625 110.722656 C 147.828125 110.5625 146.921875 110.722656 146.300781 110.023438 C 146.191406 109.921875 145.914062 109.847656 145.765625 109.832031 C 144.726562 109.828125 143.90625 108.882812 142.804688 109.007812 C 141.96875 108.210938 140.789062 108.40625 139.796875 107.953125 C 138.546875 107.386719 137.1875 106.820312 135.707031 106.980469 C 135.539062 107.007812 135.386719 106.886719 135.257812 106.828125 C 134.300781 106.1875 133.101562 106.527344 132.109375 106.078125 C 131.628906 105.648438 131.074219 105.605469 130.527344 105.773438 C 128.714844 106.097656 127.171875 104.457031 125.273438 104.742188 C 124.847656 104.757812 124.464844 104.683594 124.09375 104.464844 C 122.75 103.644531 121.152344 104.066406 119.71875 103.78125 C 117.289062 102.9375 114.683594 102.949219 112.316406 102.082031 C 111.539062 101.730469 110.773438 101.695312 109.980469 102.0625 C 109.1875 102.433594 108.523438 102.183594 108.03125 101.542969 C 107.652344 101.003906 107.113281 100.8125 106.566406 100.980469 C 104.636719 101.5625 102.8125 100.421875 100.9375 100.769531 C 93.515625 103.125 88.113281 105.042969 90.9375 114.1875 C 91.554688 116.5 92.339844 118.78125 93.167969 121.085938 C 93.472656 121.902344 94.257812 122.464844 94.394531 123.308594 C 94.90625 125.050781 95.730469 126.675781 96.511719 128.28125 C 96.851562 128.902344 96.625 129.632812 96.902344 130.28125 C 97.691406 132.667969 98.917969 134.789062 100.3125 136.878906 C 100.957031 138.320312 101.605469 139.757812 102.441406 141.128906 C 103.742188 143.539062 105.375 145.792969 106.527344 148.292969 C 107.457031 150.488281 109.363281 152.027344 110.125 154.25 C 110.671875 155.90625 111.785156 157.242188 112.667969 158.738281 C 113.714844 160.097656 113.933594 162.019531 115.316406 163.222656 C 115.566406 163.699219 115.5 164.191406 115.921875 164.640625 C 117.632812 166.71875 118.285156 169.410156 119.765625 171.648438 C 120.964844 173.023438 121.429688 174.746094 122.148438 176.375 C 122.621094 177.628906 121.085938 178.597656 120.378906 179.472656 C 118.066406 181.234375 116.4375 183.671875 114.324219 185.578125 C 113.394531 186.246094 112.640625 187.101562 112.042969 188.082031 C 111.519531 188.882812 110.890625 189.585938 110.167969 190.144531 C 108.660156 191.28125 107.636719 192.847656 106.460938 194.292969 C 105.488281 195.515625 104.734375 196.945312 103.5 197.945312 C 103.046875 198.367188 102.683594 198.824219 102.386719 199.367188 C 100.414062 202.792969 97.699219 205.671875 95.660156 209.015625 C 94.523438 210.945312 92.996094 212.699219 91.902344 214.648438 C 90.039062 216.460938 89.394531 219.136719 87.683594 220.960938 C 87.144531 221.339844 86.785156 221.90625 86.59375 222.550781 C 85.867188 224.613281 84.660156 226.460938 83.804688 228.464844 C 83.003906 230.34375 81.796875 232.085938 81.898438 234.265625 C 81.085938 236.394531 81.0625 238.625 81.144531 240.847656 C 81.152344 241.0625 81.207031 241.292969 81.296875 241.4375 C 82.675781 243.210938 80.589844 245.855469 82.765625 247.257812 C 83.023438 247.378906 83.054688 247.652344 83.105469 247.882812 C 83.300781 249.171875 84.097656 250.050781 85.121094 250.777344 C 85.386719 251 85.613281 251.417969 86.015625 251.339844 C 86.902344 251.222656 87.179688 251.867188 87.539062 252.449219 C 87.675781 252.71875 87.792969 252.925781 88.09375 253.066406 C 88.914062 253.4375 89.679688 254.046875 90.617188 254.160156 C 90.871094 254.171875 91.105469 254.226562 91.265625 254.453125 C 91.667969 255.054688 92.265625 255.117188 92.988281 255.132812 C 93.621094 255.109375 93.972656 255.941406 94.730469 255.765625 C 95.128906 255.6875 95.445312 255.675781 95.714844 256.003906 C 97.8125 257.117188 100.148438 255.417969 102.261719 255.804688 C 103.371094 255.996094 104.539062 255.953125 105.601562 255.445312 C 106.140625 255.171875 106.746094 254.875 107.34375 254.9375 C 109.675781 254.953125 111.589844 253.378906 113.902344 253.332031 C 114.625 253.347656 115.359375 253.214844 116.050781 252.957031 C 118.375 252.085938 120.699219 251.320312 123.167969 250.929688 C 126.6875 250.289062 129.917969 248.789062 133.386719 247.917969 C 134.96875 247.648438 136.492188 246.933594 138.019531 246.429688 C 144.929688 243.945312 152.007812 242.003906 158.964844 239.75 C 161.996094 239.042969 165.042969 238.292969 167.902344 237.042969 C 168.363281 236.835938 168.636719 237.375 168.566406 237.761719 C 168.523438 238.886719 168.882812 239.933594 169.300781 240.957031 C 170.863281 243.59375 170.371094 246.859375 172.144531 249.488281 C 172.324219 249.777344 172.566406 250.042969 172.410156 250.390625 C 172.019531 251.253906 172.328125 252.175781 172.757812 252.835938 C 173.632812 254.121094 173.519531 255.628906 173.886719 256.996094 C 174.238281 258.402344 174.625 259.726562 175.308594 260.972656 C 175.511719 261.328125 175.78125 261.65625 175.734375 262.101562 C 175.5625 263.277344 176.175781 264.335938 176.492188 265.363281 C 177.4375 267.980469 177.816406 270.808594 179.121094 273.328125 C 179.324219 274.253906 179.507812 275.117188 180.003906 275.96875 C 180.140625 276.238281 180.324219 276.527344 180.316406 276.890625 C 180.238281 278.207031 181.679688 278.8125 181.75 280.144531 C 182.09375 281.34375 182.308594 282.585938 183.132812 283.636719 C 183.289062 283.863281 183.492188 284.113281 183.523438 284.386719 C 183.753906 286.054688 185.109375 287.085938 185.816406 288.5 C 186.28125 290.117188 186.890625 291.644531 187.6875 293.097656 C 188.578125 294.804688 189.03125 296.78125 190.730469 297.972656 C 191.058594 298.171875 191.324219 298.5 191.257812 298.992188 C 191.140625 299.824219 191.585938 300.335938 192.175781 300.867188 C 194.136719 302.171875 195.023438 304.34375 196.835938 305.742188 C 197.886719 306.636719 198.550781 307.925781 199.742188 308.625 C 200.265625 308.964844 200.640625 309.398438 201.082031 309.804688 C 201.875 310.582031 202.609375 311.488281 203.6875 311.976562 C 205.242188 312.683594 206.695312 313.605469 208.34375 313.988281 C 208.945312 314.160156 209.421875 314.480469 209.90625 314.90625 C 210.523438 315.5 211.160156 316.15625 211.953125 316.359375 C 216.125 317.835938 219.429688 315.953125 223.304688 314.640625 C 224.4375 314.324219 225.308594 313.78125 225.753906 312.578125 C 226.140625 311.609375 226.789062 310.757812 226.765625 309.652344 C 227.699219 307.945312 229.058594 306.21875 229.023438 304.117188 C 229.023438 303.546875 228.933594 302.933594 229.214844 302.433594 C 230.179688 301 230.207031 299.449219 230.078125 297.777344 C 230.503906 295.46875 231.398438 293.273438 231.417969 290.9375 C 231.539062 289.640625 232.191406 288.425781 232.097656 287.03125 C 232.070312 286.289062 231.972656 285.359375 232.332031 284.792969 C 232.976562 283.835938 232.960938 282.839844 233.15625 281.835938 C 233.625 279.082031 233.5 276.265625 234.011719 273.53125 C 234.25 272.4375 234.097656 271.277344 234.160156 270.109375 C 234.507812 267.402344 235.023438 264.773438 235.027344 262.015625 C 235.210938 256.683594 236.15625 251.386719 236.382812 246.074219 C 236.507812 244.308594 236.59375 242.628906 236.976562 240.875 C 237.191406 239.828125 237.425781 238.738281 237.152344 237.621094 C 237.050781 237.160156 236.945312 236.695312 237.03125 236.164062 C 237.40625 233.625 237.285156 231.019531 237.617188 228.460938 C 237.746094 227.375 237.90625 226.5625 238.96875 226.054688 C 239.902344 225.492188 240.949219 226.277344 241.8125 225.523438 C 243.027344 225.035156 244.46875 225.066406 245.65625 224.511719 C 246.839844 223.746094 248.460938 224.535156 249.28125 223.296875 C 249.445312 223.054688 249.632812 222.984375 249.863281 222.933594 C 253.320312 222.316406 256.761719 221.277344 260.15625 220.214844 C 261.269531 219.835938 262.429688 219.6875 263.375 218.867188 C 264.683594 218.734375 265.960938 218.21875 267.242188 217.914062 C 268.519531 217.402344 269.640625 216.191406 271.0625 216.265625 C 272.398438 216.195312 273.433594 215.519531 274.492188 214.910156 C 275.417969 214.132812 276.757812 214.738281 277.683594 213.960938 C 278.695312 213.222656 279.652344 212.722656 280.960938 212.589844 C 283.175781 212.1875 285.226562 210.878906 287.246094 209.871094 C 287.8125 209.660156 288.398438 209.511719 288.738281 208.882812 C 288.855469 208.625 289.085938 208.574219 289.382812 208.605469 C 291.007812 208.925781 291.910156 207.511719 293.117188 206.917969 C 293.515625 206.730469 293.839844 206.359375 294.304688 206.257812 C 294.535156 206.207031 294.765625 206.15625 294.949219 205.976562 C 296.160156 204.808594 297.882812 204.339844 298.976562 202.964844 C 299.257812 202.570312 299.90625 202.867188 300.167969 202.515625 C 300.542969 201.800781 301.40625 201.621094 301.960938 201.09375 C 303.230469 199.898438 304.683594 198.996094 305.886719 197.722656 C 306.601562 196.953125 307.15625 195.953125 308.203125 195.492188 C 309.097656 193.867188 310.726562 192.683594 311.144531 190.734375 Z M 310.878906 190.511719 " fill-opacity="1" fill-rule="nonzero"/></g></g></g><g clip-path="url(#7ba10194ed)"><g clip-path="url(#16b19c0e3b)"><g clip-path="url(#2df69af58c)"><path fill="#febf00" d="M 299.070312 190.144531 C 297.242188 186.609375 293.039062 185.429688 289.347656 184.84375 C 287.625 184.738281 285.9375 183.296875 284.214844 183.761719 C 283.269531 184.011719 282.605469 183.863281 281.84375 183.363281 C 279.757812 182.570312 277.726562 181.542969 275.578125 180.882812 C 274.046875 179.664062 272.109375 179.460938 270.363281 178.71875 C 268.625 177.617188 266.585938 177.523438 264.753906 176.746094 C 262.195312 175.84375 259.746094 174.46875 257.011719 173.957031 C 253.558594 172.960938 250.097656 171.753906 246.679688 170.566406 C 242.867188 169.5625 239.214844 168.320312 235.652344 166.648438 C 233.808594 165.550781 231.199219 165.5625 230.40625 163.066406 C 232.019531 162.605469 232.996094 160.914062 233.128906 159.359375 C 233.160156 159.0625 233.0625 158.703125 233.289062 158.441406 C 234.144531 157.582031 233.191406 156.472656 233.648438 155.585938 C 234.148438 154.824219 233.855469 153.753906 234.59375 153.046875 C 234.726562 151.492188 234.492188 149.824219 235.328125 148.332031 C 236.09375 146.074219 236.796875 143.839844 236.875 141.378906 C 237.277344 134.53125 237.996094 127.671875 238.398438 120.828125 C 238.84375 117.4375 239.417969 114 240.699219 110.832031 C 241.382812 109.789062 241.015625 108.53125 241.636719 107.511719 C 242.96875 105.148438 243.1875 102.488281 244.003906 99.890625 C 245.492188 93.171875 246.988281 90 242.449219 83.824219 C 241.816406 82.703125 240.59375 82.980469 239.511719 82.957031 C 237.984375 82.421875 237.691406 84.214844 237.132812 85.210938 C 236.996094 85.511719 236.859375 85.816406 236.480469 85.851562 C 235.023438 86.074219 233.933594 86.984375 232.753906 87.75 C 232.054688 88.371094 231.03125 88.21875 230.464844 89.003906 C 229.238281 90.214844 227.785156 91.117188 226.269531 91.9375 C 224.792969 92.777344 223.648438 93.921875 222.789062 95.355469 C 222.613281 95.746094 222.394531 96.113281 222.058594 96.273438 C 221.1875 96.816406 220.644531 97.558594 220.121094 98.363281 C 220.003906 98.621094 219.84375 98.859375 219.503906 98.808594 C 218.5 98.71875 217.914062 99.441406 217.210938 99.957031 C 216.28125 100.625 215.285156 101.214844 214.75 102.273438 C 214.316406 102.546875 213.785156 102.566406 213.445312 103.085938 C 210.558594 105.890625 207.121094 108.179688 204.523438 111.269531 C 203.453125 112.816406 201.878906 113.765625 200.546875 115.089844 C 198.109375 117.9375 195.539062 120.726562 192.660156 123.167969 C 190.449219 125.859375 188.023438 128.558594 185.328125 130.824219 C 183.296875 132.089844 181.910156 134.113281 179.945312 135.460938 C 179.617188 136.40625 178.761719 136.796875 177.972656 137.273438 C 176.246094 138.671875 176.007812 136.328125 174.511719 137.105469 C 173.949219 137.421875 173.429688 137.1875 173.179688 136.707031 C 172.214844 135.28125 170.066406 135.191406 169.082031 133.804688 C 168.367188 132.855469 167.105469 132.542969 166.636719 131.394531 C 165.390625 130.929688 164.527344 129.964844 163.320312 129.417969 C 161.355469 128.578125 159.59375 127.414062 158.078125 125.941406 C 156.738281 124.761719 154.972656 124.0625 153.980469 122.46875 C 153.035156 121.570312 151.46875 121.691406 150.640625 120.535156 C 149.820312 120.160156 148.800781 120.113281 147.980469 119.742188 C 146.050781 118.605469 143.738281 118.648438 141.789062 117.554688 C 139.90625 117.113281 137.847656 117.171875 135.992188 116.328125 C 135.128906 115.933594 134.15625 116.015625 133.222656 116.007812 C 132.160156 115.941406 131.148438 115.53125 130.132812 115.589844 C 127.863281 115.65625 125.699219 115.035156 123.46875 115.011719 C 121.589844 115.25 119.828125 114.660156 118.113281 114.195312 C 116.226562 113.648438 114.28125 113.234375 112.375 112.730469 C 108.953125 112.011719 105.027344 109.757812 101.78125 111.980469 C 100.976562 112.605469 100.945312 112.902344 101.671875 113.597656 C 103.902344 116.015625 107.140625 116.914062 109.792969 118.640625 C 111.199219 119.902344 112.5625 121.253906 113.886719 122.582031 C 116.796875 126.71875 119.773438 130.828125 122.4375 135.164062 C 122.964844 136.183594 123.824219 137.042969 124.414062 138.039062 C 124.863281 138.765625 125 139.609375 125.515625 140.308594 C 128.578125 143.886719 130.082031 148.371094 133.242188 151.839844 C 134.621094 152.933594 135.425781 154.601562 136.265625 156.074219 C 136.9375 157.578125 138.496094 158.390625 138.914062 159.984375 C 138.917969 160.09375 139.089844 160.171875 139.175781 160.210938 C 140.039062 160.601562 140.492188 161.328125 140.714844 162.210938 C 140.839844 162.734375 141.152344 163.085938 141.664062 163.214844 C 142.074219 163.347656 142.480469 163.480469 142.582031 163.945312 C 143.339844 166.632812 146.390625 168.171875 145.953125 171.203125 C 145.816406 172.648438 145.101562 178 143.027344 177.527344 C 142.25 177.171875 141.335938 177.121094 140.691406 176.363281 C 139.054688 174.578125 137.90625 177.910156 136.28125 178.160156 C 134.769531 179.660156 133.5 181.53125 131.480469 182.539062 C 130.859375 182.882812 130.695312 183.691406 130.136719 184.011719 C 128.757812 184.636719 127.9375 185.980469 126.652344 186.75 C 126.15625 187.042969 125.703125 187.464844 125.429688 188.070312 C 121.625 192.433594 117.296875 196.457031 113.847656 201.1875 C 112.5625 203.78125 110.367188 205.75 109.085938 208.34375 C 108.070312 209.550781 107.40625 211.125 106.449219 212.199219 C 105.644531 212.824219 105.410156 213.914062 104.714844 214.640625 C 102.949219 216.234375 102.449219 218.710938 100.8125 220.363281 C 98.210938 223.453125 96.113281 226.925781 94.164062 230.414062 C 92.773438 232.90625 90.902344 235.074219 89.726562 237.664062 C 89.1875 239.191406 89.597656 240.46875 91.003906 241.265625 C 91.4375 241.460938 91.660156 241.773438 91.742188 242.277344 C 92.078125 243.835938 92.785156 245.144531 94.335938 245.851562 C 94.8125 246.066406 95.214844 246.09375 95.699219 245.949219 C 99.253906 245.117188 101.640625 241.464844 105.5625 241.890625 C 105.964844 241.917969 106.390625 241.902344 106.765625 241.761719 C 108.988281 241 111.378906 240.890625 113.460938 239.75 C 113.667969 239.636719 113.941406 239.605469 114.171875 239.554688 C 116.035156 239.464844 117.585938 238.34375 119.308594 237.878906 C 121.359375 237.714844 123.300781 236.878906 125.308594 236.59375 C 125.539062 236.542969 125.789062 236.449219 125.929688 236.253906 C 126.390625 235.472656 127.234375 235.332031 128.015625 235.21875 C 129.457031 235.25 130.050781 233.488281 131.460938 233.816406 C 133.066406 234.183594 134.113281 232.679688 135.632812 232.433594 C 138.199219 231.828125 140.53125 230.699219 143.097656 230.097656 C 143.5625 229.992188 144.019531 229.785156 144.414062 229.496094 C 145.707031 228.367188 147.6875 229.160156 148.824219 227.804688 C 149.007812 227.519531 149.304688 227.550781 149.601562 227.582031 C 150.816406 227.664062 151.691406 226.761719 152.789062 226.53125 C 153.398438 226.445312 154.011719 226.359375 154.347656 225.730469 C 154.46875 225.472656 154.742188 225.441406 155.019531 225.515625 C 156.476562 225.863281 157.265625 224.816406 158.523438 224.449219 C 160.355469 224.085938 162.046875 223.34375 163.714844 222.539062 C 165.898438 221.394531 168.355469 221.261719 170.570312 220.394531 C 170.925781 220.191406 171.304688 220.15625 171.753906 220.203125 C 173.609375 220.472656 175.238281 219.289062 177.050781 219.539062 C 178.851562 219.472656 179.152344 221.21875 180.390625 222.042969 C 180.695312 222.179688 180.9375 222.449219 181.011719 222.742188 C 181.320312 223.664062 182.085938 224.273438 182.828125 224.816406 C 183.894531 225.5625 184.386719 226.773438 185.308594 227.609375 C 185.460938 227.730469 185.535156 228.027344 185.585938 228.257812 C 185.863281 229.945312 186.472656 231.472656 187.269531 232.925781 C 187.40625 233.195312 187.609375 233.550781 187.535156 233.828125 C 187.175781 234.964844 188.257812 235.5625 188.546875 236.527344 C 188.816406 237.429688 188.769531 238.449219 189.519531 239.207031 C 189.605469 239.246094 189.613281 239.457031 189.574219 239.542969 C 189.449219 240.164062 189.761719 240.621094 189.992188 241.140625 C 190.6875 242.707031 190.5625 244.472656 191.382812 245.988281 C 192.414062 248.644531 192.835938 251.386719 193.449219 254.164062 C 193.726562 255.957031 195.242188 257.324219 194.871094 259.289062 C 194.792969 259.460938 194.949219 259.691406 195.019531 259.878906 C 195.402344 261.667969 196.125 263.402344 196.324219 265.261719 C 197.4375 267.851562 198.175781 270.582031 198.871094 273.292969 C 199.882812 277.136719 201.757812 280.695312 202.601562 284.566406 C 201.160156 282.921875 200.863281 280.601562 199.230469 278.921875 C 198.71875 281.761719 196.359375 282.71875 194.8125 279.933594 C 194.410156 278.867188 193.660156 278.003906 193.613281 276.839844 C 193.492188 276.417969 192.882812 275.933594 192.863281 275.507812 C 193.011719 274.273438 192.308594 273.640625 191.679688 272.730469 C 191.476562 271.234375 190.808594 269.835938 190.433594 268.367188 C 190.214844 267.589844 190.246094 266.71875 189.710938 266.058594 C 188.984375 265.257812 188.773438 264.226562 188.296875 263.332031 C 186.757812 260.1875 186.265625 256.683594 183.808594 253.953125 C 183.765625 255.652344 185.253906 256.847656 184.808594 258.625 C 184.464844 260.1875 185.679688 261.414062 185.714844 262.941406 C 185.664062 263.28125 185.78125 263.59375 185.960938 263.886719 C 186.273438 264.339844 186.359375 264.847656 186.378906 265.375 C 186.460938 267.027344 186.835938 268.605469 187.65625 270.125 C 187.863281 270.476562 188.003906 270.851562 188.019531 271.277344 C 188.222656 273.347656 189.285156 275.132812 189.722656 277.152344 C 189.746094 277.789062 190.4375 278.101562 190.648438 278.667969 C 191.570312 280.648438 192.558594 282.605469 193.269531 284.703125 C 193.664062 286.128906 194.949219 286.972656 195.359375 288.359375 C 195.507812 288.945312 195.828125 289.507812 196.265625 289.914062 C 197.972656 291.316406 199.085938 293.226562 200.027344 295.164062 C 201.25 296.710938 202.457031 298.296875 203.964844 299.558594 C 204.578125 300.042969 205.210938 300.488281 206.039062 300.5 C 208.234375 300.820312 206.539062 304.214844 212.101562 305.492188 C 214.328125 306.085938 215.105469 303.574219 216.660156 302.5625 C 218.703125 301.042969 219.804688 298.734375 220.261719 296.234375 C 220.472656 295.546875 220.65625 294.796875 220.503906 294.101562 C 220.375 293.578125 220.441406 293.085938 220.570312 292.574219 C 221.449219 289.953125 220.457031 287.210938 220.804688 284.609375 C 221.355469 281.683594 220.753906 278.648438 221.601562 275.753906 C 221.152344 273.414062 221.597656 271.171875 221.808594 268.871094 C 221.824219 268.722656 221.949219 268.570312 222.007812 268.441406 C 222.65625 267.695312 222.257812 266.628906 222.628906 265.808594 C 223.542969 264.140625 222.222656 262.238281 223.4375 260.707031 C 224.410156 258.910156 223.691406 256.707031 224.726562 254.886719 C 224.921875 254.457031 224.90625 254.03125 224.742188 253.59375 C 224.09375 251.582031 225.597656 249.765625 225.179688 247.699219 C 225 246.835938 225.539062 245.988281 225.9375 245.234375 C 226.351562 242.714844 226.574219 240.160156 226.648438 237.589844 C 226.886719 236.605469 226.636719 235.554688 227.046875 234.648438 C 227.222656 234.257812 227.273438 233.917969 227.300781 233.511719 C 227.144531 231.566406 228.054688 229.792969 228.257812 227.855469 C 228.503906 226.507812 228.796875 225.183594 228.832031 223.84375 C 228.832031 223.273438 229.089844 222.816406 229.414062 222.445312 C 230.1875 221.546875 231.003906 220.667969 231.46875 219.523438 C 231.625 219.179688 231.894531 218.9375 232.269531 218.796875 C 233.503906 218.367188 233.960938 216.90625 235.132812 216.503906 C 236.535156 215.941406 238.089844 216.179688 239.5625 215.808594 C 242.285156 214.859375 245.003906 213.800781 247.824219 213.207031 C 252.792969 212.132812 257.820312 211.03125 262.738281 209.726562 C 264.085938 208.933594 265.6875 209.191406 267.066406 208.671875 C 272.625 206.40625 278.140625 204.015625 283.839844 202.128906 C 284.636719 201.863281 285.40625 201.539062 285.9375 200.945312 C 286.914062 199.828125 288.253906 199.289062 289.453125 198.480469 C 291.132812 197.421875 293.226562 197.28125 294.859375 196.09375 C 296.667969 194.523438 300.617188 192.929688 299.152344 190.078125 Z M 299.070312 190.144531 " fill-opacity="1" fill-rule="nonzero"/></g></g></g><g clip-path="url(#bdfcaee01c)"><g clip-path="url(#82fa1f4721)"><g clip-path="url(#d45b0b6fba)"><path fill="#000001" d="M 298.996094 185.84375 C 301.53125 183.921875 301.980469 179.960938 300.1875 177.375 C 299.757812 176.710938 299.273438 176.285156 298.429688 176.316406 C 297.941406 176.355469 297.464844 176.140625 297.035156 175.945312 C 295.453125 175.070312 293.605469 175.011719 291.964844 174.265625 C 290.636719 173.296875 288.894531 173.808594 287.628906 172.921875 C 286.691406 172.234375 285.417969 172.175781 284.558594 171.316406 C 283.246094 170.878906 281.75 171.082031 280.667969 170.019531 C 280.515625 169.898438 280.324219 169.863281 280.070312 169.851562 C 276.253906 168.847656 272.523438 167.203125 268.957031 165.429688 C 267.867188 164.621094 266.421875 164.589844 265.273438 163.910156 C 264.75 163.570312 264.191406 163.421875 263.574219 163.296875 C 262.847656 163.175781 262.117188 162.945312 261.386719 162.71875 C 260.699219 162.511719 260.402344 161.90625 259.757812 161.71875 C 257.125 160.523438 254.382812 159.796875 251.613281 158.902344 C 249.21875 157.867188 246.851562 156.894531 244.304688 156.3125 C 241.890625 155.894531 239.898438 154.207031 237.414062 154.171875 C 237.160156 154.160156 236.882812 154.191406 236.726562 153.964844 C 236.429688 153.359375 235.929688 153.082031 235.3125 152.957031 C 235.074219 152.902344 234.9375 152.628906 234.886719 152.398438 C 234.59375 151.328125 233.988281 150.480469 233.238281 149.722656 C 231.890625 148.332031 233.4375 146.535156 233.398438 144.902344 C 233.910156 140.449219 235.105469 136.097656 235.664062 131.664062 C 236.144531 128.082031 236.84375 124.597656 237.558594 121.070312 C 238.054688 118.953125 238.988281 116.773438 238.949219 114.570312 C 238.703125 113.625 239.4375 112.8125 239.550781 111.875 C 239.710938 109.914062 240.273438 107.984375 240.453125 105.984375 C 240.511719 105.28125 241.042969 104.6875 240.890625 103.996094 C 240.6875 103.070312 240.957031 102.359375 241.371094 101.558594 C 242.039062 98.945312 242 96.167969 242.472656 93.519531 C 242.753906 91.40625 243.398438 89.304688 242.808594 87.164062 C 242.683594 86.636719 242.601562 86.132812 242.773438 85.636719 C 243.148438 83.777344 240.796875 82.761719 239.382812 82.328125 C 234.695312 80.71875 231.320312 82.308594 227.21875 84.457031 C 225.261719 85.441406 223.714844 87.132812 221.753906 88.117188 C 220.589844 88.734375 219.691406 89.679688 218.457031 90.105469 C 217.257812 90.914062 216.082031 91.894531 214.769531 92.492188 C 216.558594 89.816406 221.371094 87.472656 220.855469 83.90625 C 220.566406 82.941406 219.746094 83.144531 219.195312 83.777344 C 217.980469 84.738281 216.875 85.796875 215.609375 86.628906 C 212.9375 88.277344 210.925781 90.75 208.273438 92.355469 C 208.125 92.445312 208.027344 92.660156 207.90625 92.8125 C 207.808594 93.027344 207.691406 93.289062 207.417969 93.320312 C 206.238281 93.617188 205.820312 94.886719 204.910156 95.511719 C 203.144531 96.535156 202.128906 98.3125 200.558594 99.472656 C 199.464844 100.277344 199.054688 101.757812 197.738281 102.355469 C 197.449219 102.539062 197.328125 103.261719 196.953125 103.40625 C 196.28125 103.621094 196.007812 104.226562 195.578125 104.707031 C 193.992188 106.589844 192.386719 108.414062 190.710938 110.152344 C 188.101562 113.027344 185.769531 116.445312 182.898438 119.097656 C 182.296875 119.503906 181.847656 119.921875 181.550781 120.570312 C 181.375 120.957031 181.160156 121.433594 180.699219 121.535156 C 179.121094 121.910156 178.367188 123.339844 177.167969 124.148438 C 176.132812 124.824219 175.148438 125.730469 174.292969 126.695312 C 173.84375 127.222656 173.136719 127.628906 172.476562 127.484375 C 171.492188 127.246094 170.433594 127.390625 169.539062 126.722656 C 169.34375 126.582031 169.109375 126.527344 168.855469 126.515625 C 166.625 126.492188 164.742188 124.910156 162.582031 125.074219 C 161.316406 125.226562 160.554688 123.578125 159.074219 124.207031 C 158.757812 124.324219 158.433594 124.125 158.148438 123.945312 C 156.210938 122.597656 153.96875 122.148438 151.777344 121.46875 C 150.941406 121.242188 150.082031 120.957031 149.265625 120.691406 C 147.828125 120.191406 146.117188 120.40625 144.902344 119.175781 C 142.628906 119.027344 140.65625 117.871094 138.546875 117.125 C 137.296875 116.554688 135.820312 116.25 134.332031 116.199219 C 133.613281 116.183594 132.699219 116.132812 132.140625 115.410156 C 132.050781 115.265625 131.792969 115.253906 131.578125 115.15625 C 130.675781 114.847656 129.769531 114.4375 128.777344 114.558594 C 128.503906 114.589844 128.15625 114.433594 127.875 114.253906 C 127.375 113.976562 126.886719 113.910156 126.355469 113.929688 C 125.167969 113.910156 124.109375 113.375 122.929688 113.101562 C 121.296875 112.460938 119.433594 112.660156 117.78125 112.0625 C 117.050781 111.835938 116.320312 111.609375 115.5 111.808594 C 115.3125 111.878906 115.078125 111.824219 114.921875 111.703125 C 113.496094 110.949219 111.921875 110.859375 110.328125 110.8125 C 107.117188 109.976562 103.855469 111.308594 101.675781 113.703125 C 101.144531 114.296875 100.421875 114.851562 100.523438 115.78125 C 100.738281 117.597656 100.976562 119.476562 102.511719 120.800781 C 102.707031 120.941406 102.929688 121.144531 102.9375 121.355469 C 102.910156 122.335938 103.425781 123.140625 103.777344 123.976562 C 104.753906 126.867188 106.273438 129.484375 107.9375 132.011719 C 108.898438 133.90625 109.902344 135.820312 110.992188 137.667969 C 112.972656 140.757812 114.3125 144.226562 116.730469 147.042969 C 117.828125 149.78125 119.839844 152 121.480469 154.460938 C 123.53125 157.058594 125.78125 159.4375 127.730469 162.144531 C 128.46875 163.15625 129.515625 163.941406 130.210938 164.9375 C 130.410156 165.753906 131.027344 166.347656 131.554688 166.902344 C 133.386719 168.828125 135.101562 170.90625 137.257812 172.460938 C 128.695312 181.792969 121.3125 192.082031 114.324219 202.65625 C 111.617188 206.894531 108.085938 211.121094 106.007812 215.695312 C 106.222656 215.792969 106.488281 215.550781 106.566406 215.949219 C 105.765625 217.71875 104.328125 219.046875 103.328125 220.671875 C 102.089844 222.714844 100.738281 224.652344 99.261719 226.53125 C 98.773438 227.144531 98.332031 227.777344 98.0625 228.488281 C 96.957031 231.265625 95.070312 233.582031 94.371094 236.496094 C 94.097656 237.671875 94.308594 238.808594 94.351562 239.976562 C 94.414062 241.671875 95.816406 242.253906 96.925781 243.019531 C 97.5 244.164062 98.605469 243.675781 99.460938 244.429688 C 99.316406 245.09375 99.054688 246.015625 99.992188 246.128906 C 102.214844 246.621094 104.355469 245.925781 106.550781 245.671875 C 107.710938 245.523438 108.785156 245.230469 109.914062 244.804688 C 110.917969 244.429688 112.15625 244.679688 113.21875 244.066406 C 113.90625 244.378906 114.617188 244.078125 115.160156 243.804688 C 116.097656 243.34375 117.195312 243.21875 118.164062 243.035156 C 118.78125 242.480469 119.59375 242.640625 120.285156 242.488281 C 122.238281 241.96875 124.351562 241.679688 126.113281 240.550781 C 126.277344 240.417969 126.464844 240.347656 126.679688 240.445312 C 127.710938 240.703125 128.535156 240.144531 129.433594 239.769531 C 129.875 239.605469 130.265625 239.316406 130.777344 239.339844 C 131.074219 239.371094 131.324219 239.277344 131.554688 239.117188 C 132.214844 238.691406 132.996094 238.578125 133.6875 238.316406 C 134.628906 237.964844 135.652344 238.117188 136.503906 237.617188 C 137.355469 237.121094 138.257812 236.851562 139.15625 236.480469 C 140.574219 235.769531 141.816406 234.980469 143.457031 235.152344 C 144.492188 235.050781 145.507812 234.417969 146.398438 233.835938 C 146.746094 233.523438 147.25 233.335938 147.785156 233.421875 C 148.082031 233.453125 148.355469 233.421875 148.605469 233.328125 C 150.128906 232.613281 151.855469 232.25 153.3125 231.457031 C 155.414062 230.378906 157.636719 229.722656 159.679688 228.671875 C 163.125 227.269531 166.800781 226.285156 169.882812 224.089844 C 170.644531 223.554688 171.175781 223.535156 171.546875 224.324219 C 172.699219 226.257812 174.722656 227.644531 174.6875 230.128906 C 174.765625 230.996094 174.609375 232.019531 175.441406 232.710938 C 175.597656 232.832031 175.585938 233.085938 175.550781 233.277344 C 175.386719 234.664062 176.453125 235.875 176.1875 237.265625 C 176.121094 237.859375 176.792969 238.21875 176.898438 238.785156 C 179.992188 249.980469 182.617188 261.273438 186.503906 272.203125 C 187.644531 275.429688 188.863281 278.585938 190.316406 281.691406 C 190.546875 282.214844 190.84375 282.714844 191.238281 283.101562 C 191.898438 283.714844 191.898438 283.714844 192.917969 283.1875 C 189.839844 276.320312 187.140625 269.316406 184.917969 262.058594 C 185.277344 262.066406 185.410156 262.230469 185.4375 262.398438 C 185.726562 263.832031 186.890625 264.933594 186.945312 266.417969 C 187.027344 266.921875 187.757812 267.148438 187.632812 267.769531 C 187.628906 268.238281 187.8125 268.632812 188.207031 268.914062 C 188.421875 269.011719 188.621094 269.261719 188.609375 269.515625 C 188.433594 271.050781 189.828125 271.996094 190.070312 273.40625 C 190.15625 274.019531 190.671875 274.722656 190.886719 275.390625 C 191.003906 275.707031 191.0625 276.042969 191.40625 276.199219 C 192.859375 277.015625 192.003906 279.125 193.433594 279.984375 C 193.652344 280.082031 193.664062 280.402344 193.714844 280.632812 C 194.285156 282.816406 195.558594 284.59375 196.796875 286.457031 C 197.304688 287.054688 197.902344 287.691406 197.578125 288.636719 C 197.519531 288.765625 197.652344 288.929688 197.742188 289.074219 C 198.273438 290.308594 199.363281 291.582031 199.640625 292.800781 C 199.621094 293.992188 200.707031 294.691406 200.730469 295.796875 C 201.769531 297.515625 202.871094 299.214844 203.828125 301.003906 C 204.238281 301.710938 205.074219 301.933594 205.519531 302.554688 C 206.574219 304.019531 208.496094 303.800781 210.054688 304.144531 C 210.738281 304.246094 211.554688 304.515625 212.023438 303.945312 C 212.878906 302.980469 214.238281 302.503906 214.746094 301.277344 C 215.652344 298.929688 215.902344 296.4375 215.996094 293.933594 C 216.320312 292.308594 217.089844 290.730469 217.066406 289.054688 C 217.214844 287.351562 217.792969 285.738281 217.835938 284.039062 C 217.851562 283.320312 218.035156 282.570312 218.179688 281.90625 C 218.378906 281.007812 218.238281 280.058594 218.632812 279.195312 C 218.847656 278.71875 218.828125 278.191406 218.808594 277.660156 C 218.789062 277.132812 218.59375 276.523438 219.128906 276.035156 C 219.230469 275.925781 219.265625 275.734375 219.238281 275.566406 C 219.167969 274.230469 219.84375 272.976562 219.601562 271.667969 C 220.304688 270.011719 219.683594 268.167969 220.40625 266.464844 C 220.71875 265.773438 220.726562 264.839844 220.800781 263.988281 C 220.871094 263.03125 221.410156 262.078125 221.207031 261.257812 C 220.910156 260.078125 221.273438 259.046875 221.511719 258.0625 C 221.808594 256.84375 221.761719 255.570312 221.992188 254.375 C 222.5625 250.363281 222.851562 246.175781 223.851562 242.253906 C 224.546875 240.382812 224.382812 238.332031 225.25 236.539062 C 225.710938 234.613281 225.867188 232.546875 226.625 230.652344 C 226.761719 230.351562 226.808594 229.902344 226.753906 229.566406 C 226.667969 227.914062 227.460938 226.398438 228.109375 224.976562 C 228.34375 224.457031 228.472656 223.945312 228.386719 223.332031 C 228.222656 222.320312 228.460938 221.335938 228.933594 220.40625 C 229.347656 219.5 230.0625 218.730469 230.363281 217.71875 C 230.949219 216.894531 231.945312 216.304688 232.773438 215.742188 C 236.527344 212.867188 241.433594 212.492188 245.695312 210.679688 C 248.414062 209.621094 251.226562 208.816406 253.828125 207.449219 C 263.582031 203.390625 272.84375 198.019531 282.832031 194.484375 C 278.039062 197.359375 272.925781 199.671875 268.015625 202.230469 C 265.082031 203.761719 262.097656 205.058594 259.253906 206.734375 C 258.878906 206.984375 258.398438 207.128906 258.183594 207.710938 C 261.101562 207.367188 263.425781 206.027344 266.058594 204.933594 C 270.066406 203.214844 274.097656 201.453125 278.085938 199.777344 C 285.238281 196.410156 292.914062 193.496094 298.292969 187.503906 C 298.871094 187.035156 299.3125 186.402344 298.882812 185.632812 Z M 213.375 93.839844 C 213.378906 94.519531 213.109375 94.65625 212.539062 94.65625 C 212.648438 94.183594 212.851562 93.964844 213.375 93.839844 Z M 114.195312 206.605469 C 113.042969 208.113281 111.847656 209.601562 110.671875 211.042969 C 110.222656 211.570312 110.101562 212.296875 109.164062 212.753906 C 114.824219 204.078125 121.40625 196.238281 127.566406 187.945312 C 131.265625 183.015625 134.988281 178.144531 139.015625 173.519531 C 139.828125 173.679688 140.714844 174.132812 139.9375 174.925781 C 137.316406 178.058594 134.390625 180.945312 131.925781 184.199219 C 129.597656 186.683594 127.402344 189.226562 125.558594 192.136719 C 124.546875 193.449219 123.339844 194.617188 122.652344 196.128906 C 121.886719 197.8125 119.726562 198.445312 119.289062 200.328125 C 119.214844 200.605469 119.050781 200.84375 118.867188 201.023438 C 117.082031 202.660156 115.738281 204.703125 114.238281 206.625 Z M 283.664062 186.582031 C 280.777344 187.773438 277.867188 189.367188 274.914062 190.367188 C 273.59375 190.757812 272.457031 191.648438 271.011719 191.511719 C 270.925781 191.472656 270.734375 191.542969 270.652344 191.609375 C 269.339844 192.78125 267.519531 192.890625 265.949219 193.480469 C 264.210938 194.097656 262.695312 195.492188 260.785156 195.457031 C 259.933594 195.382812 259.242188 195.640625 258.800781 196.378906 C 258.582031 196.746094 258.269531 196.863281 257.804688 196.96875 C 256.5625 197.183594 255.34375 197.460938 254.117188 197.636719 C 253.230469 197.753906 252.425781 198.378906 251.523438 198.644531 C 249.972656 199.082031 248.464844 199.648438 247.191406 200.734375 C 246.144531 200.519531 245.214844 201.191406 244.171875 201.1875 C 243.917969 201.175781 243.640625 201.101562 243.457031 201.277344 C 242.785156 202.066406 241.703125 202.042969 240.894531 202.5625 C 240.8125 202.628906 240.667969 202.71875 240.558594 202.722656 C 239.097656 202.734375 238.050781 203.664062 236.867188 204.429688 C 235.191406 205.492188 233.03125 205.082031 231.511719 206.371094 C 230.511719 206.957031 229.351562 207.109375 228.535156 207.988281 C 228.332031 208.207031 228.105469 208.363281 227.785156 208.375 C 225.507812 208.695312 224.164062 210.164062 222.738281 211.808594 C 221.992188 211.160156 221.476562 211.496094 220.820312 212.136719 C 216.496094 216.835938 217.328125 223.722656 216.550781 229.671875 C 216.527344 230.179688 216.378906 230.738281 216.460938 231.242188 C 216.757812 234.035156 215.410156 236.652344 215.6875 239.484375 C 215.671875 241.351562 214.847656 243.164062 215.066406 245.085938 C 215.25 246.523438 214.835938 248 214.421875 249.375 C 214.699219 250.59375 214.0625 251.65625 213.851562 252.8125 C 213.585938 254.304688 213.515625 255.835938 213.339844 257.371094 C 213.25 258.371094 213.203125 259.390625 213.261719 260.40625 C 213.359375 261.230469 212.960938 261.988281 212.714844 262.761719 C 212.296875 264.027344 212.386719 265.320312 212.222656 266.597656 C 212.191406 266.898438 212.265625 267.191406 212.148438 267.449219 C 211.46875 269.171875 211.429688 270.976562 210.988281 272.753906 C 210.09375 275.523438 210.761719 278.640625 209.652344 281.3125 C 209.65625 283.136719 208.808594 284.886719 208.789062 286.648438 C 208.554688 289.457031 208.871094 292.308594 208.234375 295.089844 C 207.578125 295.15625 207.3125 294.828125 207.152344 294.496094 C 205.644531 291.625 204.785156 288.472656 203.402344 285.554688 C 202.125 282.632812 201.269531 279.585938 199.828125 276.796875 C 199.175781 275.148438 198.957031 273.332031 198.050781 271.773438 C 194.863281 263.085938 191.925781 254.308594 188.425781 245.738281 C 186.339844 241.042969 184.425781 236.320312 182.628906 231.445312 C 181.472656 228.835938 180.085938 226.382812 178.867188 223.796875 C 178.492188 222.898438 178.039062 222.070312 177.128906 221.550781 C 175.933594 220.28125 174.71875 218.945312 173.398438 217.722656 C 173.15625 217.457031 172.785156 217.234375 172.449219 217.292969 C 171.730469 217.382812 171.105469 217.042969 170.460938 216.855469 C 168.082031 216.246094 165.496094 216.320312 163.269531 217.441406 C 162.273438 218.03125 161.070312 218.265625 159.9375 218.585938 C 158.003906 219.058594 156.484375 220.453125 154.4375 220.71875 C 153.660156 220.941406 152.859375 221.097656 152.15625 221.503906 C 150.308594 222.59375 148.199219 222.988281 146.164062 223.574219 C 141.40625 225.109375 136.460938 226.25 131.804688 228.246094 C 129.652344 228.519531 127.480469 228.832031 125.566406 229.945312 C 124.761719 230.460938 123.839844 230.199219 123.023438 230.503906 C 120.886719 231.304688 118.613281 231.730469 116.574219 232.78125 C 116.363281 232.894531 116.113281 232.988281 115.878906 232.933594 C 115.238281 232.851562 114.695312 233.128906 114.15625 233.402344 C 111.550781 234.09375 109.023438 235.183594 106.421875 235.980469 C 105.816406 236.175781 105.6875 237.261719 104.957031 237.035156 C 103.820312 236.671875 102.953125 237.320312 101.847656 237.339844 C 101.550781 236.738281 101.847656 236.195312 102.152344 235.757812 C 102.917969 234.753906 103.363281 233.550781 103.957031 232.46875 C 104.214844 231.90625 104.488281 231.300781 105.046875 230.878906 C 105.519531 230.519531 105.476562 229.929688 105.519531 229.375 C 106.949219 228.984375 106.664062 227.082031 107.914062 226.402344 C 108.183594 226.261719 108.214844 225.964844 108.332031 225.707031 C 108.804688 224.777344 109.953125 224.203125 109.992188 222.972656 C 112.953125 221.609375 113.253906 217.738281 115.710938 215.882812 C 116.464844 214.5625 118.050781 213.824219 118.5 212.257812 C 118.617188 211.894531 118.730469 211.527344 119.0625 211.367188 C 119.9375 210.933594 120.417969 210.109375 121.113281 209.488281 C 121.648438 209 121.882812 208.484375 121.917969 207.71875 C 124.015625 207.109375 122.332031 205.773438 124.167969 204.941406 C 126.289062 203.714844 126.160156 200.898438 128.195312 199.632812 C 128.585938 199.34375 128.914062 199.078125 129.0625 198.519531 C 129.304688 196.960938 131.132812 196.492188 131.585938 195.03125 C 131.683594 194.816406 131.800781 194.558594 132.054688 194.460938 C 133.804688 193.695312 133.859375 191.742188 134.847656 190.371094 C 135.859375 189.058594 136.289062 187.429688 137.257812 186.101562 C 138.773438 183.5625 140.726562 181.324219 142.398438 178.90625 C 142.839844 178.171875 143.464844 177.933594 144.3125 177.902344 C 145.523438 177.878906 145.542969 177.835938 145.902344 176.699219 C 146.390625 175.617188 146.050781 174.421875 146.179688 173.335938 C 146.699219 171.851562 145.515625 170.898438 144.777344 169.886719 C 144.214844 168.382812 142.738281 167.503906 142.027344 166.085938 C 140.257812 164.710938 139.414062 162.554688 137.785156 160.984375 C 136.597656 159.816406 135.609375 158.433594 134.707031 156.980469 C 134.082031 156.070312 133.183594 155.40625 132.785156 154.339844 C 131.144531 153.59375 130.859375 151.589844 129.339844 150.691406 C 128.417969 149.28125 127.351562 148.070312 126.410156 146.703125 C 125.28125 144.835938 123.675781 143.328125 122.566406 141.417969 C 121.675781 140.28125 120.554688 139.304688 120.246094 137.8125 C 120.019531 136.25 118.378906 135.503906 117.753906 134.128906 C 117.164062 132.558594 116.160156 131.21875 115.488281 129.714844 C 115.339844 129.125 115.085938 128.542969 114.644531 128.132812 C 113.65625 127.214844 113.140625 125.941406 112.195312 125.042969 C 110.296875 123.035156 109.308594 120.398438 107.324219 118.457031 C 106.910156 118.113281 106.847656 117.5625 106.886719 116.902344 C 108.828125 116.066406 110.707031 117.546875 112.667969 117.238281 C 112.773438 117.234375 112.945312 117.207031 113.03125 117.246094 C 114.265625 117.964844 115.683594 117.828125 117.027344 118.074219 C 118.222656 118.304688 119.234375 119.179688 120.515625 118.878906 C 122.832031 119.511719 125.277344 119.738281 127.558594 120.566406 C 128.164062 120.839844 128.910156 120.917969 129.605469 120.871094 C 131.964844 120.953125 134.011719 122.40625 136.320312 122.828125 C 139.890625 123.566406 143.386719 124.582031 146.746094 125.898438 C 154.527344 128.597656 162.484375 130.914062 170.632812 132.113281 C 171.632812 132.203125 172.824219 132.328125 173.742188 131.914062 C 176.0625 130.363281 178.789062 129.519531 181.015625 127.824219 C 181.882812 127.175781 182.839844 126.675781 183.464844 125.757812 C 183.582031 125.5 183.871094 125.320312 184.125 125.226562 C 186.867188 124.234375 188.511719 121.753906 190.875 120.222656 C 194.84375 118.015625 197.457031 114.101562 201.207031 111.691406 C 203.191406 110.300781 204.910156 108.582031 206.542969 106.824219 C 206.867188 106.449219 207.214844 106.140625 207.722656 106.058594 C 209.210938 105.640625 209.695312 103.777344 211.273438 103.402344 C 212.613281 102.398438 213.992188 101.199219 215.152344 99.90625 C 215.394531 99.597656 215.617188 99.335938 215.953125 99.175781 C 217.996094 98.230469 219.660156 96.746094 221.34375 95.324219 C 223.804688 93.003906 226.601562 91.203125 229.550781 89.523438 C 230.226562 88.839844 231.128906 88.574219 232.007812 88.246094 C 233.28125 87.15625 234.785156 87.058594 236.335938 87.085938 C 236.660156 87.285156 236.671875 87.605469 236.554688 87.863281 C 235.84375 90.457031 236.222656 93.179688 235.703125 95.808594 C 235.457031 97.726562 234.808594 99.617188 234.902344 101.585938 C 234.949219 102.285156 234.71875 102.910156 234.511719 103.597656 C 234.058594 105.160156 233.398438 106.734375 233.503906 108.449219 C 233.523438 108.980469 233.4375 109.511719 233.265625 110.007812 C 232.59375 111.941406 232.4375 114.003906 231.617188 115.925781 C 231.382812 116.441406 231.382812 117.015625 231.277344 117.589844 C 231.1875 118.019531 231.183594 118.484375 230.855469 118.859375 C 230.816406 118.945312 230.695312 119.097656 230.699219 119.203125 C 230.796875 120.601562 230.015625 121.859375 230.066406 123.238281 C 229.746094 125.433594 228.847656 127.527344 228.972656 129.769531 C 229.011719 131.402344 227.851562 132.699219 227.976562 134.367188 C 227.972656 135.410156 227.414062 136.300781 227.261719 137.324219 C 227.167969 138.21875 227.007812 139.136719 226.425781 139.964844 C 226 140.550781 226.203125 141.371094 225.992188 142.058594 C 225.65625 143.257812 224.914062 144.433594 225.179688 145.800781 C 225.230469 146.035156 225.113281 146.292969 224.972656 146.488281 C 224.25 147.617188 224.019531 148.816406 224.089844 150.148438 C 224.390625 152.578125 223.75 155.253906 225.460938 157.332031 C 227.171875 160.558594 228.425781 161.230469 231.804688 162.507812 C 234.839844 163.625 237.804688 165.230469 241.011719 165.855469 C 241.949219 165.96875 242.867188 166.125 243.613281 166.777344 C 243.832031 166.980469 244.128906 167.011719 244.386719 167.023438 C 245.980469 167.175781 247.765625 167.257812 249.21875 168.074219 C 251.800781 169.609375 254.914062 169.515625 257.597656 170.835938 C 259.964844 171.238281 262.339844 171.742188 264.5625 172.804688 C 265.945312 173.433594 267.402344 173.78125 268.875 174.085938 C 272.144531 175.257812 275.402344 176.6875 278.808594 177.558594 C 279.425781 177.683594 280.109375 177.785156 280.574219 178.253906 C 282.171875 178.980469 283.964844 179.273438 285.660156 179.890625 C 286.730469 180.0625 287.253906 181.082031 288.34375 181.210938 C 289.171875 181.328125 289.457031 182.082031 289.734375 182.730469 C 289.875 183.105469 289.613281 183.457031 289.238281 183.597656 C 287.121094 184.355469 285.507812 185.964844 283.371094 186.765625 Z M 283.757812 194.28125 C 284.105469 193.746094 284.679688 193.398438 285.480469 193.242188 C 284.886719 193.855469 284.386719 194.046875 283.757812 194.28125 Z M 283.757812 194.28125 " fill-opacity="1" fill-rule="nonzero"/></g></g></g></svg>